<?xml version="1.0" encoding="utf-8"?>
<!-- Generator: Adobe Illustrator 27.0.0, SVG Export Plug-In . SVG Version: 6.00 Build 0)  -->
<svg version="1.1" xmlns="http://www.w3.org/2000/svg" xmlns:xlink="http://www.w3.org/1999/xlink" x="0px" y="0px"
	 viewBox="0 0 2746.1 1830" style="enable-background:new 0 0 2746.1 1830;" xml:space="preserve">
<style type="text/css">
	.st0{fill:#FFFFFF;}
	.st1{clip-path:url(#SVGID_00000032623354380664662760000008490134009471182487_);}
	.st2{fill:#E2EAFF;}
	.st3{clip-path:url(#SVGID_00000093169562019193403020000001440527457479601310_);}
	.st4{fill:#5479F7;}
	.st5{clip-path:url(#SVGID_00000142173918373016368460000004383883918244905389_);}
	.st6{clip-path:url(#SVGID_00000175304551347473483830000017895380036121044642_);}
</style>
<g id="Background">
</g>
<g id="Illustration">
	<g id="Conference_administration_1_">
		<g>
			<g>
				<g>
					<path class="st0" d="M2505.7,1290c-1.3,0.9-2.6,2-3.7,3c-12.3-10.7-26-19.3-40.5-25.7c0.5-1.5,0.9-3.1,1.1-4.7
						c3.7-21.5-10.7-41.9-32.1-45.6c-21.5-3.7-41.9,10.7-45.6,32.1c-0.3,1.6-0.4,3.2-0.5,4.8c-15.8,1.1-31.6,4.6-46.8,10.5
						c-0.7-1.4-1.6-2.8-2.5-4.1c-12.5-17.8-37.1-22.1-54.9-9.5c-17.8,12.5-22.1,37.1-9.5,54.9c0.9,1.3,2,2.6,3,3.7
						c-10.7,12.3-19.3,26-25.7,40.5c-1.5-0.5-3.1-0.9-4.7-1.1c-21.5-3.7-41.9,10.7-45.6,32.1c-3.7,21.5,10.7,41.9,32.1,45.6
						c1.6,0.3,3.2,0.4,4.8,0.5c1.1,15.8,4.6,31.6,10.5,46.8c-1.4,0.7-2.8,1.6-4.1,2.5c-17.8,12.5-22.1,37.1-9.5,54.9
						c12.5,17.8,37.1,22.1,54.9,9.5c1.3-0.9,2.6-2,3.7-3c12.3,10.7,26,19.3,40.5,25.7c-0.5,1.5-0.9,3.1-1.1,4.7
						c-3.7,21.5,10.7,41.9,32.1,45.6c21.5,3.7,41.9-10.7,45.6-32.1c0.3-1.6,0.4-3.2,0.5-4.8c15.8-1.1,31.6-4.6,46.8-10.5
						c0.7,1.4,1.6,2.8,2.5,4.1c12.5,17.8,37.1,22.1,54.9,9.5c17.8-12.5,22.1-37.1,9.5-54.9c-0.9-1.3-2-2.6-3-3.7
						c10.7-12.3,19.3-26,25.7-40.5c1.5,0.5,3.1,0.9,4.7,1.1c21.5,3.7,41.9-10.7,45.6-32.1c3.7-21.5-10.7-41.9-32.1-45.6
						c-1.6-0.3-3.2-0.4-4.8-0.5c-1.1-15.8-4.6-31.6-10.5-46.8c1.4-0.7,2.8-1.6,4.1-2.5c17.8-12.5,22.1-37.1,9.5-54.9
						C2548.1,1281.7,2523.5,1277.5,2505.7,1290z M2438.2,1475.3c-33.1,23.3-78.7,15.4-102-17.7c-23.3-33.1-15.4-78.7,17.7-102
						c33.1-23.3,78.7-15.4,102,17.7C2479.2,1406.4,2471.3,1452.1,2438.2,1475.3z"/>
					<path d="M2368.4,1616.6c-2.4,0-4.7-0.2-7.1-0.6c-11-1.9-20.5-8-26.9-17c-6.4-9.1-8.9-20.1-7-31.1c0.2-1,0.4-2,0.7-3
						c-13.7-6.2-26.4-14.3-37.9-24c-0.8,0.7-1.7,1.3-2.5,1.9c-18.8,13.2-44.8,8.7-58-10.1c-13.2-18.8-8.7-44.8,10.1-58
						c0.8-0.6,1.7-1.1,2.6-1.7c-5.3-14.1-8.6-28.8-9.8-43.8c-1.1-0.1-2.1-0.2-3.1-0.4c-22.6-3.9-37.8-25.5-33.9-48.1
						c1.9-11,8-20.5,17-26.9c9.1-6.4,20.1-8.9,31.1-7c1,0.2,2,0.4,3,0.7c6.2-13.7,14.3-26.4,24-37.9c-0.7-0.8-1.3-1.7-1.9-2.5
						c-6.4-9.1-8.9-20.1-7-31.1c1.9-11,8-20.5,17-26.9c9.1-6.4,20.1-8.9,31.1-7c11,1.9,20.5,8,26.9,17c0.6,0.8,1.1,1.7,1.7,2.6
						c14.1-5.3,28.8-8.6,43.8-9.8c0.1-1.1,0.2-2.1,0.4-3.1c1.9-11,8-20.5,17-26.9c9.1-6.4,20.1-8.9,31.1-7
						c22.6,3.9,37.8,25.5,33.9,48.1c-0.2,1-0.4,2-0.7,3c13.7,6.2,26.4,14.3,37.9,24c0.8-0.7,1.7-1.3,2.5-1.9
						c18.8-13.2,44.8-8.7,58,10.1c13.2,18.8,8.7,44.8-10.1,58c-0.8,0.6-1.7,1.1-2.6,1.7c5.3,14.1,8.6,28.8,9.8,43.8
						c1.1,0.1,2.1,0.2,3.1,0.4c11,1.9,20.5,8,26.9,17c6.4,9.1,8.9,20.1,7,31.1c-1.9,11-8,20.5-17,26.9c-9.1,6.4-20.1,8.9-31.1,7
						c-1-0.2-2-0.4-3-0.7c-6.2,13.7-14.3,26.4-24,37.9c0.7,0.8,1.3,1.7,1.9,2.5c6.4,9.1,8.9,20.1,7,31.1c-1.9,11-8,20.5-17,26.9
						c-9.1,6.4-20.1,8.9-31.1,7c-11-1.9-20.5-8-26.9-17c-0.6-0.8-1.1-1.7-1.7-2.6c-14.1,5.3-28.8,8.6-43.8,9.8
						c-0.1,1.1-0.2,2.1-0.4,3.1C2405.9,1602.3,2388.3,1616.6,2368.4,1616.6z M2290.2,1535.7c0.5,0,1,0.2,1.4,0.5
						c12,10.4,25.5,18.9,40,25.3c1,0.4,1.5,1.6,1.2,2.7c-0.5,1.6-0.8,3-1.1,4.4c-1.7,9.8,0.5,19.7,6.2,27.8
						c5.7,8.1,14.3,13.5,24.1,15.2c20.2,3.5,39.5-10.1,43-30.3c0.2-1.3,0.4-2.8,0.5-4.5c0.1-1.1,0.9-2,2-2.1
						c15.8-1.1,31.4-4.6,46.2-10.4c1-0.4,2.2,0,2.7,1c0.8,1.5,1.6,2.8,2.4,3.9c5.7,8.1,14.3,13.5,24.1,15.2
						c9.8,1.7,19.7-0.5,27.8-6.2c16.8-11.8,20.8-35.1,9-51.9c-0.8-1.1-1.7-2.2-2.9-3.5c-0.7-0.8-0.8-2.1,0-2.9
						c10.4-12,18.9-25.5,25.3-40c0.4-1,1.6-1.5,2.6-1.2c1.6,0.5,3,0.8,4.4,1.1c20.2,3.5,39.5-10.1,43-30.3
						c1.7-9.8-0.5-19.7-6.2-27.8c-5.7-8.1-14.3-13.5-24.1-15.2c-1.4-0.2-2.8-0.4-4.5-0.5c-1.1-0.1-2-0.9-2.1-2
						c-1.1-15.8-4.6-31.4-10.4-46.2c-0.4-1,0-2.2,1-2.7c1.5-0.8,2.7-1.6,3.9-2.4c16.8-11.8,20.8-35.1,9-51.9
						c-11.8-16.8-35.1-20.8-51.9-9c-1.1,0.8-2.3,1.7-3.5,2.8c-0.8,0.7-2.1,0.8-2.9,0c-12-10.4-25.5-18.9-40-25.3
						c-1-0.4-1.5-1.6-1.2-2.7c0.5-1.6,0.8-3.1,1.1-4.4c3.5-20.2-10.1-39.5-30.3-43c-20.2-3.5-39.5,10.1-43,30.3
						c-0.2,1.3-0.4,2.8-0.5,4.5c-0.1,1.1-0.9,2-2,2.1c-15.8,1.1-31.4,4.6-46.2,10.4c-1,0.4-2.2,0-2.7-1c-0.8-1.5-1.6-2.7-2.4-3.9
						c-5.7-8.1-14.3-13.5-24.1-15.2c-9.8-1.7-19.7,0.5-27.8,6.2c-8.1,5.7-13.5,14.3-15.2,24.1c-1.7,9.8,0.5,19.7,6.2,27.8
						c0.8,1.1,1.7,2.3,2.8,3.5c0.7,0.8,0.8,2.1,0,2.9c-10.4,12-18.9,25.5-25.3,40c-0.4,1-1.6,1.5-2.6,1.2c-1.6-0.5-3.1-0.8-4.4-1.1
						c-20.2-3.5-39.5,10.1-43,30.3c-3.5,20.2,10.1,39.5,30.3,43c1.4,0.2,2.8,0.4,4.5,0.5c1.1,0.1,2,0.9,2.1,2
						c1.1,15.8,4.6,31.4,10.4,46.2c0.4,1,0,2.2-1,2.7c-1.5,0.8-2.7,1.6-3.9,2.4c-16.8,11.8-20.8,35.1-9,51.9
						c11.8,16.8,35.1,20.8,51.9,9c1.1-0.8,2.2-1.7,3.5-2.9C2289.1,1535.9,2289.6,1535.7,2290.2,1535.7z M2505.7,1290L2505.7,1290
						L2505.7,1290z M2396.2,1490.9c-4.3,0-8.7-0.4-13-1.1c-19.9-3.4-37.2-14.4-48.8-30.9c-11.6-16.5-16.1-36.5-12.7-56.3
						s14.4-37.2,30.9-48.8c34-24,81.1-15.8,105.1,18.2c11.6,16.5,16.1,36.5,12.7,56.3c-3.4,19.9-14.4,37.2-30.9,48.8
						C2426.7,1486.2,2411.7,1490.9,2396.2,1490.9z M2396,1344.5c-14.1,0-28.4,4.2-40.8,12.9c-32,22.6-39.7,66.9-17.2,99
						c10.9,15.5,27.2,25.8,45.9,29.1c18.7,3.2,37.5-1,53-11.9c15.5-10.9,25.8-27.2,29.1-45.9c3.2-18.7-1-37.5-11.9-53
						C2440.3,1355,2418.3,1344.5,2396,1344.5z"/>
				</g>
				<g>
					<path class="st0" d="M2196.6,1584.9c-1.1,0.1-2.2,0.3-3.3,0.5c-3.7-10.8-9.1-20.8-15.6-29.7c0.8-0.8,1.6-1.6,2.3-2.4
						c9.7-11.7,8.1-29.1-3.6-38.8c-11.7-9.7-29.1-8.1-38.8,3.6c-0.7,0.9-1.4,1.8-2,2.7c-10-4.8-20.8-8.2-32.1-9.9
						c0-1.1,0-2.2-0.1-3.4c-1.4-15.2-14.8-26.3-30-24.9c-15.2,1.4-26.3,14.8-24.9,30c0.1,1.1,0.3,2.2,0.5,3.3
						c-10.8,3.7-20.8,9-29.7,15.6c-0.8-0.8-1.6-1.6-2.4-2.3c-11.7-9.7-29.1-8.1-38.8,3.6c-9.7,11.7-8.1,29.1,3.6,38.8
						c0.9,0.7,1.8,1.4,2.7,2c-4.8,10-8.2,20.8-9.9,32.1c-1.1,0-2.2,0-3.4,0.1c-15.2,1.4-26.3,14.8-24.9,30
						c1.4,15.2,14.8,26.3,30,24.9c1.1-0.1,2.2-0.3,3.3-0.5c3.7,10.8,9,20.8,15.6,29.7c-0.8,0.8-1.6,1.6-2.3,2.4
						c-9.7,11.7-8.1,29.1,3.6,38.8c11.7,9.7,29.1,8.1,38.8-3.6c0.7-0.9,1.4-1.8,2-2.7c10,4.8,20.8,8.2,32.1,9.9c0,1.1,0,2.2,0.1,3.4
						c1.4,15.2,14.8,26.3,30,24.9c15.2-1.4,26.3-14.8,24.9-30c-0.1-1.1-0.3-2.2-0.5-3.3c10.8-3.7,20.8-9,29.7-15.6
						c0.8,0.8,1.6,1.6,2.4,2.3c11.7,9.7,29.1,8.1,38.8-3.6c9.7-11.7,8.1-29.1-3.6-38.8c-0.9-0.7-1.8-1.4-2.7-2
						c4.8-10,8.2-20.8,10-32.1c1.1,0,2.2,0,3.4-0.1c15.2-1.4,26.3-14.8,24.9-30C2225.2,1594.6,2211.7,1583.5,2196.6,1584.9z
						 M2091,1673.7c-28.2,2.6-53.1-18.1-55.7-46.3c-2.6-28.2,18.1-53.1,46.3-55.7c28.2-2.6,53.1,18.1,55.7,46.3
						C2139.9,1646.2,2119.2,1671.1,2091,1673.7z"/>
					<path d="M2096.7,1765.2c-6.9,0-13.6-2.4-19-6.9c-6.1-5.1-9.9-12.2-10.6-20.2c0-0.5-0.1-1.1-0.1-1.7c-10.1-1.7-19.8-4.7-29.1-9
						c-0.3,0.5-0.7,0.9-1,1.3c-5.1,6.1-12.2,9.9-20.2,10.6c-7.9,0.7-15.7-1.7-21.8-6.8c-6.1-5.1-9.9-12.2-10.6-20.2
						c-0.7-7.9,1.7-15.7,6.8-21.8c0.3-0.4,0.7-0.8,1.1-1.3c-5.9-8.3-10.7-17.4-14.2-27c-0.6,0.1-1.1,0.2-1.7,0.2
						c-7.9,0.7-15.6-1.7-21.8-6.8c-6.1-5.1-9.9-12.2-10.6-20.2c-0.7-7.9,1.7-15.7,6.8-21.8c5.1-6.1,12.2-9.9,20.2-10.6
						c0.5,0,1.1-0.1,1.7-0.1c1.7-10.1,4.7-19.8,9-29.1c-0.5-0.3-0.9-0.7-1.3-1c-6.1-5.1-9.9-12.2-10.6-20.2
						c-0.7-7.9,1.7-15.7,6.8-21.8c10.5-12.6,29.3-14.4,41.9-3.9c0.4,0.3,0.8,0.7,1.3,1.1c8.3-5.9,17.4-10.7,27-14.2
						c-0.1-0.6-0.2-1.1-0.2-1.7c-1.5-16.3,10.6-30.9,26.9-32.4c7.9-0.7,15.7,1.7,21.8,6.8c6.1,5.1,9.9,12.2,10.6,20.2
						c0,0.5,0.1,1.1,0.1,1.7c10.1,1.7,19.8,4.7,29.1,9c0.3-0.5,0.7-0.9,1-1.3c5.1-6.1,12.2-9.9,20.2-10.6c7.9-0.7,15.7,1.7,21.8,6.8
						c12.6,10.5,14.4,29.3,3.9,41.9c-0.3,0.4-0.7,0.8-1.1,1.3c5.9,8.3,10.7,17.4,14.2,27c0.6-0.1,1.1-0.2,1.7-0.2
						c16.4-1.5,30.9,10.6,32.4,26.9c1.5,16.4-10.6,30.9-26.9,32.4c-0.5,0-1.1,0.1-1.7,0.1c-1.7,10.1-4.7,19.8-9,29.1
						c0.5,0.3,0.9,0.7,1.3,1c6.1,5.1,9.9,12.2,10.6,20.2c0.7,7.9-1.7,15.7-6.8,21.8c-5.1,6.1-12.2,9.9-20.2,10.6
						c-7.9,0.7-15.7-1.7-21.8-6.8c-0.4-0.3-0.8-0.7-1.3-1.1c-8.3,5.9-17.4,10.7-27,14.2c0.1,0.6,0.2,1.1,0.2,1.7
						c0.7,7.9-1.7,15.6-6.8,21.8c-5.1,6.1-12.2,9.9-20.2,10.6C2098.5,1765.2,2097.6,1765.2,2096.7,1765.2z M2037.1,1722.5
						c0.3,0,0.6,0.1,1,0.2c9.9,4.8,20.5,8.1,31.4,9.8c1.1,0.2,1.9,1.1,1.9,2.2c0,1.2,0,2.2,0.1,3.1c0.6,6.8,3.8,12.9,9,17.2
						c5.2,4.3,11.8,6.4,18.5,5.8c13.9-1.3,24.2-13.7,22.9-27.6c-0.1-0.9-0.2-1.9-0.5-3.1c-0.2-1.1,0.4-2.2,1.4-2.5
						c10.4-3.6,20.2-8.8,29.1-15.3c0.9-0.7,2.1-0.5,2.9,0.3c0.8,0.9,1.5,1.5,2.2,2.1c5.2,4.3,11.8,6.4,18.5,5.8
						c6.7-0.6,12.9-3.8,17.2-9c4.3-5.2,6.4-11.8,5.8-18.5c-0.6-6.7-3.8-12.9-9-17.2c-0.7-0.6-1.5-1.2-2.5-1.8
						c-0.9-0.6-1.3-1.8-0.8-2.8c4.8-9.9,8.1-20.5,9.8-31.4c0.2-1.1,1.2-1.9,2.2-1.9c1.2,0,2.1,0,3.1-0.1c6.8-0.6,12.9-3.8,17.2-9
						c4.3-5.2,6.4-11.8,5.8-18.5c-1.3-13.9-13.7-24.2-27.6-22.9c-0.9,0.1-1.9,0.2-3,0.5c-1.1,0.2-2.2-0.4-2.5-1.4
						c-3.6-10.4-8.8-20.2-15.3-29.1c-0.7-0.9-0.5-2.1,0.3-2.9c0.8-0.8,1.5-1.5,2.1-2.2c8.9-10.8,7.5-26.8-3.3-35.7
						c-5.2-4.3-11.8-6.4-18.5-5.8c-6.7,0.6-12.9,3.8-17.2,9c-0.6,0.7-1.2,1.5-1.8,2.5c-0.6,0.9-1.8,1.3-2.8,0.8
						c-9.9-4.8-20.5-8.1-31.4-9.8c-1.1-0.2-1.9-1.1-1.9-2.2c0-1.2,0-2.2-0.1-3.1c-0.6-6.8-3.8-12.9-9-17.2
						c-5.2-4.3-11.8-6.4-18.5-5.8c-6.8,0.6-12.9,3.8-17.2,9c-4.3,5.2-6.4,11.8-5.8,18.5c0.1,0.9,0.2,1.9,0.5,3.1
						c0.2,1.1-0.4,2.2-1.4,2.5c-10.4,3.6-20.2,8.8-29.1,15.3c-0.9,0.7-2.1,0.5-2.9-0.3c-0.8-0.8-1.5-1.5-2.2-2.1
						c-10.8-8.9-26.8-7.5-35.7,3.3c-4.3,5.2-6.4,11.8-5.8,18.5c0.6,6.7,3.8,12.9,9,17.2c0.7,0.6,1.5,1.2,2.5,1.8
						c0.9,0.6,1.3,1.8,0.8,2.8c-4.8,9.9-8.1,20.5-9.8,31.4c-0.2,1.1-1.2,1.9-2.2,1.9c-1.2,0-2.2,0-3.1,0.1
						c-13.9,1.3-24.2,13.7-22.9,27.6c0.6,6.8,3.8,12.9,9,17.2c5.2,4.3,11.8,6.4,18.5,5.8c0.9-0.1,1.9-0.2,3.1-0.5
						c1.1-0.2,2.2,0.4,2.5,1.4c3.6,10.4,8.8,20.2,15.3,29.1c0.7,0.9,0.5,2.1-0.3,2.9c-0.8,0.8-1.5,1.5-2.1,2.2
						c-4.3,5.2-6.4,11.8-5.8,18.5s3.8,12.9,9,17.2c5.2,4.3,11.8,6.4,18.5,5.8c6.8-0.6,12.9-3.8,17.2-9c0.6-0.7,1.2-1.5,1.8-2.5
						C2035.7,1722.8,2036.4,1722.5,2037.1,1722.5z M2086.2,1676.1c-12.4,0-24.4-4.3-34.1-12.3c-11-9.1-17.7-22-19-36.2
						c-1.3-14.2,3-28.1,12.1-39c9.1-11,22-17.7,36.2-19c14.2-1.3,28.1,3,39,12.1c11,9.1,17.7,22,19,36.2c1.3,14.2-3,28.1-12.1,39
						c-9.1,11-22,17.7-36.2,19l-0.2-2.2l0.2,2.2C2089.6,1676,2087.9,1676.1,2086.2,1676.1z M2086.4,1573.7c-1.5,0-3,0.1-4.6,0.2
						c-13,1.2-24.8,7.4-33.2,17.5c-8.4,10.1-12.3,22.8-11.1,35.8c1.2,13,7.4,24.8,17.5,33.2c10.1,8.4,22.8,12.3,35.8,11.1
						c26.9-2.5,46.8-26.4,44.3-53.3c-1.2-13-7.4-24.8-17.5-33.2C2108.8,1577.6,2097.8,1573.7,2086.4,1573.7z"/>
				</g>
			</g>
		</g>
		<g>
			<g>
				<path class="st0" d="M2668,1320.2H767.1c-41.9,0-75.9-34-75.9-75.9V78.1c0-41.9,34-75.9,75.9-75.9H2668
					c41.9,0,75.9,34,75.9,75.9v1166.1C2743.9,1286.2,2709.9,1320.2,2668,1320.2z"/>
				<path d="M2668,1322.4H767.1c-43.1,0-78.1-35.1-78.1-78.1V78.1C689,35.1,724,0,767.1,0H2668c43.1,0,78.1,35.1,78.1,78.1v1166.1
					C2746.1,1287.3,2711,1322.4,2668,1322.4z M767.1,4.4c-40.7,0-73.7,33.1-73.7,73.7v1166.1c0,40.7,33.1,73.7,73.7,73.7H2668
					c40.7,0,73.7-33.1,73.7-73.7V78.1c0-40.7-33.1-73.7-73.7-73.7H767.1z"/>
			</g>
			<g>
				<g>
					<g>
						<defs>
							<rect id="SVGID_4_" x="1403.4" y="744.2" width="652.4" height="381.1"/>
						</defs>
						<clipPath id="SVGID_00000173140640763402629390000008183903682217347754_">
							<use xlink:href="#SVGID_4_"  style="overflow:visible;"/>
						</clipPath>
						<g style="clip-path:url(#SVGID_00000173140640763402629390000008183903682217347754_);">
							<g>
								<g>
									<g>
										<path class="st0" d="M2003.9,981.9c-1.7-4.6-6-7.7-10.5-8.8c-4.5-1.2-9.2-0.7-13.8-0.3c-29.4,2.7-58.8,5.5-88.1,8.2
											c20,10.5,42.2,14.8,64.2,15.6C1964.8,996.9,2011,1001.6,2003.9,981.9z"/>
										<path d="M1974.1,999.5c-5,0-10.1-0.2-15.2-0.5c-1.4-0.1-2.5-0.1-3.4-0.2c-25-0.9-46.9-6.2-65.2-15.8
											c-0.9-0.5-1.3-1.4-1.1-2.4c0.2-1,1-1.7,2-1.8l88.1-8.2c4.5-0.4,9.7-0.9,14.6,0.4c5.8,1.5,10.3,5.3,12.1,10.2
											c1.4,4,1.1,7.5-1.1,10.4C2000.2,997.8,1987.9,999.5,1974.1,999.5z M1899.5,982.5c16.2,7.2,35,11.2,56.2,11.9
											c0.9,0,2,0.1,3.5,0.2c10,0.6,36.4,2.1,42.2-5.7c1.2-1.6,1.4-3.7,0.4-6.2c-1.5-4.2-5.6-6.6-9-7.5
											c-4.2-1.1-8.7-0.7-13.1-0.2L1899.5,982.5z"/>
									</g>
									<g>
										<g>
											<path class="st0" d="M1843.5,985.3c10.3-27.5,46.2-40.7,58.7-44.9c12.5-4.2,14.7,14.1-4.9,25.4
												c-19.6,11.3-13,15.8-13,15.8s116.6-1.9,125.3,9.9c4.2,5.8,8,19.5-39.1,20.9c-13.3,0.4-34.4,0.3-41.4,20
												c-1.3,3.8-36.5,183.1-109.8,183.1c-82.9,0-126.3-121.2-126.3-121.2l79.9-61.3c0,0,38.7,61.8,33.5,58.8
												C1813.3,1076.4,1840.9,992.3,1843.5,985.3z"/>
											<path d="M1819.3,1217.7c-83.4,0-127.9-121.5-128.4-122.7c-0.3-0.9,0-1.9,0.7-2.5l79.9-61.3c0.5-0.4,1.1-0.5,1.7-0.4
												c0.6,0.1,1.1,0.5,1.5,1c19.6,31.2,28.2,46.2,31.9,53.6c6.4-16.4,19.4-55.2,27.6-79.5c3.8-11.2,6.5-19.4,7.3-21.4
												c9.3-24.6,37.8-38.7,60-46.2c6.3-2.1,10.1,0.7,11.6,4c2.9,6.5-1.2,17.7-14.7,25.5c-11.6,6.7-12.9,10.4-13,11.4
												c0,0.1,0,0.2,0,0.3c22.1-0.3,117.2-1.1,125.9,10.8c2.9,4,3.6,8.2,1.8,11.8c-3.8,7.7-17.7,11.8-42.6,12.6l-1.4,0
												c-13.4,0.4-31.7,0.9-38,18.5c-0.1,0.3-0.4,1.5-0.8,3.4C1917.9,1091,1882.1,1217.7,1819.3,1217.7
												C1819.3,1217.7,1819.3,1217.7,1819.3,1217.7z M1695.6,1095c5.3,13.8,48.3,118.3,123.6,118.3c0,0,0,0,0,0
												c59.6,0,94.5-124.3,106.7-177.8c0.6-2.7,0.8-3.5,0.9-3.9c7.3-20.4,28.2-21,42-21.4l1.4,0c29.9-0.9,37.1-6.7,38.7-10.1
												c1.4-2.8-0.3-5.7-1.4-7.2c-5.8-7.9-78.9-9.7-123.5-9c-0.5,0-0.9-0.1-1.3-0.4c-1-0.7-2.1-2.2-2-4.4
												c0.2-4.4,5.1-9.4,15.2-15.2c11.8-6.8,14.7-15.9,12.9-19.9c-1.3-2.8-4.4-2.2-6.2-1.6c-21.4,7.2-48.6,20.6-57.3,43.6
												c-0.7,1.9-3.6,10.5-7.2,21.2c-9,26.9-24,71.3-29.4,84.1c0.2,1.1-0.2,1.5-0.5,1.9c-0.6,0.6-1.8,1.1-3.1,0.3
												c-1-0.6-1.4-1.8-0.9-2.8c0,0,0,0,0,0c-2.5-6.4-20.1-35.4-32.1-54.6L1695.6,1095z"/>
										</g>
									</g>
									<path d="M1791.7,1138.6c-0.2,0-0.5,0-0.7-0.1c-1.2-0.4-1.8-1.6-1.4-2.8l14.7-44.6c0.4-1.2,1.6-1.8,2.8-1.4
										c1.2,0.4,1.8,1.6,1.4,2.8l-14.7,44.6C1793.5,1138,1792.6,1138.6,1791.7,1138.6z"/>
								</g>
								<g>
									<path class="st2" d="M1736.8,1104.3l54.9-43.1c0,0-9.8-20.6-34.1-67.5c-11.6-22.3-32.1-38.8-56.4-45.2
										c-40.3-10.6-107.5-22.5-176.4-9.3c-15,2.9-28.3,11.4-37,23.8c-23.3,33.1-35.5,100.6-50.3,149.7l95.5,1.7l-22.7,79.4
										l184.3-1.1L1736.8,1104.3z"/>
									<path class="st0" d="M1786.9,1223.7h-299.7c-38.5,0-66.9-35.7-58.4-73.2l8.6-37.7c0,0,66.3-15.7,109.6,1.7l-9,36.3h140.5
										c26.7,0,52.9,8.4,73.9,24.8C1766.8,1186.8,1780.3,1202.4,1786.9,1223.7z"/>
									<path d="M1786.9,1225.9h-299.7c-19,0-36.7-8.5-48.5-23.4c-11.8-14.9-16.2-34-12-52.5l8.6-37.7c0.3-1.2,1.5-1.9,2.6-1.7
										c1.2,0.3,1.9,1.5,1.7,2.6l-8.6,37.7c-3.9,17.2,0.1,35,11.1,48.8c11,13.8,27.4,21.7,45.1,21.7h296.6
										c-5.9-16.9-16.9-31.7-32.7-44c-10.2-7.9-21.7-14.1-34.2-18.2c-1.2-0.4-1.8-1.6-1.4-2.8c0.4-1.2,1.6-1.8,2.8-1.4
										c13,4.3,24.9,10.7,35.5,18.9c17.4,13.6,29.2,30.1,35.1,49.1c0.2,0.7,0.1,1.4-0.3,2
										C1788.2,1225.5,1787.6,1225.9,1786.9,1225.9z"/>
									<path d="M1749,1213.7c-0.9,0-1.7-0.5-2-1.4c-6-14.8-19.3-26.7-34.7-31c-1.2-0.3-1.9-1.5-1.5-2.7c0.3-1.2,1.6-1.8,2.7-1.5
										c16.7,4.7,31.1,17.6,37.6,33.6c0.5,1.1-0.1,2.4-1.2,2.9C1749.6,1213.7,1749.3,1213.7,1749,1213.7z"/>
									<path d="M1717.2,1214.4c-0.8,0-1.6-0.5-2-1.3c-5.5-12.4-16.5-22.3-29.3-26.6c-1.2-0.4-1.8-1.6-1.4-2.8
										c0.4-1.2,1.6-1.8,2.8-1.4c14,4.7,25.9,15.5,31.9,29c0.5,1.1,0,2.4-1.1,2.9C1717.8,1214.3,1717.5,1214.4,1717.2,1214.4z"/>
									<path d="M1552.4,1115.2c-0.2,0-0.4,0-0.6-0.1c-1.2-0.4-1.8-1.6-1.5-2.7l19.6-64.2c1-3.4,2.2-7.2,4.7-10.3
										c3-3.7,7.5-5.6,11.4-4.6c1.2,0.3,1.9,1.5,1.6,2.6c-0.3,1.2-1.5,1.9-2.6,1.6c-2.6-0.6-5.4,1.1-7,3.1c-2,2.4-2.9,5.7-3.9,8.8
										l-19.6,64.2C1554.2,1114.6,1553.4,1115.2,1552.4,1115.2z"/>
									<path d="M1654.5,1069.1c-4.8,0-9.8-1.6-14.4-4.6c-6-3.9-10.3-9.4-13.8-14.3c-24.1-34.1-31.8-77.2-38.6-115.1
										c-0.2-1.2,0.6-2.3,1.8-2.6c1.2-0.2,2.3,0.6,2.6,1.8c6.7,37.5,14.4,80.1,37.9,113.4c3.2,4.6,7.2,9.7,12.6,13.2
										c5.4,3.5,11.4,4.7,16.4,3.2c10.3-3,14.9-15.7,16.8-25.8c6-31.2,3-64.7-8.5-94.4c-0.4-1.1,0.1-2.4,1.3-2.9
										c1.1-0.4,2.4,0.1,2.9,1.3c11.8,30.4,14.9,64.8,8.7,96.8c-3.2,16.3-10.1,26.4-19.9,29.2
										C1658.3,1068.9,1656.4,1069.1,1654.5,1069.1z"/>
									<path d="M1705.6,1130.7c-2.1,0-4.3-0.2-6.3-0.7c-1.2-0.3-1.9-1.5-1.6-2.6c0.3-1.2,1.5-1.9,2.6-1.6
										c9.5,2.2,20.6-1.8,27.6-9.9c6.4-7.5,9.7-18.2,8.9-29.4c-0.6-9.6-4-19.8-10.2-30.3c-0.6-1-0.3-2.4,0.8-3
										c1-0.6,2.4-0.3,3,0.8c6.5,11.1,10.1,21.9,10.7,32.2c0.8,12.4-2.8,24.3-10,32.6C1724.7,1126.2,1715,1130.7,1705.6,1130.7z"
										/>
								</g>
							</g>
							<g>
								<path d="M1708,901.1c-2.8-17-6.2-33.9-10.1-50.7c-1-4.2-2-8.5-3.1-12.7c-0.8-3-3.8-9.1-3-12c0.7-2.5,4.3-4.9,5.3-7.7
									c1.2-3.2,1.4-6.8,0.6-10.1c-1.5-6.4-6.2-11.9-11.7-15.8c-13.6-9.6-31.8-10.8-48.7-10c-17.7,0.8-36.5,3.9-49.4,15.3
									c-12.1,10.7-16.8,26.9-19.1,42.5c-3.6,24.5-2.3,49.3-0.5,74c0.4,5.6,5,9.9,10.6,9.9c39.6,0.2,79.3-0.1,118.2-6.5
									c3.2-0.5,6.5-1.2,8.8-3.4C1709.2,910.6,1708.8,905.5,1708,901.1z"/>
								<g>
									<path class="st0" d="M1654.3,940.1l-5.4,48.5l-51.4-53.5c7.4-2.3,13.2-8.2,15.3-15.7l14-49.4l38.9,19.5L1654.3,940.1z"/>
									<path d="M1654.3,942.3c-0.2,0-0.3,0-0.5-0.1c-1.2-0.3-1.9-1.4-1.7-2.6l11-48.9l-35-17.5L1615,920
										c-2.3,8.2-8.6,14.7-16.8,17.2c-1.2,0.4-2.4-0.3-2.8-1.5c-0.4-1.2,0.3-2.4,1.5-2.8c6.8-2.1,11.9-7.4,13.9-14.2l14-49.4
										c0.2-0.6,0.6-1.2,1.2-1.4c0.6-0.3,1.3-0.2,1.9,0l38.9,19.5c0.9,0.5,1.4,1.5,1.2,2.5l-11.4,50.6
										C1656.2,941.6,1655.3,942.3,1654.3,942.3z"/>
									<g>
										<path class="st0" d="M1629.2,858c0,0-9.4-15.9-19.7-12.7c-15.7,4.9-14.7,33,11.2,31.6c0,0,30.7,39.2,60.1,28.3
											c29.4-10.9,7.8-77.1,2.1-88.4c0,0-39.1-5.2-42,18.4C1639.2,848.8,1642.5,858,1629.2,858z"/>
										<path d="M1669.9,909.4c-24.1,0-46-25-50.2-30.2c-14.4,0.4-21.1-8.2-22.4-15.7c-1.6-9,3.4-17.7,11.6-20.2
											c10.2-3.2,19.1,8.8,21.6,12.6c6.8-0.3,7.2-3.3,7.7-12.4c0.1-2.5,0.3-5.4,0.6-8.5c0.7-5.6,3.3-10.2,7.7-13.6
											c12.6-9.7,35.7-6.8,36.7-6.6c0.7,0.1,1.4,0.5,1.7,1.2c4.6,9.3,19.5,53.8,10.1,77.6c-2.7,6.9-7.3,11.6-13.5,13.9
											C1677.6,908.7,1673.8,909.4,1669.9,909.4z M1620.7,874.7c0.7,0,1.3,0.3,1.7,0.8c0.3,0.4,30,37.8,57.6,27.6
											c5.1-1.9,8.6-5.6,10.9-11.4c8.1-20.5-3.9-60.9-9.5-73c-4.7-0.4-22.6-1.6-32.3,5.9c-3.5,2.7-5.5,6.2-6.1,10.7
											c-0.4,2.9-0.5,5.7-0.6,8.1c-0.4,8.9-0.8,16.7-13.3,16.7c-0.8,0-1.5-0.4-1.9-1.1c-2.4-4-10.1-13.9-17.2-11.7
											c-7,2.2-9.6,9.5-8.6,15.3c1.1,6.3,6.7,12.7,19,12.1C1620.6,874.7,1620.7,874.7,1620.7,874.7z"/>
									</g>
									<path d="M1623.8,869.4c-0.5,0-1.1-0.2-1.5-0.6c-3.3-3.1-8.2-4.5-12.6-3.7c-1.2,0.3-2.4-0.5-2.6-1.7
										c-0.2-1.2,0.5-2.4,1.7-2.6c5.9-1.2,12.2,0.7,16.5,4.8c0.9,0.8,0.9,2.2,0.1,3.1C1624.9,869.1,1624.3,869.4,1623.8,869.4z"/>
									<g>
										<g>
											<path class="st0" d="M1677.1,852c1.6,7-1.8,13.7-7.6,15c-5.8,1.3-11.8-3.2-13.4-10.2c-1.6-7,1.8-13.7,7.6-15
												C1669.5,840.5,1675.5,845,1677.1,852z"/>
											<path d="M1667.5,869.4c-6.1,0-11.9-5-13.5-12.1c-0.9-3.9-0.5-7.8,1.2-11.1c1.7-3.4,4.6-5.8,8-6.6c3.5-0.8,7,0,10.1,2.4
												c2.9,2.2,5.1,5.6,6,9.5c1.9,8.1-2.3,16.1-9.2,17.7C1669.2,869.3,1668.3,869.4,1667.5,869.4z M1665.7,843.8
												c-0.5,0-1,0.1-1.6,0.2c-2.2,0.5-4,2-5.1,4.3c-1.2,2.4-1.5,5.3-0.8,8.1c1.3,5.8,6.2,9.6,10.8,8.5
												c4.6-1.1,7.3-6.6,5.9-12.4c-0.7-2.9-2.2-5.3-4.3-6.9C1669.1,844.4,1667.4,843.8,1665.7,843.8z"/>
										</g>
										<g>
											<path class="st0" d="M1705.7,845.4c1.6,7-1.8,13.7-7.6,15c-5.8,1.3-11.8-3.2-13.4-10.2c-1.6-7,1.8-13.7,7.6-15
												C1698.1,833.8,1704.1,838.4,1705.7,845.4z"/>
											<path d="M1696.1,862.8c-2.6,0-5.2-0.9-7.5-2.7c-2.9-2.2-5.1-5.6-6-9.5c-1.9-8.1,2.3-16.1,9.2-17.7
												c7-1.6,14.2,3.7,16.1,11.8c0.9,3.9,0.5,7.8-1.2,11.1c-1.7,3.4-4.6,5.8-8,6.6C1697.8,862.7,1696.9,862.8,1696.1,862.8z
												 M1694.4,837.2c-0.5,0-1,0.1-1.6,0.2c-4.6,1.1-7.3,6.6-5.9,12.4c0.7,2.9,2.2,5.3,4.3,6.9c2,1.5,4.3,2.1,6.5,1.6
												c2.2-0.5,4-2,5.1-4.3c1.2-2.4,1.5-5.3,0.8-8.1C1702.4,840.7,1698.5,837.2,1694.4,837.2z"/>
										</g>
										<path d="M1677.1,854.2c-0.5,0-1-0.2-1.4-0.5c-0.9-0.8-1.1-2.2-0.3-3.1c1.6-2,5.9-5,10.5-2.3c1,0.6,1.4,2,0.8,3
											s-2,1.4-3,0.8c-2.5-1.5-4.7,1.2-4.8,1.3C1678.4,853.9,1677.7,854.2,1677.1,854.2z"/>
										<path d="M1656.1,859c0,0-0.1,0-0.1,0l-27.2-1.7c-1.2-0.1-2.1-1.1-2.1-2.3c0.1-1.2,1.1-2.1,2.3-2.1l27.2,1.7
											c1.2,0.1,2.1,1.1,2.1,2.3C1658.2,858.1,1657.2,859,1656.1,859z"/>
									</g>
								</g>
							</g>
						</g>
					</g>
					<path d="M2028.5,1127.1h-617.9c-1.2,0-2.2-1-2.2-2.2V769.2c0-1.2,1-2.2,2.2-2.2h617.9c1.2,0,2.2,1,2.2,2.2v355.7
						C2030.7,1126.1,2029.8,1127.1,2028.5,1127.1z M1412.8,1122.7h613.5V771.4h-613.5V1122.7z"/>
				</g>
				<g>
					<g>
						<defs>
							<rect id="SVGID_3_" x="1158.5" y="72.3" width="1142.8" height="657.9"/>
						</defs>
						<clipPath id="SVGID_00000018930084799154847740000003069190646547584417_">
							<use xlink:href="#SVGID_3_"  style="overflow:visible;"/>
						</clipPath>
						<g style="clip-path:url(#SVGID_00000018930084799154847740000003069190646547584417_);">
							<g>
								<path d="M1657.4,684c99.9-1.2,490.5-17.6,545.5-123.5c24.8-47.8,7.2-117.8-10.6-145.9c-57.2-90.2-139.2-62-215.7-173.2
									c-30.3-44-46.2-71-57.8-93.9c-23.6-47.1-81.6-68.5-126.3-64.7c-26.3,2.3-68.2,16.2-88.6,44.6c0,0-23.6-4.2-51.8,27.7
									c-20.2,35.4-16.8,68.7-9.8,103.9C1664.7,372.4,1735.8,448,1657.4,684z"/>
							</g>
							<g>
								<path class="st4" d="M1647.2,827.6c-47.4,62.6-101.3,136.9-101.3,136.9L1443,784.3c29.6-52.6,141.5-202.3,183.1-235.5
									c29.3-23.4,55.7-45.4,97.6-58c117.9-35.6,237.9-44.8,369.9-19.5c31.4,6,59.2,23.9,77.7,50.1
									c48.9,69.5,93.6,262.9,112.1,343.1l-213.9,12.7l54.8,129.4c-136.9-8-273.8-16-410.7-24.1
									C1681,909.5,1679.8,900.6,1647.2,827.6z"/>
								<path d="M1759.6,782.8c-0.2,0-0.4,0-0.6-0.1c-0.7-0.2-1.2-0.7-1.5-1.4l-45.7-131.8c-0.3-1,0-2,0.9-2.6
									c4.8-3,26.1-16.4,34.7-21.2c-8.9-4.9-38.8-18.1-58.1-26.4c-0.6-0.3-1.1-0.8-1.3-1.5c-0.2-0.7,0-1.3,0.4-1.9l94.2-125.8
									c0.7-1,2.1-1.2,3.1-0.4c1,0.7,1.2,2.1,0.4,3.1l-92.5,123.6c60.3,25.8,60.2,27.9,60.1,29.7c0,0.9-0.8,1.8-1.6,2.1
									c-2.3,0.8-22.4,13.2-35.6,21.4l44.1,127.2L1889,672.4l-33-33.2c-0.6-0.6-0.8-1.5-0.5-2.3c0.3-0.8,1.1-1.4,1.9-1.4l91.2-5.8
									l39.7-172c0.3-1.2,1.5-1.9,2.6-1.7c1.2,0.3,1.9,1.5,1.7,2.6l-40.1,173.6c-0.2,0.9-1,1.6-2,1.7l-88,5.6l31.3,31.5
									c0.4,0.4,0.7,1,0.6,1.7c0,0.6-0.3,1.2-0.8,1.6l-132.7,108.1C1760.5,782.7,1760.1,782.8,1759.6,782.8z"/>
								<path d="M2052.2,812.1c-0.7,0-1.5-0.4-1.9-1.1c-0.6-1-0.3-2.4,0.7-3c72.8-44.6,195.5-26.2,196.8-26c1.2,0.2,2,1.3,1.8,2.5
									c-0.2,1.2-1.3,2-2.5,1.8c-1.2-0.2-122.3-18.4-193.8,25.4C2053,812,2052.6,812.1,2052.2,812.1z"/>
								<path d="M2069.3,879.4c-1,0-1.9-0.7-2.1-1.7c-5.7-22.8-14.2-55.8-22.4-87.6c-8.1-31.7-16.6-64.4-22.3-87.2
									c-1.7-6.9-3.5-14-7.6-19.8c-3.6-5-10.1-9.4-16.7-8.2c-1.2,0.2-2.3-0.6-2.6-1.8c-0.2-1.2,0.6-2.3,1.8-2.6
									c7.5-1.4,15.7,2.5,21.1,9.9c4.6,6.4,6.6,14.3,8.3,21.2c5.7,22.8,14.1,55.5,22.3,87.2c8.2,31.8,16.6,64.7,22.4,87.6
									c0.3,1.2-0.4,2.4-1.6,2.7C2069.7,879.3,2069.5,879.4,2069.3,879.4z"/>
								<path d="M1920.9,841.4c-19.1,0-38.2-5.3-54.3-15.6c-1-0.7-1.3-2-0.7-3c0.7-1,2-1.3,3-0.7c23.3,14.8,53,18.9,79.5,10.9
									c26.5-8,48.9-27.9,60.2-53.2c0.5-1.1,1.8-1.6,2.9-1.1c1.1,0.5,1.6,1.8,1.1,2.9c-11.7,26.5-35.2,47.3-62.9,55.7
									C1940.3,840,1930.6,841.4,1920.9,841.4z"/>
								<path d="M1719.2,845.3c-20.9,0-41.8-6.4-58.8-18.6c-23.6-16.8-39.2-44-41.9-72.9c-0.1-1.2,0.8-2.3,2-2.4
									c1.2-0.1,2.3,0.8,2.4,2c2.6,27.6,17.6,53.6,40.1,69.7c22.5,16.1,52,21.7,78.8,15.1c1.2-0.3,2.4,0.4,2.7,1.6
									c0.3,1.2-0.4,2.4-1.6,2.7C1735.1,844.4,1727.2,845.3,1719.2,845.3z"/>
								<g>
									<path class="st0" d="M1591,1068.9h589.2c62,0.8,132.5-74.5,115.7-148.4l-12.7-56.1c0,0-128.7-21.7-213.9,12.7l10.8,48.2
										h-276.3c-52.5,0-104,16.6-145.4,49C1630.5,996.3,1603.9,1027,1591,1068.9z"/>
									<path d="M1591,1071.9c-0.7,0-1.4-0.3-1.8-0.9c-0.4-0.6-0.5-1.3-0.3-2c10-28.1,30.6-68.3,72.2-100.3
										c11.2-8.6,23.4-16.2,36.2-22.4c1.1-0.5,2.4-0.1,2.9,1c0.5,1.1,0.1,2.4-1,2.9c-12.5,6.1-24.5,13.5-35.5,21.9
										c-39.3,30.2-59.5,67.9-69.7,95.3l578.3-0.8c37.7,0,72.8-16.9,96.3-46.4c23.6-29.6,32.3-67.8,23.9-104.8
										c-3.7-14.6-4.7-20.1-5.8-25.4c-1-5.2-2.1-10.7-5.7-25.2c-0.3-1.2,0.4-2.4,1.6-2.7c1.2-0.3,2.4,0.4,2.7,1.6
										c3.7,14.6,4.8,20.1,5.8,25.4c1,5.2,2.1,10.7,5.7,25.2c8.8,38.3-0.3,77.9-24.7,108.6c-24.4,30.6-60.7,48.1-99.8,48.1
										L1591,1071.9C1591,1071.9,1591,1071.9,1591,1071.9z"/>
									<path d="M1665.4,1047.2c-0.3,0-0.6-0.1-0.8-0.2c-1.1-0.5-1.7-1.7-1.2-2.9c12.6-31,40.4-55.9,72.5-65
										c1.2-0.3,2.4,0.3,2.7,1.5c0.3,1.2-0.3,2.4-1.5,2.7c-30.9,8.7-57.5,32.6-69.6,62.4
										C1667.1,1046.6,1666.3,1047.2,1665.4,1047.2z"/>
									<path d="M1727.9,1048.5c-0.3,0-0.6-0.1-0.9-0.2c-1.1-0.5-1.6-1.8-1.1-2.9c11.6-26,34.5-46.9,61.5-56
										c1.2-0.4,2.4,0.2,2.8,1.4c0.4,1.2-0.2,2.4-1.4,2.8c-25.8,8.7-47.8,28.7-58.8,53.6C1729.5,1048,1728.7,1048.5,1727.9,1048.5
										z"/>
								</g>
							</g>
							<g>
								<path class="st0" d="M1812.8,471.6l-28.5,221.3L1954.3,459c-18.5-5.7-32.9-20.4-38.2-39.1l-34.8-123.5l-96.9,48.8
									L1812.8,471.6z"/>
								<path d="M1812.8,473.8c-1,0-1.9-0.7-2.1-1.7l-28.5-126.4c-0.2-1,0.3-2,1.2-2.5l96.9-48.8c0.6-0.3,1.3-0.3,1.9,0
									c0.6,0.3,1.1,0.8,1.2,1.4l34.8,123.5c5.1,18.1,18.8,32.1,36.7,37.6c1.2,0.4,1.8,1.6,1.5,2.8s-1.6,1.8-2.8,1.5
									c-19.3-5.9-34.2-21.1-39.7-40.6l-34.1-120.9l-93,46.8l28.1,124.7c0.3,1.2-0.5,2.4-1.7,2.6
									C1813.1,473.8,1813,473.8,1812.8,473.8z"/>
								<g>
									<g>
										<path class="st0" d="M1848.7,257.2c0,0,6-45.8,32.8-48.6c40.8-4.2,66,61.3,5.3,83.7c0,0-31.9,120.1-109.9,124
											c-57.6,2.9-82.1-90.8-88.7-152.9c-4.6-43.4,22-69,22-69s32.7,20,73.9,38.5C1815.6,247.1,1839.2,255.3,1848.7,257.2z"/>
										<path d="M1774.3,418.6c-52.9,0-80.3-79.5-88.3-154.9c-4.7-44,21.6-69.7,22.7-70.8c0.7-0.7,1.8-0.8,2.7-0.3
											c0.3,0.2,33.1,20.2,73.7,38.4c29,13,51.3,21,61.8,23.6c1.7-9.8,9.5-45.5,34.4-48.1c19.7-2,38.1,12,42.9,32.5
											c4.3,18.5-2.8,42.5-35.5,55c-3.6,12.9-36,120.7-111.6,124.5C1776.1,418.6,1775.2,418.6,1774.3,418.6z M1710.6,197.3
											c-5,5.5-24.1,29.3-20.2,65.9c2.8,25.8,20,154.3,86.4,150.9c75.5-3.8,107.6-121.2,107.9-122.4c0.2-0.7,0.7-1.3,1.4-1.5
											c30.9-11.4,37.7-33.4,33.8-50.3c-3.6-15.7-18.2-31.2-38.1-29.1c-24.7,2.5-30.8,46.2-30.8,46.7c-0.1,0.6-0.4,1.2-0.9,1.5
											c-0.5,0.4-1.1,0.5-1.7,0.4c-9.6-1.9-33.4-10.2-65-24.4C1747.4,218.9,1717.5,201.4,1710.6,197.3z"/>
									</g>
									<path d="M1870.2,275.1c-0.3,0-0.6-0.1-0.9-0.2c-1.1-0.5-1.6-1.8-1.2-2.9c5.5-12.7,17.3-22.4,30.9-25.3
										c1.2-0.3,2.4,0.5,2.6,1.7c0.3,1.2-0.5,2.4-1.7,2.6c-12.2,2.6-22.8,11.3-27.7,22.7C1871.9,274.6,1871.1,275.1,1870.2,275.1z
										"/>
									<ellipse class="st4" cx="1899.2" cy="294.3" rx="24" ry="24.1"/>
								</g>
							</g>
							<g>
								<path d="M1113.7,1072.3h705.8c9.7,0,17.6-7.9,17.6-17.7v-4.2c0-19.2-15.5-34.8-34.7-34.8h-739.6l5.9,22.1
									C1074.2,1058.1,1092.7,1072.3,1113.7,1072.3z"/>
								<g>
									<path d="M1093.1,1046.6h436.5c18.6,0,32.3-17.5,27.8-35.7l-82.5-333.6c-3.2-12.8-14.7-21.8-27.8-21.8h-436.5
										c-18.6,0-32.3,17.5-27.8,35.7l82.5,333.6C1068.4,1037.6,1079.9,1046.6,1093.1,1046.6z"/>
									<path d="M1529.6,1047.7h-436.5c-13.7,0-25.6-9.3-28.9-22.7l-82.5-333.6c-2.2-9-0.2-18.3,5.5-25.6
										c5.7-7.3,14.2-11.4,23.4-11.4h436.5c13.7,0,25.6,9.3,28.9,22.7l82.5,333.6c2.2,9,0.2,18.3-5.5,25.6
										C1547.3,1043.6,1538.8,1047.7,1529.6,1047.7z M1010.6,656.6c-8.5,0-16.4,3.9-21.7,10.6c-5.3,6.8-7.1,15.4-5.1,23.7
										l82.5,333.6c3.1,12.4,14.1,21,26.8,21h436.5c8.5,0,16.4-3.9,21.7-10.6c5.3-6.8,7.1-15.4,5.1-23.7l-82.5-333.6
										c-3.1-12.4-14.1-21-26.8-21H1010.6z"/>
								</g>
								<ellipse class="st4" cx="1241.2" cy="784.3" rx="14.4" ry="14.4"/>
							</g>
						</g>
					</g>
					<path class="st4" d="M2301.3,732.1H1157.8c-1.2,0-2.2-1-2.2-2.2V71.6c0-1.2,1-2.2,2.2-2.2h1143.5c1.2,0,2.2,1,2.2,2.2v658.3
						C2303.6,731.1,2302.6,732.1,2301.3,732.1z M1160,727.7h1139.1V73.8H1160V727.7z"/>
				</g>
				<g>
					<g>
						<defs>
							<rect id="SVGID_2_" x="792.7" y="769.9" width="617.9" height="354.3"/>
						</defs>
						<clipPath id="SVGID_00000116196269577615286840000008070528251652751254_">
							<use xlink:href="#SVGID_2_"  style="overflow:visible;"/>
						</clipPath>
						<g style="clip-path:url(#SVGID_00000116196269577615286840000008070528251652751254_);">
							<g>
								<g>
									<g>
										<path class="st0" d="M1356.4,1187l-88.4-147.9c-18.3-30.6-51.4-49.4-87-49.4h-160.1c-36.7,0-70.5,19.8-88.4,51.8
											l-78.6,140.1c-15.9,28.4-12.2,63.8,9.3,88.2l107.7,122.4l45.7-51.7c15-17,14.6-42.6-0.8-59.1l-27.8-29.7h216.4
											L1356.4,1187z"/>
										<path d="M970.8,1394.6c-0.6,0-1.2-0.3-1.7-0.7l-107.7-122.4c-22.1-25.1-25.9-61.6-9.6-90.7l78.6-140.1
											c18.3-32.6,52.9-52.9,90.4-52.9H1181c36.3,0,70.3,19.3,88.9,50.5l88.4,147.9c0.3,0.5,0.4,1.2,0.2,1.8
											c-0.2,0.6-0.6,1.1-1.2,1.3l-152.1,64.8c-0.3,0.1-0.6,0.2-0.9,0.2H993l24.3,26c16.3,17.5,16.7,44.1,0.9,62.1l-45.7,51.7
											C972.1,1394.3,971.5,1394.6,970.8,1394.6z M1020.8,992c-35.8,0-69,19.4-86.5,50.7l-78.6,140.1
											c-15.4,27.5-11.8,62,9.1,85.7L970.8,1389l44.1-49.9c14.3-16.2,14-40.3-0.8-56.1l-27.8-29.7c-0.6-0.6-0.8-1.6-0.4-2.4
											c0.3-0.8,1.1-1.3,2-1.3h216l149.3-63.7l-87.1-145.7c-17.8-29.8-50.4-48.3-85.1-48.3H1020.8z"/>
									</g>
									<g>
										<path class="st0" d="M970.4,1376.7l39.5-44.4c10.9-12.2,10.3-30.7-1.2-42.3c-5.7-5.7-15.6-3-17.6,4.8L970.4,1376.7z"/>
										<path d="M970.4,1378.9c-0.4,0-0.7-0.1-1-0.3c-0.9-0.5-1.4-1.5-1.1-2.5l20.7-81.8c1.1-4.5,4.5-7.9,8.9-9.1
											c4.4-1.2,9.1,0,12.3,3.3c12.4,12.4,12.9,32.3,1.3,45.3l-39.5,44.4C971.6,1378.7,971,1378.9,970.4,1378.9z M1001.3,1289.2
											c-0.7,0-1.5,0.1-2.2,0.3c-2.9,0.8-5.1,3-5.8,5.9l-18.5,73.1l33.5-37.6c10.1-11.3,9.6-28.6-1.1-39.3
											C1005.5,1290.1,1003.4,1289.2,1001.3,1289.2z"/>
									</g>
									<path d="M987.9,1254c-0.5,0-1.1-0.2-1.5-0.6l-68.5-64.9c-0.9-0.8-0.9-2.2-0.1-3.1c0.8-0.9,2.2-0.9,3.1-0.1l68.5,64.9
										c0.9,0.8,0.9,2.2,0.1,3.1C989.1,1253.8,988.5,1254,987.9,1254z"/>
									<path d="M947.8,1216c-0.4,0-0.7-0.1-1-0.3c-1.1-0.6-1.5-1.9-0.9-3l56.8-104.5c0.6-1.1,1.9-1.5,3-0.9c1.1,0.6,1.5,1.9,0.9,3
										l-56.8,104.5C949.3,1215.6,948.6,1216,947.8,1216z"/>
									<g>
										<path d="M1084.8,1090.9c-1.8,0-3.5-0.4-5.2-1.2l-25.6-12.4c-3.5-1.7-5.9-5-6.5-8.8c-0.6-3.8,0.7-7.7,3.5-10.4l53.8-51.3
											c0.9-0.8,2.3-0.8,3.1,0.1c0.8,0.9,0.8,2.3-0.1,3.1l-53.8,51.3c-1.8,1.7-2.6,4.1-2.2,6.5c0.4,2.4,1.9,4.4,4.1,5.5
											l25.6,12.4c2,1,4.3,1,6.3,0.1c2-0.9,3.5-2.7,4.1-4.8l18-67.1c0.3-1,1.2-1.6,2.2-1.6c1,0,1.9,0.7,2.1,1.7l14.5,62.2
											c0.5,2.2,1.9,4,3.9,4.9c2,1,4.3,1.1,6.3,0.2l27.2-11.9c2.3-1,4-3.1,4.3-5.6c0.4-2.5-0.5-5-2.4-6.7l-51.9-46
											c-0.9-0.8-1-2.2-0.2-3.1c0.8-0.9,2.2-1,3.1-0.2l51.9,46c3,2.7,4.5,6.7,3.8,10.7c-0.6,4-3.2,7.4-6.9,9l-27.2,11.9
											c-3.2,1.4-6.9,1.3-10-0.3c-3.2-1.6-5.4-4.5-6.2-7.9l-12.5-53.6l-15.8,58.6c-0.9,3.4-3.3,6.2-6.5,7.7
											C1088.1,1090.6,1086.5,1090.9,1084.8,1090.9z"/>
										<path d="M1092,1208.3c-0.1,0-0.2,0-0.3,0l-34.8-5.1c-0.6-0.1-1.1-0.4-1.5-0.9c-0.3-0.5-0.5-1.1-0.4-1.7l20.2-114.8
											c0.2-1.2,1.4-2,2.6-1.8c1.2,0.2,2,1.4,1.8,2.6l-19.8,112.5l30.3,4.4l19.8-189.3c0.1-1.1,1.1-2,2.2-2c1.1,0,2.1,0.9,2.2,2
											l9.2,132.1l23.8-5.2l-10.9-57c-0.2-1.2,0.6-2.3,1.7-2.6c1.2-0.2,2.3,0.6,2.6,1.7l11.4,59.1c0.2,1.2-0.5,2.3-1.7,2.6
											l-28.3,6.2c-0.6,0.1-1.3,0-1.8-0.4c-0.5-0.4-0.8-1-0.9-1.6l-7.7-109.5l-17.5,166.5c-0.1,0.6-0.4,1.1-0.8,1.5
											C1093,1208.1,1092.5,1208.3,1092,1208.3z"/>
									</g>
								</g>
								<g>
									<g>
										<path class="st0" d="M1318.3,1255.1h-67.1l19.5-89.2h47.5c28.5,0,49.7,26.3,43.6,54.1
											C1357.4,1240.5,1339.3,1255.1,1318.3,1255.1z"/>
										<path d="M1318.3,1257.3h-58.6c-1.2,0-2.2-1-2.2-2.2s1-2.2,2.2-2.2h58.6c19.8,0,37.2-14,41.4-33.3
											c2.4-10.8,0.5-22-5.3-31.3l-16.7-28.3c-0.6-1-0.3-2.4,0.8-3c1-0.6,2.4-0.3,3,0.8l16.7,28.2c6.4,10.3,8.5,22.6,5.9,34.6
											C1359.4,1241.9,1340.1,1257.3,1318.3,1257.3z"/>
										<path d="M1328.4,1168.1h-21.9c-1.2,0-2.2-1-2.2-2.2s1-2.2,2.2-2.2h21.9c1.2,0,2.2,1,2.2,2.2S1329.6,1168.1,1328.4,1168.1z
											"/>
									</g>
									<g>
										<path class="st0" d="M1275.1,1174.3l-24.2-1.1l-10.7-18.7c-1.2-2.2-3.1-4-5.4-5l-23.5-10.8c-2.5-1.2-5.4-1.4-8.1-0.7
											l-25.3,7l9.6,15.2l20.9-0.3l10.4,16.2l-21,0.4l-20.5-32.7c-3.2-5.2-10.1-6.7-15.2-3.5c-4.5,2.8-6.4,8.4-4.5,13.4l-3.9,3
											c-4.7,3.6-6.4,10-4.2,15.5l-1.6,1.4c-5.3,4.7-6.7,12.4-3.5,18.7c-4.8,4.2-5.8,11.4-2.2,16.8l14,21.1
											c6,9.1,16.2,14.5,27.1,14.5h74.3C1257.7,1244.6,1278,1221.2,1275.1,1174.3z"/>
										<path d="M1257.7,1246.8h-4.2c-1.2,0-2.2-1-2.2-2.2s1-2.2,2.2-2.2h3.1c3.2-4.3,18.3-26.4,16.4-66l-4.2-0.2
											c-1.2-0.1-2.2-1.1-2.1-2.3c0.1-1.2,1.1-2.2,2.3-2.1l6.2,0.3c1.1,0.1,2,0.9,2.1,2.1c2.9,47.3-17.1,70.9-18,71.9
											C1259,1246.6,1258.3,1246.8,1257.7,1246.8z"/>
										<path d="M1146.3,1217.2c-0.7,0-1.4-0.3-1.8-1l-3.9-5.9c-3.8-5.8-3.2-13.4,1.4-18.5c-2.7-6.9-0.9-14.8,4.6-19.9l0.5-0.5
											c-1.7-6,0.4-12.7,5.4-16.6l2.7-2.1c-1.4-5.5,1-11.4,5.9-14.4c6.2-3.9,14.4-2,18.3,4.2l10.3,16.3c0.6,1,0.3,2.4-0.7,3
											c-1,0.6-2.4,0.3-3-0.7l-10.3-16.3c-2.6-4.1-8.1-5.4-12.2-2.8c-3.6,2.2-5.1,6.8-3.6,10.7c0.4,0.9,0.1,1.9-0.7,2.5l-3.9,3
											c-3.9,3-5.3,8.3-3.5,12.9c0.3,0.9,0.1,1.8-0.6,2.5l-1.6,1.4c-4.5,4.1-5.7,10.7-3,16.1c0.5,0.9,0.2,2-0.5,2.7
											c-4,3.5-4.8,9.5-1.9,13.9l3.9,5.9c0.7,1,0.4,2.4-0.6,3.1C1147.2,1217.1,1146.8,1217.2,1146.3,1217.2z"/>
										<path d="M1187.7,1162.3c-0.7,0-1.4-0.4-1.9-1l-6.9-10.9c-0.7-1-0.3-2.4,0.7-3c1-0.7,2.4-0.3,3,0.7l6.9,10.9
											c0.7,1,0.3,2.4-0.7,3C1188.5,1162.2,1188.1,1162.3,1187.7,1162.3z"/>
										<path d="M1179.2,1194.9c-0.8,0-1.5-0.4-1.9-1.1l-21.4-39c-0.6-1.1-0.2-2.4,0.9-3c1.1-0.6,2.4-0.2,3,0.9l21.4,39
											c0.6,1.1,0.2,2.4-0.9,3C1179.9,1194.8,1179.5,1194.9,1179.2,1194.9z"/>
										<path d="M1170.3,1212.7c-0.8,0-1.5-0.4-1.9-1.2l-20.6-38.4c-0.6-1.1-0.2-2.4,0.9-3c1.1-0.6,2.4-0.2,3,0.9l20.6,38.4
											c0.6,1.1,0.2,2.4-0.9,3C1171,1212.7,1170.6,1212.7,1170.3,1212.7z"/>
										<path d="M1160,1222.1c-0.8,0-1.5-0.4-1.9-1.1l-15.4-27.6c-0.6-1.1-0.2-2.4,0.9-3c1.1-0.6,2.4-0.2,3,0.9l15.4,27.6
											c0.6,1.1,0.2,2.4-0.9,3C1160.7,1222,1160.4,1222.1,1160,1222.1z"/>
									</g>
								</g>
								<g>
									<g>
										<path class="st0" d="M991.1,1294.9l22.3,6.1l54-27.8c7-3.6,15.6,1.9,14.7,9.8c-0.4,3.5-1.7,7.2-4.6,10.7
											c-9.9,12-13.9,12.3-11.7,20.4c1.6,6.1,42.1,45.8,62,65.1c6.2,6,7,15.7,1.7,22.6l-0.3,0.4l0.1,0.1
											c4.2,4.6,4.2,11.6,0.1,16.2c-3.9,4.4-10.4,5.4-15.4,2.4l-2.9-1.7c-4.5,4.5-11.4,5.7-17.1,2.9l-120.2-57.7L991.1,1294.9z"
											/>
										<path d="M1100.5,1425.8c-2.5,0-5.1-0.6-7.4-1.7l-120.2-57.7c-0.9-0.5-1.4-1.5-1.2-2.5l17.3-69.5c0.1-0.6,0.5-1.1,1-1.4
											c0.5-0.3,1.1-0.4,1.7-0.2l21.5,5.9l53.3-27.4c4.1-2.1,8.9-1.8,12.7,0.8c3.7,2.6,5.6,6.7,5.1,11.1
											c-0.5,4.4-2.2,8.4-5.1,11.9c-2.7,3.3-5,5.7-6.9,7.7c-4.8,5.1-5.7,6-4.4,10.7c0.9,3.1,17.5,21.5,61.4,64.1
											c6.7,6.5,7.8,16.9,2.6,24.5c3.8,5.4,3.5,12.8-1,17.8c-4.6,5.2-12.2,6.4-18.2,2.8l-1.5-0.9
											C1108.3,1424.4,1104.4,1425.8,1100.5,1425.8z M976.4,1363.2l118.6,56.9c4.9,2.4,10.8,1.4,14.6-2.5
											c0.7-0.7,1.8-0.9,2.7-0.3l2.9,1.7c4.1,2.5,9.4,1.7,12.6-1.9c3.4-3.8,3.3-9.5-0.1-13.3c-0.7-0.8-0.8-2-0.2-2.9l0.3-0.4
											c4.5-6,3.9-14.4-1.5-19.7c-40.2-39-61.3-61.2-62.6-66.1c-1.9-7.1,0.5-9.7,5.5-14.9c1.8-1.9,4-4.3,6.7-7.5
											c2.3-2.8,3.7-6,4.1-9.6c0.3-2.8-0.9-5.4-3.3-7c-2.4-1.7-5.6-1.9-8.2-0.6l-54,27.8c-0.5,0.3-1.1,0.3-1.6,0.2l-20.1-5.5
											L976.4,1363.2z"/>
									</g>
									<path d="M1129.2,1404.4c-0.4,0-0.9-0.1-1.2-0.4l-66.5-45.6c-1-0.7-1.3-2.1-0.6-3.1c0.7-1,2.1-1.3,3.1-0.6l66.5,45.6
										c1,0.7,1.3,2.1,0.6,3.1C1130.6,1404.1,1129.9,1404.4,1129.2,1404.4z"/>
									<path d="M1111.1,1421.4c-0.4,0-0.8-0.1-1.2-0.3l-62.1-38.9c-1-0.6-1.3-2-0.7-3c0.6-1,2-1.3,3-0.7l62.1,38.9
										c1,0.6,1.3,2,0.7,3C1112.6,1421,1111.9,1421.4,1111.1,1421.4z"/>
								</g>
							</g>
							<g>
								<path d="M1189.6,848c-3.8-8.1-14-13.5-23.9-12.8c3.6-6.4,2.1-14.7-3.6-19.9c-5.7-5.1-15.1-6.6-22.5-3.6
									c-5.7-9.5-17.8-15.8-30-15.7c-12.3,0.1-24.1,6.7-29.5,16.4c-12.6-3.8-27.6-0.3-36.4,8.5c-8.8,8.8-10.9,22.3-5,32.8
									c-9.2,6.3-14.5,16.8-13.6,27c0.8,10.2,7.7,19.9,17.8,25.1c-3.1,8.3,3.7,18.4,13.5,20c0.9,5.1,5.1,9.7,10.6,11.5
									c5,1.6,10.8,1,15.2-1.6c0.9,0.4,1.9,0.7,3,0.7c2.5,0.1,5-1.6,5.5-3.7c0.6,5.8,6.4,10.7,12.9,12.3c7.1,1.8,14.8,0.5,21.9-1.1
									c6.7-1.5,13.5-3.5,18.9-7.4s9.2-9.9,8.2-16c12.8-0.1,25.3-6.7,31.5-16.6c6.2-9.9,5.9-22.7-0.9-32.3
									C1190.8,866.2,1193.5,856.1,1189.6,848z"/>
								<g>
									<g>
										<path class="st0" d="M1155.2,987.7c-12.1-2.6-21-15-21.4-29.7l-1.2-45.3l-20.5-1.8l0-0.7l-3.7,0.3l-3.7-0.3l0,0.7
											l-20.5,1.8l-1.2,45.3c-0.4,14.7-9.3,27.1-21.4,29.7l-12.4,2.6l15.3,4.8c28.4,9,58.9,9,87.4,0.1l15.7-4.9L1155.2,987.7z"/>
										<path d="M1108.5,1004.2c-15,0-29.9-2.3-44.5-6.9l-15.3-4.8c-1-0.3-1.6-1.2-1.5-2.2c0-1,0.8-1.8,1.7-2l12.4-2.6
											c11-2.3,19.3-14,19.6-27.6l1.2-45.3c0-1.1,0.9-2,2-2.1l19-1.7c0.1-0.1,0.1-0.1,0.2-0.2c0.5-0.4,1.1-0.7,1.7-0.6l3.5,0.3
											l3.5-0.3c0.6-0.1,1.3,0.2,1.7,0.6c0.1,0.1,0.1,0.1,0.2,0.2l19,1.7c1.1,0.1,2,1,2,2.1l1.2,45.3
											c0.3,13.6,8.6,25.2,19.6,27.6l12.4,2.6c1,0.2,1.7,1.1,1.7,2c0,1-0.6,1.9-1.5,2.2l-15.7,4.9
											C1138.2,1002,1123.3,1004.2,1108.5,1004.2z M1058,990.8l7.3,2.3c28.1,8.9,57.9,9,86,0.1l7.7-2.4l-4.3-0.9
											c-13-2.8-22.7-16.1-23.1-31.8l-1.1-43.3l-18.6-1.6c-0.5,0-0.9-0.2-1.2-0.5l-2.1,0.2c-0.1,0-0.3,0-0.4,0l-2.1-0.2
											c-0.3,0.3-0.8,0.5-1.2,0.5l-18.6,1.6l-1.1,43.3c-0.4,15.7-10.1,29-23.1,31.8L1058,990.8z"/>
									</g>
								</g>
								<g>
									<g>
										<g>
											<path class="st0" d="M1162.8,898.4c-0.5-2.6-1.8-5.3-4.3-6.1c-4.8-1.5-9.8,4.4-11.6,8.3c-1.8,3.9-2.2,9.2-2,13.4
												c0.1,1.7,0.4,3.6,1.7,4.8c1.9,1.6,4.8,0.9,6.9-0.3C1160.4,914.5,1164.3,906.1,1162.8,898.4z"/>
											<path d="M1149.3,921.8c-1.5,0-2.9-0.4-4.2-1.5c-2-1.8-2.4-4.5-2.5-6.3c-0.1-2.6-0.2-9.3,2.2-14.4
												c2.2-4.7,8-11.4,14.2-9.4c2.9,0.9,5,3.8,5.8,7.8c1.6,8.6-2.7,18-10.3,22.3C1153.1,921.2,1151.2,921.8,1149.3,921.8z
												 M1156.9,894.2c-3,0-6.5,4-8,7.2c-2,4.2-1.9,10-1.8,12.3c0.1,1.7,0.4,2.7,1,3.2c0.9,0.8,2.9,0.3,4.4-0.6
												c6-3.4,9.5-10.8,8.2-17.7c-0.2-0.9-0.9-3.8-2.8-4.4C1157.5,894.3,1157.2,894.2,1156.9,894.2z"/>
										</g>
										<path class="st4" d="M1158.7,956.9c-4.2,0-8.5-1.9-11.6-5.2c-3.2-3.5-5.2-8.4-5.5-14c-0.2-4.2,0.4-8.6,2-14.3
											c0.3-1.2,1.6-1.9,2.7-1.5c1.2,0.3,1.8,1.5,1.5,2.7c-1.5,5.2-2,9.2-1.8,12.9c0.3,4.5,1.8,8.5,4.3,11.2
											c2.8,3,6.8,4.4,10.4,3.6c2.8-0.7,5.5-2.8,7.4-5.8c3.6-5.8,3.8-13.6,0.3-19.5c-3.4-5.9-10.3-9.7-17.1-9.4
											c-1.2,0.1-2.2-0.9-2.3-2.1c-0.1-1.2,0.9-2.2,2.1-2.3c8.4-0.4,16.9,4.3,21.2,11.5c4.2,7.3,4.1,17-0.4,24.1
											c-2.6,4.1-6.2,6.8-10.1,7.8C1160.8,956.8,1159.7,956.9,1158.7,956.9z"/>
									</g>
									<g>
										<g>
											<path class="st0" d="M1052.9,898.4c0.5-2.6,1.8-5.3,4.3-6.1c4.8-1.5,9.8,4.4,11.6,8.3c1.8,3.9,2.2,9.2,2,13.4
												c-0.1,1.7-0.4,3.6-1.7,4.8c-1.9,1.6-4.8,0.9-6.9-0.3C1055.3,914.5,1051.5,906.1,1052.9,898.4z"/>
											<path d="M1066.4,921.8c-1.9,0-3.8-0.6-5.3-1.5c-7.6-4.3-12-13.7-10.3-22.3c0.8-4,2.9-6.9,5.8-7.8
												c6.2-2,12.1,4.7,14.2,9.4c2.4,5.1,2.3,11.8,2.2,14.4c-0.1,1.9-0.4,4.6-2.5,6.3C1069.3,921.4,1067.9,921.8,1066.4,921.8z
												 M1058.8,894.2c-0.3,0-0.6,0-0.9,0.1c-1.9,0.6-2.6,3.5-2.8,4.4c-1.3,6.8,2.1,14.2,8.2,17.7c1.5,0.9,3.5,1.4,4.4,0.6
												c0.6-0.5,0.9-1.5,1-3.2c0.1-2.3,0.2-8.2-1.8-12.3C1065.3,898.3,1061.8,894.2,1058.8,894.2z M1052.9,898.4L1052.9,898.4
												L1052.9,898.4z"/>
										</g>
										<path class="st4" d="M1057,956.9c-1,0-2-0.1-3-0.3c-4-0.9-7.5-3.7-10.1-7.8c-4.5-7.1-4.7-16.8-0.4-24.1
											c4.2-7.3,12.7-11.9,21.2-11.5c1.2,0.1,2.2,1.1,2.1,2.3c-0.1,1.2-1.1,2.2-2.3,2.1c-6.8-0.3-13.7,3.5-17.1,9.4
											c-3.4,5.9-3.3,13.8,0.3,19.5c1.9,3,4.6,5.2,7.4,5.8c3.5,0.8,7.6-0.6,10.4-3.6c2.5-2.7,4.1-6.7,4.3-11.2
											c0.2-3.7-0.4-7.7-1.8-12.9c-0.3-1.2,0.3-2.4,1.5-2.7c1.2-0.3,2.4,0.3,2.7,1.5c1.6,5.7,2.2,10.1,2,14.3
											c-0.3,5.5-2.3,10.5-5.5,14C1065.5,955,1061.2,956.9,1057,956.9z"/>
									</g>
									<g>
										<g>
											<path class="st0" d="M1130.4,873.7c-4,4.6-11.4,4.9-16.8,2.2c-5.4-2.7-9.3-7.9-12.4-13.1c-1.5,9.3-8.5,17.6-17.5,20.6
												c-5.7,1.9-12,1.7-17.6-0.4c-0.2,2.2-0.3,4.6-0.3,7c0,31.1,19.1,64,42.7,64s42.7-32.9,42.7-64c0-4.3-0.4-8.3-1-12
												c-0.6,0.2-1.2,0.5-1.8,0.7C1142.1,880.5,1134.9,878.5,1130.4,873.7z"/>
											<path d="M1108.5,956.3c-25.7,0-44.9-35-44.9-66.2c0-2.4,0.1-4.9,0.4-7.2c0.1-0.7,0.4-1.3,1-1.6c0.6-0.4,1.3-0.4,1.9-0.2
												c5.3,2,11,2.1,16.1,0.4c8.2-2.8,14.6-10.3,16-18.9c0.1-0.9,0.9-1.6,1.8-1.8c0.9-0.2,1.8,0.2,2.3,1
												c2.6,4.3,6.2,9.6,11.5,12.2c4.3,2.2,10.7,2.3,14.2-1.7c0.4-0.5,1-0.7,1.6-0.8c0.5,0.1,1.2,0.2,1.6,0.7
												c3.9,4.2,10.2,5.9,15.7,4.4c0.5-0.2,1.1-0.4,1.6-0.6c0.6-0.3,1.3-0.2,1.9,0.1c0.6,0.3,1,0.9,1.1,1.5
												c0.7,3.9,1.1,8.1,1.1,12.4C1153.4,921.3,1134.2,956.3,1108.5,956.3z M1068.1,886c-0.1,1.3-0.1,2.7-0.1,4.1
												c0,28.6,17.7,61.8,40.5,61.8c22.8,0,40.5-33.2,40.5-61.8c0-3.1-0.2-6.2-0.6-9.1c-6.2,1.6-13.1-0.1-18-4.2
												c-5.1,4.1-12.5,3.8-17.8,1.1c-4.5-2.3-7.9-6-10.6-9.7c-3,8-9.6,14.6-17.7,17.3C1079.2,887.3,1073.5,887.4,1068.1,886z"/>
										</g>
									</g>
									<g>
										<path d="M1108.5,956.3c-10.4,0-20.6-6-28.9-16.9c-0.7-1-0.5-2.3,0.4-3.1c1-0.7,2.3-0.5,3.1,0.4
											c7.4,9.8,16.5,15.1,25.4,15.1c11.1,0,19.6-7.7,24.7-14.2c0.8-1,2.1-1.1,3.1-0.4c1,0.8,1.1,2.1,0.4,3.1
											C1128.5,950.7,1118.5,956.3,1108.5,956.3z"/>
									</g>
								</g>
							</g>
							<path d="M1082.1,1209.4l54.5-129.7c2.8-6.6,9.3-10.9,16.5-10.9l187.1,0.9c11.4,0.1,19.8,10.7,17.3,21.8l-29.3,126.5
								L1082.1,1209.4z"/>
						</g>
					</g>
					<path d="M1410.6,1127.1H792.7c-1.2,0-2.2-1-2.2-2.2V769.2c0-1.2,1-2.2,2.2-2.2h617.9c1.2,0,2.2,1,2.2,2.2v355.7
						C1412.8,1126.1,1411.8,1127.1,1410.6,1127.1z M794.9,1122.7h613.5V771.4H794.9V1122.7z"/>
				</g>
				<g>
					<g>
						<defs>
							<rect id="SVGID_1_" x="2029.3" y="769.2" width="617.9" height="355.7"/>
						</defs>
						<clipPath id="SVGID_00000031915476270128288000000002135287934916284051_">
							<use xlink:href="#SVGID_1_"  style="overflow:visible;"/>
						</clipPath>
						<g style="clip-path:url(#SVGID_00000031915476270128288000000002135287934916284051_);">
							<path class="st0" d="M2332.5,1129.7l79.3-258.4c5.6-18.1,22.3-30.5,41.3-30.5h129.6c27.4,0,47.8,25.2,42.3,52l-49.3,237
								H2332.5z"/>
							<path d="M2575.7,1131.9h-243.2c-0.7,0-1.4-0.3-1.8-0.9c-0.4-0.6-0.5-1.3-0.3-2l79.3-258.4c5.9-19.2,23.3-32.1,43.4-32.1
								h129.6c13.7,0,26.5,6.1,35.2,16.7c8.7,10.6,12,24.4,9.2,37.9l-49.3,237C2577.6,1131.1,2576.7,1131.9,2575.7,1131.9z
								 M2335.5,1127.5h238.4l48.9-235.2c2.5-12.1-0.5-24.6-8.3-34.2c-7.8-9.6-19.4-15.1-31.8-15.1h-129.6
								c-18.1,0-33.9,11.6-39.2,28.9L2335.5,1127.5z"/>
						</g>
						<g style="clip-path:url(#SVGID_00000031915476270128288000000002135287934916284051_);">
							<g>
								<g>
									<path class="st0" d="M2166.1,1116.8c0,0,22.7-53.2,40.8-93.7c12.1-26.9,36-46.7,64.7-53.5l64.5-15.3h35.2
										c0,0,37.1,7.5,68.8,15.6c19.2,4.9,35.6,17.1,45.8,34.2c16.3,27.4,43.1,73.1,68.4,118.8c30.6,55.3-9.4,123.2-72.6,123.2
										h-63.9l-117-17.5L2166.1,1116.8z"/>
									<path d="M2481.7,1248.2h-63.9c-0.1,0-0.2,0-0.3,0l-117-17.5c-0.4-0.1-0.8-0.2-1.1-0.5l-134.6-111.7c-0.7-0.6-1-1.7-0.6-2.6
										c0.2-0.5,22.9-53.7,40.8-93.7c12.2-27.4,37-47.8,66.2-54.8l64.5-15.3c0.2,0,0.3-0.1,0.5-0.1h35.2c0.1,0,0.3,0,0.4,0
										c0.4,0.1,37.5,7.6,68.9,15.6c19.9,5,36.6,17.5,47.1,35.2c17.6,29.6,43.7,74.2,68.4,118.9c14.8,26.7,14.3,58.3-1.1,84.5
										C2539.5,1232.5,2512.1,1248.2,2481.7,1248.2z M2417.9,1243.8h63.7c28.9,0,54.9-14.9,69.5-39.7
										c14.7-24.9,15.1-54.9,1.1-80.2c-24.7-44.6-50.8-89.2-68.4-118.7c-9.9-16.6-25.7-28.4-44.4-33.1
										c-30.1-7.6-65.4-14.9-68.5-15.5h-34.8l-64.2,15.3c-27.9,6.6-51.5,26.2-63.2,52.3c-16.2,36.2-36.3,83.1-40.1,92.1
										l132.9,110.3L2417.9,1243.8z"/>
								</g>
								<path d="M2308.1,1200.7c-1,0-1.9-0.7-2.1-1.7c-0.3-1.2,0.5-2.4,1.6-2.6l182.4-42.5c1.2-0.3,2.4,0.5,2.6,1.6
									c0.3,1.2-0.5,2.4-1.6,2.6l-182.4,42.5C2308.4,1200.7,2308.2,1200.7,2308.1,1200.7z"/>
								<path d="M2450.6,1164.8c-0.9,0-1.8-0.6-2.1-1.5l-25.2-70.4c-1.3-3.5-2.7-7.5-5.5-10.1c-2.3-2.1-6.2-3.2-8.6-1.2
									c-0.9,0.8-2.3,0.6-3.1-0.3c-0.8-0.9-0.6-2.3,0.3-3.1c4.3-3.5,10.7-2,14.4,1.4c3.6,3.3,5.3,8,6.6,11.8l25.2,70.4
									c0.4,1.1-0.2,2.4-1.3,2.8C2451.1,1164.8,2450.8,1164.8,2450.6,1164.8z"/>
							</g>
							<g>
								<path d="M2145.1,1246h272.7c1.8,0,3.7-0.5,5.2-1.5c3.5-2.4,4.8-6.8,3.4-10.5c-3.6-7.6-11.2-10.3-22.3-10.3h-279.2l4.1,11.1
									C2131.5,1241.5,2137.9,1246,2145.1,1246z"/>
								<path d="M2143.4,1246c-6.2,0-11.7-3.8-14-9.5l-72.7-137.1c-1.5-3.6-1-7.8,1.2-11c2.2-3.2,5.9-5.2,9.8-5.2h189.7
									c11.4,0,21.6,7.2,25.4,18l69.4,144.8H2143.4z"/>
								<path class="st0" d="M2327,1227.2h-188.1c-1.2,0-2.2-1-2.2-2.2c0-1.2,1-2.2,2.2-2.2H2327c1.2,0,2.2,1,2.2,2.2
									C2329.2,1226.2,2328.2,1227.2,2327,1227.2z"/>
							</g>
							<g>
								<path class="st2" d="M2296.1,948.4c0,0-22.9-35.9-8.4-85.5c14.5-49.6,18.2-65.5,90.1-74.1s92.9,64.6,40.4,152.7
									c0,0,6.2-3.4,37.4,31.2c14.2,15.8-29.3,58.5-86.4,55.8c-57-2.8-126.3-50.4-126.3-50.4S2263.4,961.5,2296.1,948.4z"/>
								<path d="M2371.2,985.3c-28,0-56.3-11.1-75.5-31.4c-0.8-0.9-0.8-2.3,0.1-3.1c0.9-0.8,2.3-0.8,3.1,0.1
									c26.8,28.4,72.5,38.1,108.5,23c1.1-0.5,2.4,0.1,2.9,1.2c0.5,1.1-0.1,2.4-1.2,2.9C2397.2,982.9,2384.2,985.3,2371.2,985.3z"
									/>
								<path class="st0" d="M2314.6,840.1c-2.9,2.5-30.3,69,0.6,92.1c30.9,23.2,60.9-16.9,60.9-16.9s8.6-58-36.8-89.4L2314.6,840.1
									z"/>
								<path d="M2361.8,960.4c-0.4,0-0.8-0.1-1.2-0.3c-1-0.7-1.3-2-0.7-3c7.1-11.1,12-23.8,14.1-36.9c0.2-1.2,1.3-2,2.5-1.8
									c1.2,0.2,2,1.3,1.8,2.5c-2.2,13.6-7.3,26.9-14.7,38.5C2363.3,960.1,2362.6,960.4,2361.8,960.4z"/>
							</g>
						</g>
					</g>
					<path d="M2646.5,1127h-617.9c-1.2,0-2.2-1-2.2-2.2V769.1c0-1.2,1-2.2,2.2-2.2h617.9c1.2,0,2.2,1,2.2,2.2v355.7
						C2648.7,1126.1,2647.7,1127,2646.5,1127z M2030.7,1122.6h613.5V771.3h-613.5V1122.6z"/>
				</g>
			</g>
			<g>
				<g>
					<path d="M1755.5,1276.7h-101.3c-1.2,0-2.2-1-2.2-2.2c0-25.9,21-46.9,46.9-46.9h11.9c25.9,0,46.9,21,46.9,46.9
						C1757.7,1275.8,1756.8,1276.7,1755.5,1276.7z M1656.5,1272.3h96.8c-1.1-22.4-19.7-40.3-42.4-40.3h-11.9
						C1676.2,1232.1,1657.6,1249.9,1656.5,1272.3z"/>
					<path d="M1703.2,1214.9c-12.4,0-22.4-10-22.4-22.3s10.1-22.3,22.4-22.3c12.4,0,22.4,10,22.4,22.3S1715.6,1214.9,1703.2,1214.9z
						 M1703.2,1174.8c-9.9,0-18,8-18,17.9c0,9.9,8.1,17.9,18,17.9c9.9,0,18-8,18-17.9C1721.3,1182.8,1713.2,1174.8,1703.2,1174.8z"
						/>
					<g>
						<path d="M1769.1,1175.6h-31.8c-1.2,0-2.2-1-2.2-2.2c0-1.2,1-2.2,2.2-2.2h31.8c1.2,0,2.2,1,2.2,2.2
							C1771.3,1174.6,1770.3,1175.6,1769.1,1175.6z"/>
						<path d="M1753.2,1191.4c-1.2,0-2.2-1-2.2-2.2v-31.6c0-1.2,1-2.2,2.2-2.2c1.2,0,2.2,1,2.2,2.2v31.6
							C1755.4,1190.4,1754.4,1191.4,1753.2,1191.4z"/>
					</g>
				</g>
				<g>
					<path d="M966.9,1275c-0.3,0-0.7-0.1-1-0.2c-0.7-0.4-1.2-1.1-1.2-2v-72c0-27.8,22.8-50.5,50.8-50.5h48.8
						c28,0,50.8,22.6,50.8,50.5s-22.8,50.5-50.8,50.5h-63.3l-32.9,23.3C967.8,1274.8,967.3,1275,966.9,1275z M1015.5,1154.7
						c-25.6,0-46.4,20.7-46.4,46.1v67.7l30-21.2c0.4-0.3,0.8-0.4,1.3-0.4h64c25.6,0,46.4-20.7,46.4-46.1c0-25.4-20.8-46.1-46.4-46.1
						H1015.5z"/>
					<g>
						<path d="M1070.8,1206.4h-12.9c-1.2,0-2.2-1-2.2-2.2c0-1.2,1-2.2,2.2-2.2h12.9c1.2,0,2.2,1,2.2,2.2
							C1073,1205.4,1072,1206.4,1070.8,1206.4z"/>
						<path d="M1046.5,1206.4h-12.9c-1.2,0-2.2-1-2.2-2.2c0-1.2,1-2.2,2.2-2.2h12.9c1.2,0,2.2,1,2.2,2.2
							C1048.7,1205.4,1047.7,1206.4,1046.5,1206.4z"/>
						<path d="M1022,1206.4h-12.9c-1.2,0-2.2-1-2.2-2.2c0-1.2,1-2.2,2.2-2.2h12.9c1.2,0,2.2,1,2.2,2.2
							C1024.2,1205.4,1023.2,1206.4,1022,1206.4z"/>
					</g>
				</g>
				<g>
					<path d="M1267.7,1271.3h-56.4c-1.2,0-2.2-1-2.2-2.2c0-1.2,1-2.2,2.2-2.2h56.4c1.2,0,2.2,1,2.2,2.2
						C1269.9,1270.3,1268.9,1271.3,1267.7,1271.3z"/>
					<path d="M1239.5,1244.5c-16.7,0-30.3-13.6-30.3-30.3v-31c0-16.7,13.6-30.3,30.3-30.3c16.7,0,30.3,13.6,30.3,30.3v31
						C1269.8,1230.9,1256.2,1244.5,1239.5,1244.5z M1239.5,1157.4c-14.3,0-25.9,11.6-25.9,25.9v31c0,14.3,11.6,25.9,25.9,25.9
						c14.3,0,25.9-11.6,25.9-25.9v-31C1265.4,1169,1253.8,1157.4,1239.5,1157.4z"/>
					<path d="M1239.5,1270.7c-1.2,0-2.2-1-2.2-2.2v-26.2c0-1.2,1-2.2,2.2-2.2c1.2,0,2.2,1,2.2,2.2v26.2
						C1241.7,1269.7,1240.7,1270.7,1239.5,1270.7z"/>
					<g>
						<path d="M1271.1,1211.4h-63.2c-1.2,0-2.2-1-2.2-2.2s1-2.2,2.2-2.2h63.2c1.2,0,2.2,1,2.2,2.2S1272.3,1211.4,1271.1,1211.4z"/>
						<path d="M1271.1,1189.9h-63.2c-1.2,0-2.2-1-2.2-2.2c0-1.2,1-2.2,2.2-2.2h63.2c1.2,0,2.2,1,2.2,2.2
							C1273.3,1188.9,1272.3,1189.9,1271.1,1189.9z"/>
					</g>
				</g>
				<g>
					<path d="M1509.5,1273.7H1370c-1.2,0-2.2-1-2.2-2.2v-84.5c0-1.2,1-2.2,2.2-2.2h139.5c1.2,0,2.2,1,2.2,2.2v84.5
						C1511.7,1272.7,1510.7,1273.7,1509.5,1273.7z M1372.2,1269.3h135.1v-80h-135.1V1269.3z"/>
					<path d="M1555.4,1273.7c-0.6,0-1.1-0.2-1.5-0.6l-46-43.7c-0.4-0.4-0.7-1-0.7-1.6c0-0.6,0.3-1.2,0.7-1.6l46-40.8
						c0.6-0.6,1.6-0.7,2.4-0.4c0.8,0.4,1.3,1.1,1.3,2v84.5c0,0.9-0.5,1.7-1.3,2C1556,1273.7,1555.7,1273.7,1555.4,1273.7z
						 M1512.6,1227.9l40.6,38.5V1192L1512.6,1227.9z"/>
				</g>
				<path d="M2628.5,1257h-6c-10.7,0-19.6-8.1-20.8-18.4h-99.5c-1.2,10.3-10.1,18.4-20.8,18.4h-6c-11.5,0-20.9-9.3-20.9-20.8v-3
					c0-2.7,0.5-5.4,1.6-7.9c3.8-22.1,22.9-38.2,45.5-38.2H2603c23.9,0,44.1,18.5,46.1,42.2c0.3,1.3,0.4,2.6,0.4,3.9v3
					C2649.4,1247.6,2640,1257,2628.5,1257z M2500.1,1234.2h103.7c1.2,0,2.2,1,2.2,2.2c0.1,9,7.5,16.2,16.5,16.2h6
					c9.1,0,16.5-7.4,16.5-16.4v-3c0-1-0.1-2.1-0.3-3.2c0-0.1,0-0.2,0-0.3c-1.7-21.4-20-38.2-41.7-38.2h-101.4
					c-20.6,0-37.9,14.6-41.2,34.7c0,0.2-0.1,0.3-0.1,0.5c-0.9,2-1.3,4.2-1.3,6.4v3c0,9,7.4,16.4,16.5,16.4h6c9,0,16.4-7.3,16.5-16.2
					C2497.9,1235.1,2498.9,1234.2,2500.1,1234.2z"/>
			</g>
		</g>
		<g>
			<g>
				<path d="M863.6,1308.2c-134.2-1.6-659.2-23.6-733.2-165.9c-33.4-64.2-9.7-158.4,14.2-196.1c76.9-121.3,187.1-83.3,289.8-232.7
					c40.7-59.2,62.2-95.4,77.6-126.2c31.8-63.3,109.7-92.1,169.8-86.9c35.3,3,91.6,21.7,119,60c0,0,31.7-5.6,69.6,37.2
					c27.2,47.6,22.5,92.3,13.2,139.6C853.8,889.5,758.3,991.1,863.6,1308.2z"/>
			</g>
			<g>
				<path class="st4" d="M877.3,1501.2c63.7,84.1,136.2,183.9,136.2,183.9l138.3-242.2c-39.8-70.7-190.2-271.9-246-316.5
					c-39.4-31.5-74.9-61-131.1-78c-158.4-47.8-319.7-60.3-497.1-26.2c-42.2,8.1-79.6,32.1-104.4,67.3
					c-65.8,93.5-125.8,353.3-150.6,461.1l287.4,17.1l-73.7,173.9c184-10.8,368-21.6,551.9-32.3
					C832,1611.2,833.6,1599.3,877.3,1501.2z"/>
				<path d="M726.4,1440.3c-0.5,0-1-0.2-1.4-0.5l-178.3-145.2c-0.5-0.4-0.8-1-0.8-1.6c0-0.6,0.2-1.2,0.6-1.7l43.2-43.5l-119.9-7.6
					c-1-0.1-1.8-0.8-2-1.7L414,1005.2c-0.3-1.2,0.5-2.4,1.7-2.6c1.2-0.3,2.4,0.5,2.6,1.7l53.5,231.7l123.1,7.8
					c0.9,0.1,1.6,0.6,1.9,1.4c0.3,0.8,0.1,1.7-0.5,2.3l-45,45.2l174,141.7l59.8-172.6c-18.3-11.5-45.3-28.2-48.5-29.2
					c-1-0.3-1.6-1.2-1.7-2.2c-0.1-2-0.1-3.5,42.5-22.6c16.2-7.2,32.5-14.3,38.7-17L691.3,1024c-0.7-1-0.5-2.4,0.4-3.1
					c1-0.7,2.4-0.5,3.1,0.4l126.5,169.1c0.4,0.5,0.5,1.2,0.4,1.9c-0.2,0.7-0.6,1.2-1.3,1.5c-26.9,11.5-68.9,30.1-79.3,36.1
					c11,5.9,43.6,26.5,47.8,29.1c0.9,0.5,1.2,1.6,0.9,2.6l-61.4,177.2c-0.2,0.7-0.8,1.2-1.5,1.4
					C726.8,1440.2,726.6,1440.3,726.4,1440.3z"/>
				<path d="M333.1,1479.6c-0.4,0-0.8-0.1-1.1-0.3c-96.3-58.9-259.3-34.5-260.9-34.2c-1.2,0.2-2.3-0.6-2.5-1.8
					c-0.2-1.2,0.6-2.3,1.8-2.5c1.7-0.3,166.3-25,263.9,34.8c1,0.6,1.4,2,0.7,3C334.5,1479.2,333.8,1479.6,333.1,1479.6z"/>
				<path d="M310,1570c-0.2,0-0.4,0-0.5-0.1c-1.2-0.3-1.9-1.5-1.6-2.7c7.7-30.7,19-74.8,30-117.5c11-42.7,22.3-86.8,30-117.4
					c2.3-9.3,5-19.8,11.1-28.3c7-9.7,17.8-14.9,27.5-13.1c1.2,0.2,2,1.4,1.8,2.6c-0.2,1.2-1.3,2-2.6,1.8
					c-9.2-1.7-18.3,4.5-23.2,11.3c-5.6,7.8-8,17.5-10.4,26.8c-7.7,30.7-19,74.8-30,117.5c-11,42.7-22.3,86.8-30,117.4
					C311.9,1569.3,311,1570,310,1570z"/>
				<path d="M509.6,1519c-13,0-26-1.9-38.5-5.6c-37-11.2-68.4-39-84.1-74.4c-0.5-1.1,0-2.4,1.1-2.9c1.1-0.5,2.4,0,2.9,1.1
					c15.2,34.2,45.6,61.1,81.3,72c35.8,10.8,75.9,5.3,107.5-14.7c1-0.7,2.4-0.3,3,0.7c0.7,1,0.4,2.4-0.7,3
					C560.6,1511.8,535.1,1519,509.6,1519z"/>
				<path d="M780.6,1524.3c-10.6,0-21.2-1.2-31.6-3.8c-1.2-0.3-1.9-1.5-1.6-2.7c0.3-1.2,1.5-1.9,2.7-1.6
					c36.3,8.9,76.1,1.3,106.5-20.4c30.4-21.7,50.7-56.9,54.2-94.2c0.1-1.2,1.2-2.1,2.4-2c1.2,0.1,2.1,1.2,2,2.4
					c-3.6,38.5-24.5,74.9-56,97.4C836.4,1515.6,808.5,1524.3,780.6,1524.3z"/>
				<g>
					<path class="st0" d="M952.9,1825.5H161C77.7,1826.6-17.1,1725.3,5.6,1626l17-75.3c0,0,173-29.1,287.4,17.1l-14.6,64.8h371.3
						c70.5,0,139.8,22.3,195.4,65.8C899.9,1727.9,935.5,1769.1,952.9,1825.5z"/>
					<path d="M952.9,1828.8C952.9,1828.8,952.9,1828.8,952.9,1828.8l-781.4-1.1c-52.2,0-100.9-23.5-133.5-64.3
						c-32.7-41-44.8-94-33.1-145.2c4.9-19.6,6.4-26.9,7.7-33.9c1.4-7.1,2.8-14.5,7.8-34.1c0.3-1.2,1.5-1.9,2.7-1.6
						c1.2,0.3,1.9,1.5,1.6,2.7c-4.9,19.5-6.3,26.8-7.7,33.9c-1.4,7.1-2.8,14.5-7.8,34.1c-11.4,49.9,0.4,101.4,32.2,141.4
						c31.8,39.8,79.2,62.7,130,62.7l778.2,1.1c-13.5-36.9-40.8-88.3-94.3-129.4c-14.8-11.4-30.9-21.3-47.8-29.5
						c-1.1-0.5-1.5-1.9-1-2.9c0.5-1.1,1.8-1.5,2.9-1c17.1,8.3,33.5,18.4,48.5,30c55.8,42.8,83.4,96.7,96.8,134.4
						c0.2,0.7,0.1,1.4-0.3,2C954.3,1828.4,953.6,1828.8,952.9,1828.8z"/>
					<path d="M852.9,1795.5c-0.9,0-1.7-0.5-2-1.4c-16.3-40.2-52.4-72.5-94.1-84.3c-1.2-0.3-1.9-1.5-1.5-2.7c0.3-1.2,1.6-1.9,2.7-1.5
						c43,12.1,80.1,45.4,97,86.9c0.5,1.1-0.1,2.4-1.2,2.9C853.4,1795.4,853.1,1795.5,852.9,1795.5z"/>
					<path d="M768.9,1797.3c-0.8,0-1.6-0.5-2-1.3c-15-33.7-44.7-60.7-79.5-72.5c-1.2-0.4-1.8-1.6-1.4-2.8c0.4-1.2,1.6-1.8,2.8-1.4
						c36,12.1,66.7,40.1,82.2,74.8c0.5,1.1,0,2.4-1.1,2.9C769.5,1797.2,769.2,1797.3,768.9,1797.3z"/>
				</g>
			</g>
			<g>
				<path class="st0" d="M654.8,1022.7l38.3,297.5l-228.4-314.4c24.9-7.6,44.3-27.4,51.4-52.6l46.8-166l130.2,65.5L654.8,1022.7z"/>
				<path d="M654.8,1024.9c-0.2,0-0.3,0-0.5-0.1c-1.2-0.3-1.9-1.4-1.7-2.6L690.5,854l-126.3-63.6l-46.1,163.4
					c-7.3,26-27.1,46.2-52.8,54.1c-1.2,0.4-2.4-0.3-2.8-1.5c-0.4-1.2,0.3-2.4,1.5-2.8c24.3-7.5,43-26.5,49.9-51.1l46.8-166
					c0.2-0.6,0.6-1.2,1.2-1.4c0.6-0.3,1.3-0.2,1.9,0l130.2,65.5c0.9,0.5,1.4,1.5,1.2,2.5L657,1023.2
					C656.7,1024.2,655.8,1024.9,654.8,1024.9z"/>
				<g>
					<g>
						<path class="st0" d="M606.6,734.6c0,0-8-61.6-44.1-65.3c-54.9-5.7-88.8,82.4-7.2,112.5c0,0,42.8,161.4,147.7,166.7
							c77.5,3.9,110.4-122,119.3-205.4c6.2-58.4-29.6-92.7-29.6-92.7s-44,26.9-99.4,51.7C651,721,619.3,732,606.6,734.6z"/>
						<path d="M706.7,950.8c-1.2,0-2.5,0-3.7-0.1c-43.7-2.2-83.4-32.1-115-86.4c-21.5-37-32.5-74-34.4-80.8
							c-43.7-16.6-53.3-48.6-47.6-73.2c6.3-27.3,30.8-45.8,56.8-43.1c33.6,3.5,43.7,53.1,45.6,64.8c13.9-3.3,44.2-14.1,84-31.9
							c54.6-24.5,98.7-51.3,99.1-51.6c0.9-0.5,1.9-0.4,2.7,0.3c0.4,0.4,36.6,35.7,30.3,94.5C820.8,778.2,797.7,950.7,706.7,950.8z
							 M557.5,671.3c-24.7,0-42.6,19.9-47.3,40c-5.3,23,3.9,53,45.9,68.5c0.7,0.2,1.2,0.8,1.4,1.5c0.4,1.6,43.6,159.9,145.7,165
							c90.2,4.5,113.3-168.7,117-203.5c5.4-50.6-21.8-83.2-27.8-89.7c-8.2,4.9-48.9,28.9-98.1,50.9c-42.4,19-74.3,30.1-87.2,32.7
							c-0.6,0.1-1.2,0-1.7-0.4c-0.5-0.4-0.8-0.9-0.9-1.5c-0.1-0.6-8.2-59.9-42.1-63.4C560.7,671.3,559.1,671.3,557.5,671.3z"/>
					</g>
					<path d="M577.7,757.8c-0.9,0-1.7-0.5-2-1.3c-6.7-15.6-21.2-27.5-37.8-31c-1.2-0.3-2-1.4-1.7-2.6c0.3-1.2,1.4-2,2.6-1.7
						c18,3.8,33.7,16.7,41,33.6c0.5,1.1,0,2.4-1.2,2.9C578.2,757.8,577.9,757.8,577.7,757.8z"/>
					<ellipse class="st4" cx="538.8" cy="784.5" rx="32.3" ry="32.4"/>
				</g>
			</g>
			<g>
				<path d="M1594.3,1830H645.8c-13.1,0-23.7-10.6-23.7-23.8v-5.6c0-25.8,20.9-46.7,46.6-46.7h994l-8,29.7
					C1647.4,1811,1622.6,1830,1594.3,1830z"/>
				<g>
					<path d="M1622.1,1795.5h-586.6c-25.1,0-43.5-23.6-37.4-47.9l110.9-448.3c4.3-17.2,19.7-29.4,37.4-29.4h586.6
						c25.1,0,43.5,23.6,37.4,47.9l-110.9,448.3C1655.2,1783.4,1639.8,1795.5,1622.1,1795.5z"/>
					<path d="M1622.1,1796.6h-586.6c-12.3,0-23.6-5.5-31.2-15.2c-7.6-9.7-10.3-22.1-7.3-34.1l110.9-448.3
						c4.4-17.8,20.2-30.2,38.5-30.2h586.6c12.3,0,23.6,5.5,31.2,15.2c7.6,9.7,10.3,22.1,7.3,34.1l-110.9,448.3
						C1656.2,1784.2,1640.3,1796.6,1622.1,1796.6z M1146.3,1271c-17.3,0-32.2,11.7-36.4,28.5l-110.9,448.3
						c-2.8,11.3-0.3,23.1,6.9,32.2c7.1,9.1,17.9,14.4,29.5,14.4h586.6c17.3,0,32.2-11.7,36.4-28.5l110.9-448.3
						c2.8-11.3,0.3-23.1-6.9-32.2c-7.1-9.1-17.9-14.4-29.5-14.4H1146.3z"/>
				</g>
				<path class="st4" d="M1442.3,1442.9c0,10.7-8.7,19.4-19.4,19.4c-10.7,0-19.4-8.7-19.4-19.4s8.7-19.4,19.4-19.4
					C1433.6,1423.5,1442.3,1432.2,1442.3,1442.9z"/>
			</g>
		</g>
		<g>
			<g>
				<g>
					<ellipse class="st0" cx="577.7" cy="144.6" rx="24.8" ry="24.8"/>
					<path d="M577.7,171.6c-14.9,0-27-12.1-27-27s12.1-27,27-27c14.9,0,27,12.1,27,27S592.6,171.6,577.7,171.6z M577.7,122
						c-12.5,0-22.6,10.1-22.6,22.6c0,12.5,10.1,22.6,22.6,22.6c12.5,0,22.6-10.1,22.6-22.6C600.3,132.1,590.2,122,577.7,122z"/>
				</g>
				<ellipse class="st2" cx="505.4" cy="144.6" rx="24.8" ry="24.8"/>
				<path class="st2" d="M408.3,144.6c0,13.7,11.1,24.8,24.8,24.8c13.7,0,24.8-11.1,24.8-24.8c0-13.7-11.1-24.8-24.8-24.8
					S408.3,130.9,408.3,144.6z"/>
			</g>
			<path d="M2.2,881.9c-1.2,0-2.2-1-2.2-2.2v-735c0-1.2,1-2.2,2.2-2.2h376.3c1.2,0,2.2,1,2.2,2.2c0,1.2-1,2.2-2.2,2.2H4.4v732.8
				C4.4,880.9,3.4,881.9,2.2,881.9z"/>
		</g>
	</g>
</g>
</svg>
