<svg xmlns="http://www.w3.org/2000/svg" xml:space="preserve" width="1044" height="238" viewBox="-11 188 522 119"><g clip-path="url(#a)" transform="matrix(1.33 0 0 -1.33 208.54 278.1)"><clipPath id="a"><path stroke-linecap="round" d="M-389.85 318.716h841.89V-276.56h-841.89Z"/></clipPath><path d="M0 0c-.92.592-2.578.873-3.635.873-2.705 0-4.658-.761-5.572-3.889l-1.084-3.749c-.701-2.339-.106-3.551 2.101-3.551 1.648 0 3.864.536 5.609 1.438zm-13.541-6.991 1.246 4.257c1.296 4.509 4.21 6.088 8.438 6.088 1.461 0 3.73-.423 4.531-.958l1.78 6.031 3.328.846-6.27-21.816h-2.798l.027 1.212c-1.998-.958-3.685-1.493-5.799-1.493-4.322 0-5.397 2.705-4.483 5.833" style="stroke:none;stroke-width:1;stroke-dasharray:none;stroke-linecap:butt;stroke-dashoffset:0;stroke-linejoin:miter;stroke-miterlimit:4;fill:#9e9e9f;fill-rule:nonzero;opacity:1" transform="translate(4.03 1.78)" vector-effect="non-scaling-stroke"/></g><g clip-path="url(#b)" transform="matrix(1.33 0 0 -1.33 228.51 281.86)"><clipPath id="b"><path stroke-linecap="round" d="M-404.82 321.536h841.89V-273.74h-841.89Z"/></clipPath><path d="M0 0c-1.905-.113-4.116-.593-6.003-1.72l-3.228-11.33h-3.108l4.471 15.558h2.767L-5.248.93c1.177.789 3.437 1.916 6.08 1.916z" style="stroke:none;stroke-width:1;stroke-dasharray:none;stroke-linecap:butt;stroke-dashoffset:0;stroke-linejoin:miter;stroke-miterlimit:4;fill:#9e9e9f;fill-rule:nonzero;opacity:1" transform="translate(5.75 5.1)" vector-effect="non-scaling-stroke"/></g><g clip-path="url(#c)" transform="matrix(1.33 0 0 -1.33 241.89 278.06)"><clipPath id="c"><path stroke-linecap="round" d="M-414.85 318.686h841.89V-276.59h-841.89Z"/></clipPath><path d="M0 0h-3.109l.884 3.129H.883zm-5.307-18.461h-3.109l4.471 15.558h3.11z" style="stroke:none;stroke-width:1;stroke-dasharray:none;stroke-linecap:butt;stroke-dashoffset:0;stroke-linejoin:miter;stroke-miterlimit:4;fill:#9e9e9f;fill-rule:nonzero;opacity:1" transform="translate(3.77 7.67)" vector-effect="non-scaling-stroke"/></g><g clip-path="url(#d)" transform="matrix(1.33 0 0 -1.33 259.7 282.09)"><clipPath id="d"><path stroke-linecap="round" d="M-428.22 321.696h841.89V-273.58h-841.89Z"/></clipPath><path d="M0 0h-3.606l-1.312 15.558h3.203l.476-9.583c.02-.987.039-2.001.098-3.326h.031C-.267 3.974.305 4.988.968 5.975l5.991 9.583h3.327z" style="stroke:none;stroke-width:1;stroke-dasharray:none;stroke-linecap:butt;stroke-dashoffset:0;stroke-linejoin:miter;stroke-miterlimit:4;fill:#9e9e9f;fill-rule:nonzero;opacity:1" transform="translate(-2.68 -7.78)" vector-effect="non-scaling-stroke"/></g><g clip-path="url(#e)" transform="matrix(1.33 0 0 -1.33 273.47 278.06)"><clipPath id="e"><path stroke-linecap="round" d="M-438.54 318.686h841.89V-276.59h-841.89Z"/></clipPath><path d="M0 0h-3.109l.884 3.129H.883zm-5.307-18.461h-3.109l4.471 15.558h3.11z" style="stroke:none;stroke-width:1;stroke-dasharray:none;stroke-linecap:butt;stroke-dashoffset:0;stroke-linejoin:miter;stroke-miterlimit:4;fill:#9e9e9f;fill-rule:nonzero;opacity:1" transform="translate(3.77 7.67)" vector-effect="non-scaling-stroke"/></g><g clip-path="url(#f)" transform="matrix(1.33 0 0 -1.33 289.24 281.86)"><clipPath id="f"><path stroke-linecap="round" d="M-450.37 321.536h841.89V-273.74h-841.89Z"/></clipPath><path d="M0 0h-3.109l3.012 10.513c.539 1.832.458 2.846-1.594 2.846-1.492 0-3.546-.451-5.515-1.437L-10.602 0h-3.109l4.472 15.558h2.767l-.027-1.212c1.841.93 3.845 1.55 5.648 1.55 3.762 0 4.865-1.916 4.031-4.792z" style="stroke:none;stroke-width:1;stroke-dasharray:none;stroke-linecap:butt;stroke-dashoffset:0;stroke-linejoin:miter;stroke-miterlimit:4;fill:#9e9e9f;fill-rule:nonzero;opacity:1" transform="translate(5.13 -7.95)" vector-effect="non-scaling-stroke"/></g><g clip-path="url(#g)" transform="matrix(1.33 0 0 -1.33 314.74 286.05)"><clipPath id="g"><path stroke-linecap="round" d="M-469.49 324.676H372.4V-270.6h-841.89Z"/></clipPath><path d="M0 0c-.632.705-2.34 1.156-4.174 1.156-2.083 0-4.04-.817-4.954-3.946l-.999-3.439c-.745-2.508-.241-3.692 2.215-3.692 1.772 0 3.608.451 5.371 1.155zm-13.375-6.426 1.127 3.917c1.292 4.455 4.152 6.145 8.256 6.145 1.617 0 3.698-.451 4.749-1.381L1.3 3.298h2.767L-.649-13.049c-1.122-3.834-3.204-5.497-8.706-5.497-1.43 0-3.25.197-4.322.423l.705 2.396c1.101-.254 2.645-.395 3.733-.395 3.482 0 4.84.705 5.564 3.354l.422 1.522c-1.673-.761-3.662-1.184-5.652-1.184-4.353 0-5.428 2.706-4.47 6.004" style="stroke:none;stroke-width:1;stroke-dasharray:none;stroke-linecap:butt;stroke-dashoffset:0;stroke-linejoin:miter;stroke-miterlimit:4;fill:#9e9e9f;fill-rule:nonzero;opacity:1" transform="translate(4.82 7.46)" vector-effect="non-scaling-stroke"/></g><g clip-path="url(#h)" transform="matrix(1.33 0 0 -1.33 348.92 282.05)"><clipPath id="h"><path stroke-linecap="round" d="M-495.13 321.676h841.89V-273.6h-841.89Z"/></clipPath><path d="m0 0 .045.197c.637 2.312.119 4.144-2.928 4.144-2.891 0-4.58-1.832-5.217-4.144L-8.146 0Zm2.385-2.227H-8.807l-.17-.62c-.745-2.508-.398-4.143 3.674-4.143 1.306 0 3.182.141 4.963.676l-.701-2.339c-1.565-.564-3.322-.789-4.753-.789-5.503 0-7.507 2.339-6.087 7.272l.502 1.748c1.501 5.185 4.755 7.158 8.859 7.158 4.477 0 6.869-2.142 5.28-7.666z" style="stroke:none;stroke-width:1;stroke-dasharray:none;stroke-linecap:butt;stroke-dashoffset:0;stroke-linejoin:miter;stroke-miterlimit:4;fill:#9e9e9f;fill-rule:nonzero;opacity:1" transform="translate(4.54 1.35)" vector-effect="non-scaling-stroke"/></g><g clip-path="url(#i)" transform="matrix(1.33 0 0 -1.33 377.94 281.86)"><clipPath id="i"><path stroke-linecap="round" d="M-516.9 321.536h841.89V-273.74H-516.9Z"/></clipPath><path d="M0 0h-3.109l3.054 10.654c.539 1.832.23 2.705-1.542 2.705-1.244 0-2.865-.478-4.77-1.437l-.13-.507L-9.763 0h-3.109l3.054 10.654c.54 1.832.231 2.705-1.573 2.705-1.244 0-2.769-.451-4.738-1.437L-19.525 0h-3.109l4.472 15.558h2.767l-.027-1.212c1.683.902 3.627 1.55 5.213 1.55 2.176 0 3.406-.62 3.816-1.803 2.165 1.127 4.485 1.803 5.946 1.803 3.545 0 4.548-1.578 3.712-4.481z" style="stroke:none;stroke-width:1;stroke-dasharray:none;stroke-linecap:butt;stroke-dashoffset:0;stroke-linejoin:miter;stroke-miterlimit:4;fill:#9e9e9f;fill-rule:nonzero;opacity:1" transform="translate(9.55 -7.95)" vector-effect="non-scaling-stroke"/></g><g clip-path="url(#j)" transform="matrix(1.33 0 0 -1.33 408.53 282.05)"><clipPath id="j"><path stroke-linecap="round" d="M-539.84 321.676h841.89V-273.6h-841.89Z"/></clipPath><path d="M0 0c.962 3.354-.311 4.651-2.923 4.651-2.611 0-4.603-1.297-5.565-4.651l-.581-1.973c-.962-3.354.342-4.651 2.891-4.651 2.643 0 4.635 1.297 5.597 4.651zm2.52-2.086c-1.298-4.538-4.401-6.99-9.095-6.99-4.664 0-6.892 2.678-5.594 7.216l.58 1.973c1.298 4.538 4.401 6.99 9.064 6.99 4.695 0 6.923-2.678 5.625-7.216z" style="stroke:none;stroke-width:1;stroke-dasharray:none;stroke-linecap:butt;stroke-dashoffset:0;stroke-linejoin:miter;stroke-miterlimit:4;fill:#9e9e9f;fill-rule:nonzero;opacity:1" transform="translate(4.53 .99)" vector-effect="non-scaling-stroke"/></g><g clip-path="url(#k)" transform="matrix(1.33 0 0 -1.33 430.9 279.57)"><clipPath id="k"><path stroke-linecap="round" d="M-556.61 319.816h841.89V-275.46h-841.89Z"/></clipPath><path d="M0 0h-4.446l-2.51-8.766c-.42-1.465-.247-2.085 1.059-2.085.963 0 2.062.14 2.924.451l-.701-2.34c-.905-.479-2.348-.648-3.343-.648-2.735 0-3.967 1.438-3.256 3.918L-7.555 0h-2.736l.74 2.452h2.736l.92 3.213 3.328.846-1.139-4.059H.74Z" style="stroke:none;stroke-width:1;stroke-dasharray:none;stroke-linecap:butt;stroke-dashoffset:0;stroke-linejoin:miter;stroke-miterlimit:4;fill:#9e9e9f;fill-rule:nonzero;opacity:1" transform="translate(4.87 3.44)" vector-effect="non-scaling-stroke"/></g><g clip-path="url(#l)" transform="matrix(1.33 0 0 -1.33 443.33 278.06)"><clipPath id="l"><path stroke-linecap="round" d="M-565.94 318.686h841.89V-276.59h-841.89Z"/></clipPath><path d="M0 0h-3.109l.883 3.129H.883zm-5.307-18.461h-3.109l4.471 15.558h3.11z" style="stroke:none;stroke-width:1;stroke-dasharray:none;stroke-linecap:butt;stroke-dashoffset:0;stroke-linejoin:miter;stroke-miterlimit:4;fill:#9e9e9f;fill-rule:nonzero;opacity:1" transform="translate(3.77 7.67)" vector-effect="non-scaling-stroke"/></g><g clip-path="url(#m)" transform="matrix(1.33 0 0 -1.33 459.43 282.05)"><clipPath id="m"><path stroke-linecap="round" d="M-578.02 321.676h841.89V-273.6h-841.89Z"/></clipPath><path d="M0 0c.962 3.354-.311 4.651-2.923 4.651-2.611 0-4.603-1.297-5.565-4.651l-.581-1.973c-.962-3.354.342-4.651 2.891-4.651 2.643 0 4.635 1.297 5.597 4.651zm2.52-2.086c-1.298-4.538-4.401-6.99-9.095-6.99-4.664 0-6.892 2.678-5.594 7.216l.58 1.973c1.298 4.538 4.401 6.99 9.064 6.99 4.695 0 6.923-2.678 5.625-7.216z" style="stroke:none;stroke-width:1;stroke-dasharray:none;stroke-linecap:butt;stroke-dashoffset:0;stroke-linejoin:miter;stroke-miterlimit:4;fill:#9e9e9f;fill-rule:nonzero;opacity:1" transform="translate(4.53 .99)" vector-effect="non-scaling-stroke"/></g><g clip-path="url(#n)" transform="matrix(1.33 0 0 -1.33 482.93 281.86)"><clipPath id="n"><path stroke-linecap="round" d="M-595.64 321.536h841.89V-273.74h-841.89Z"/></clipPath><path d="M0 0h-3.109l3.012 10.513c.539 1.832.458 2.846-1.594 2.846-1.492 0-3.546-.451-5.515-1.437L-10.602 0h-3.109l4.472 15.558h2.767l-.027-1.212c1.841.93 3.845 1.55 5.648 1.55 3.762 0 4.865-1.916 4.031-4.792z" style="stroke:none;stroke-width:1;stroke-dasharray:none;stroke-linecap:butt;stroke-dashoffset:0;stroke-linejoin:miter;stroke-miterlimit:4;fill:#9e9e9f;fill-rule:nonzero;opacity:1" transform="translate(5.13 -7.95)" vector-effect="non-scaling-stroke"/></g><g clip-path="url(#o)" transform="matrix(1.33 0 0 -1.33 473.76 227.68)"><clipPath id="o"><path stroke-linecap="round" d="M-588.76 280.896h841.89V-314.38h-841.89Z"/></clipPath><path d="m0 0 7.877-18.579H-5.396L-12.53.774l-5.468-19.353h-12.761l11.139 38.757h12.749L-11.77 3.369s7.823 4.122 13.984 16.809h13.49C9.23 6.293 0 0 0 0" style="stroke:none;stroke-width:1;stroke-dasharray:none;stroke-linecap:butt;stroke-dashoffset:0;stroke-linejoin:miter;stroke-miterlimit:4;fill:#241916;fill-rule:nonzero;opacity:1" transform="translate(7.53 -.8)" vector-effect="non-scaling-stroke"/></g><g clip-path="url(#p)" transform="matrix(1.33 0 0 -1.33 242.93 227.1)"><clipPath id="p"><path stroke-linecap="round" d="M-415.64 280.456h841.89V-314.82h-841.89Z"/></clipPath><path d="m0 0-7.792-27.646h-12.755l7.06 25.054c.59 2.155.995 3.88.142 4.693-.764.728-1.872.819-3.24.819l-6.619-.198-8.724-30.368h-12.748l11.094 38.745c1.514.077 12.85.614 24.109.876 4.32.109 7.296-.863 8.87-2.883C.951 7.09 1.155 4.028 0 0" style="stroke:none;stroke-width:1;stroke-dasharray:none;stroke-linecap:butt;stroke-dashoffset:0;stroke-linejoin:miter;stroke-miterlimit:4;fill:#241916;fill-rule:nonzero;opacity:1" transform="translate(21.97 7.83)" vector-effect="non-scaling-stroke"/></g><g clip-path="url(#q)" transform="matrix(1.33 0 0 -1.33 302.67 227.68)"><clipPath id="q"><path stroke-linecap="round" d="M-460.44 280.896h841.89V-314.38h-841.89Z"/></clipPath><path d="m0 0 7.877-18.579H-5.396L-12.53.774l-5.468-19.353h-12.761l11.139 38.757h12.749L-11.77 3.369s7.823 4.122 13.984 16.809h13.49C9.23 6.293 0 0 0 0" style="stroke:none;stroke-width:1;stroke-dasharray:none;stroke-linecap:butt;stroke-dashoffset:0;stroke-linejoin:miter;stroke-miterlimit:4;fill:#241916;fill-rule:nonzero;opacity:1" transform="translate(7.53 -.8)" vector-effect="non-scaling-stroke"/></g><g clip-path="url(#r)" transform="matrix(1.33 0 0 -1.33 356.32 227.68)"><clipPath id="r"><path stroke-linecap="round" d="M-500.68 280.896h841.89V-314.38h-841.89Z"/></clipPath><path d="m0 0-1.345-4.674c-1.778-6.176-4.633-8.81-9.563-8.81-2.218 0-3.701.537-4.538 1.63-1.081 1.42-1.108 3.747-.083 7.321l1.345 4.68c1.778 6.17 4.633 8.804 9.563 8.804 2.218 0 3.701-.531 4.538-1.624C.998 5.901 1.025 3.574 0 0m12.012 13.273c-2.386 3.146-7.057 4.738-13.879 4.738-13.235 0-21.636-5.895-24.965-17.519l-1.63-5.658c-1.582-5.505-1.268-9.756.92-12.633 2.386-3.146 7.058-4.738 13.88-4.738 13.234 0 21.636 5.895 24.965 17.518L12.932.639c1.583 5.499 1.269 9.75-.92 12.634" style="stroke:none;stroke-width:1;stroke-dasharray:none;stroke-linecap:butt;stroke-dashoffset:0;stroke-linejoin:miter;stroke-miterlimit:4;fill:#241916;fill-rule:nonzero;opacity:1" transform="translate(7.76 2.26)" vector-effect="non-scaling-stroke"/></g><g clip-path="url(#s)" transform="matrix(1.33 0 0 -1.33 416.05 227.68)"><clipPath id="s"><path stroke-linecap="round" d="M-545.48 280.896h841.89V-314.38h-841.89Z"/></clipPath><path d="m0 0-1.345-4.674c-1.771-6.176-4.633-8.81-9.563-8.81-2.218 0-3.701.537-4.532 1.63-1.08 1.42-1.108 3.747-.089 7.321l1.345 4.68c1.778 6.17 4.64 8.804 9.563 8.804 2.218 0 3.701-.531 4.538-1.624C.997 5.901 1.025 3.574 0 0m12.012 13.273c-2.386 3.146-7.057 4.738-13.879 4.738-13.235 0-21.636-5.895-24.965-17.519l-1.63-5.658c-1.575-5.505-1.268-9.756.92-12.633 2.386-3.146 7.058-4.738 13.886-4.738 13.235 0 21.63 5.895 24.959 17.518L12.932.639c1.582 5.499 1.275 9.75-.92 12.634" style="stroke:none;stroke-width:1;stroke-dasharray:none;stroke-linecap:butt;stroke-dashoffset:0;stroke-linejoin:miter;stroke-miterlimit:4;fill:#241916;fill-rule:nonzero;opacity:1" transform="translate(7.76 2.26)" vector-effect="non-scaling-stroke"/></g><g clip-path="url(#t)" transform="matrix(1.33 0 0 -1.33 185.66 227.12)"><clipPath id="t"><path stroke-linecap="round" d="M-372.69 280.476H469.2V-314.8h-841.89Z"/></clipPath><path d="m0 0-6.219-.179c-1.562 0-3.005-.066-4.161 1.17-.77.823-1.295 2.191-1.003 3.57.831 3.93 5.346 4.514 9.073 4.514h4.949zm17.662 26.632c-.974 1.809-2.768 3.101-5.479 3.945-2.073.633-4.716 1.01-7.87 1.119-.116 0-11.43.18-18.247-1.15l-2.172-7.692c6.875.781 13.391 1.003 16.206.913 3.052-.102 4.506-.498 5.186-1.419.587-.793.638-1.98.003-4.079l-.419-1.523H.037c-13.498 0-21.467-1.725-23.935-10.804-.946-3.49-.506-7.145 1.471-9.722 2.119-2.768 4.984-4.113 9.897-4.113h22.793l7.365 25.325c1.201 4.008 1.216 7.013.034 9.2" style="stroke:none;stroke-width:1;stroke-dasharray:none;stroke-linecap:butt;stroke-dashoffset:0;stroke-linejoin:miter;stroke-miterlimit:4;fill:#241916;fill-rule:nonzero;opacity:1" transform="translate(2.92 -11.91)" vector-effect="non-scaling-stroke"/></g><g clip-path="url(#u)" transform="matrix(1.33 0 0 -1.33 128.43 227.68)"><clipPath id="u"><path stroke-linecap="round" d="M-329.76 280.896h841.89V-314.38h-841.89Z"/></clipPath><path d="m0 0-4.172-14.646h-11.419L-11.419 0h-12.845l-11.094-38.751h12.819l4.423 15.278h11.425l-4.422-15.278H1.75L12.838 0Z" style="stroke:none;stroke-width:1;stroke-dasharray:none;stroke-linecap:butt;stroke-dashoffset:0;stroke-linejoin:miter;stroke-miterlimit:4;fill:#241916;fill-rule:nonzero;opacity:1" transform="translate(11.26 19.38)" vector-effect="non-scaling-stroke"/></g><g clip-path="url(#v)" transform="matrix(1.33 0 0 -1.33 48.38 225.61)"><clipPath id="v"><path stroke-linecap="round" d="M-269.73 279.346h841.89V-315.93h-841.89Z"/></clipPath><path d="M0 0c-1.421-13.592-9.681-25.183-21.332-31.377-.329-.175-.634.267-.348.504C-12.664-23.396-6.768-12.383-6.192 0h-11.434c-1.409-10.528-8.053-19.428-17.272-24.076-.324-.164-.616.264-.345.504C-28.595-17.704-24.251-9.354-23.706 0h-11.46c-.811-4.778-3.259-8.918-6.408-12.365-7.742-8.473-20.245-9.413-26.312-8.939 0 0-.286.046-.376-.18-.097-.243.175-.397.175-.397C-58-27.542-49.972-32.9-35.35-43.656c3.591-2.642 6.985-3.405 10.551-2.57C-2.005-40.885 11.258-17.311 11.401 0z" style="stroke:none;stroke-width:1;stroke-dasharray:none;stroke-linecap:butt;stroke-dashoffset:0;stroke-linejoin:miter;stroke-miterlimit:4;fill:#ed6d00;fill-rule:nonzero;opacity:1" transform="translate(28.44 23.27)" vector-effect="non-scaling-stroke"/></g></svg>