<svg xmlns="http://www.w3.org/2000/svg" width="243.91225mm" height="71.276573mm" viewBox="0 0 243.91225 71.276573"><g style="stroke-width:.351232"><g style="stroke-width:.351232"><path d="M0 0h-6.86c.745-2.314.648-4.397.648-4.397v-32.63H0Z" style="fill:#6d6f71;fill-opacity:1;fill-rule:nonzero;stroke:none;stroke-width:.351232" transform="matrix(1.0044 0 0 -1.0044 164.998 34.086)"/></g><g style="stroke-width:.351232"><path d="M0 0c-2.811 0-4.563 2.471-4.582 6.832.015 4.333 1.829 6.919 4.582 6.926 2.801-.007 4.554-2.515 4.574-6.926C4.554 2.469 2.805 0 0 0m0 18.28c-6.047-.003-10.938-5.141-10.949-11.448C-10.938.547-6.047-4.575 0-4.577 5.972-4.572 10.985.651 10.987 6.832 10.985 13.041 5.972 18.276 0 18.28" style="fill:#6d6f71;fill-opacity:1;fill-rule:nonzero;stroke:none;stroke-width:.351232" transform="matrix(1.0044 0 0 -1.0044 143.76 52.45)"/></g><g style="stroke-width:.351232"><path d="M0 0v-.003C-2.809 0-4.559 2.471-4.578 6.832c.015 4.333 1.829 6.919 4.578 6.926 2.803-.007 4.561-2.515 4.578-6.926C4.561 2.471 2.809 0 0 0m14.909 18.282c.746-2.314.644-4.397.644-4.397V9.188h-4.797C9.689 14.394 5.125 18.277 0 18.28c-6.042-.002-10.931-5.141-10.943-11.448C-10.931.547-6.042-4.575 0-4.577c5.167.002 9.736 3.933 10.76 9.191h4.793v-23.359h6.215v37.027z" style="fill:#6d6f71;fill-opacity:1;fill-rule:nonzero;stroke:none;stroke-width:.351232" transform="matrix(1.0044 0 0 -1.0044 185.145 52.45)"/></g><g style="stroke-width:.351232"><path d="M0 0c.005 3.077 2.305 5.32 5.475 5.327C8.63 5.32 10.928 3.077 10.935 0c-.007-3.084-2.302-5.318-5.46-5.328C2.303-5.318.005-3.084 0 0m2.218 12.129v-1.254l-11.731-.003v-4.33h6.042C-5.302 4.803-6.423 2.508-6.423 0c.004-4.559 3.665-8.361 8.61-9.538v-4.57l-16.039-.002v-4.326h38.68v4.326H8.705v4.555c4.972 1.17 8.649 4.987 8.656 9.555 0 2.508-1.124 4.803-2.951 6.542h5.991v4.33H8.667v4.405H1.694c.515-1.083.524-3.148.524-3.148" style="fill:#6d6f71;fill-opacity:1;fill-rule:nonzero;stroke:none;stroke-width:.351232" transform="matrix(1.0044 0 0 -1.0044 58.086 48.096)"/></g><g style="stroke-width:.351232"><path d="M0 0h-10.36c-1.552.026-2.23.647-2.26 2.001v4.937H0Zm-18.766 7.151V1.022c.001-3.19 2.533-5.291 5.813-5.289H6.169V9.895a1.332 1.332 0 0 1-1.335 1.33h-24.251c.693-1.944.651-4.074.651-4.074" style="fill:#6d6f71;fill-opacity:1;fill-rule:nonzero;stroke:none;stroke-width:.351232" transform="matrix(1.0044 0 0 -1.0044 25.107 66.99)"/></g><g style="stroke-width:.351232"><path d="M0 0v.152h-25.97v-4.336h19.497c.004-.406.005-.799.005-1.181 0-4.805-.268-7.541-.343-8.212h-24.783v-4.333H6.872v4.333h-8.237C-1.07-12.536 0-8.15 0 0" style="fill:#6d6f71;fill-opacity:1;fill-rule:nonzero;stroke:none;stroke-width:.351232" transform="matrix(1.0044 0 0 -1.0044 31.733 34.239)"/></g><g style="stroke-width:.351232"><path d="M0 0v-32.625h6.211v23.591h5.557v4.328H6.211v9.104H-.65C.076 2.221 0 0 0 0" style="fill:#6d6f71;fill-opacity:1;fill-rule:nonzero;stroke:none;stroke-width:.351232" transform="matrix(1.0044 0 0 -1.0044 113.776 38.506)"/></g><g style="stroke-width:.351232"><path d="M0 0c1.856 0 3.887.278 3.887.278v4.218s-1.477-.17-3.38-.17h-8.765c-1.463.027-2.239.679-2.262 2.015v3.056H1.151v4.085H-10.52v4.828H1.651v4.313h-19.009c.743-1.713.687-4.189.687-4.189V5.302C-16.668 2.103-13.905.005-10.869 0Z" style="fill:#6d6f71;fill-opacity:1;fill-rule:nonzero;stroke:none;stroke-width:.351232" transform="matrix(1.0044 0 0 -1.0044 106.95 57.073)"/></g><g style="stroke-width:.351232"><path d="M0 0c0-.63.092-1.269.336-1.869 1.103-2.723 3.89-4.394 7.425-2.976l24.325 9.793s-9.244-23.43-9.586-24.304c-1.353-3.356.266-6.398 3.024-7.421a5.347 5.347 0 0 1 1.87-.322c2.231.011 4.216 1.33 5.183 3.974.152.402 11.708 32.136 11.968 32.909.148.445.416 1.509.42 2.244.004 1.572-.581 3.054-1.699 4.165a5.727 5.727 0 0 1-4.126 1.677c-.748 0-1.363-.132-2.293-.429-.556-.176-30.356-11.267-32.9-12.222C1.395 4.27-.009 2.239 0 0" style="fill:#ed1c24;fill-opacity:1;fill-rule:nonzero;stroke:none;stroke-width:.351232" transform="matrix(1.0044 0 0 -1.0044 198.75 17.949)"/></g></g></svg>