<svg xmlns="http://www.w3.org/2000/svg" xml:space="preserve" width="968.00092" height="178.26933" viewBox="0 0 968.00091 178.26933"><defs><linearGradient id="a" x1="0" x2="1" y1="0" y2="0" gradientTransform="scale(105.42214 -105.42214)rotate(-18.076 -1.87 .363)" gradientUnits="userSpaceOnUse" spreadMethod="pad"><stop offset="0" style="stop-opacity:1;stop-color:#00586f"/><stop offset="1" style="stop-opacity:1;stop-color:#00c1de"/></linearGradient><linearGradient id="c" x1="0" x2="1" y1="0" y2="0" gradientTransform="scale(160.40336 -160.40336)rotate(1.42 27.777 25.054)" gradientUnits="userSpaceOnUse" spreadMethod="pad"><stop offset="0" style="stop-opacity:1;stop-color:#4197cb"/><stop offset="0.6128202" style="stop-opacity:1;stop-color:#001f60"/><stop offset="1" style="stop-opacity:1;stop-color:#001f60"/></linearGradient><clipPath id="b" clipPathUnits="userSpaceOnUse"><path d="M0 133.702h726.001V0H0Z"/></clipPath><clipPath id="d" clipPathUnits="userSpaceOnUse"><path d="M0 133.702h726.001V0H0Z"/></clipPath></defs><path d="M35.444 87.624C15.592 74.804 0 64.047 0 64.047s24.921 13.674 70.453 13.968l34.334 24.321s-49.492-1.892-69.343-14.712" style="fill:url(#a);stroke:none" transform="matrix(1.33333 0 0 -1.33333 0 178.27)"/><g clip-path="url(#b)" transform="matrix(1.33333 0 0 -1.33333 0 178.27)"><path d="m0 0-37.727-24.104c2.093-.701 4.79-1.314 6.706-1.827L6.724-1.815C4.803-1.375 2.09-.767 0 0" style="fill:#264c88;fill-opacity:1;fill-rule:nonzero;stroke:none" transform="translate(314.315 96.755)"/><path d="M0 0c-1.169.471-2.619 1.141-4.316 1.963l-38.152-24.376c2.184-.824 4.27-1.573 6.271-2.244L1.529-.553C1.018-.365.521-.21 0 0" style="fill:#002d74;fill-opacity:1;fill-rule:nonzero;stroke:none" transform="translate(309.404 99)"/></g><path d="M195.003 133.702c-28.554-.038-59.744-7.963-90.216-31.366L87.093 89.802s49.085 34.633 110.852 13.843c29.481-9.924 50.019-19.482 65.611-25.368l38.15 24.375c-16.602 8.044-57.603 30.996-106.325 31.05z" style="fill:url(#c);stroke:none" transform="matrix(1.33333 0 0 -1.33333 0 178.27)"/><g clip-path="url(#d)" transform="matrix(1.33333 0 0 -1.33333 0 178.27)"><path d="m0 0-37.744-24.115c3.24-.868 6.247-1.447 9.079-1.696L9.988-1.114C7.023-1.144 3.681-.844 0 0" style="fill:#456699;fill-opacity:1;fill-rule:nonzero;stroke:none" transform="translate(324.47 93.25)"/><path d="m0 0-38.653-24.696c6.407-.562 13.32.577 18.646 4.036A2077 2077 0 0 1 16.019 3.283S9.151.089 0 0" style="fill:#8096b9;fill-opacity:1;fill-rule:nonzero;stroke:none" transform="translate(340.472 92.135)"/><path d="m0 0 5.733-10.96H-5.731Zm-11.317-21.637h22.635l1.63-3.115a13.29 13.29 0 0 1 11.778-7.133h4.163c.463 0 .76.492.546.903L9.97 6.099c-1.35 2.571-3.519 4.717-6.26 5.68A11.02 11.02 0 0 1-9.743 6.528l-20.164-38.413h5.183a13.29 13.29 0 0 1 11.776 7.13z" style="fill:#001f60;fill-opacity:1;fill-rule:nonzero;stroke:none" transform="translate(87.725 31.889)"/><path d="m0 0 16.795 15.048c.979.878.359 2.5-.957 2.5H8.096c-3.888 0-7.64-1.434-10.536-4.027L-17.176.326v15.715c0 1.046-.581 1.334-1.035 1.403-5.942-.532-10.616-5.466-10.616-11.546v-32.662h11.651v11.377l8.424 7.546L1.899-20.583a17.21 17.21 0 0 1 13.206-6.174h6.918z" style="fill:#001f60;fill-opacity:1;fill-rule:nonzero;stroke:none" transform="translate(35.879 26.764)"/><path d="M0 0h-39.352c-5.794 0-10.485-4.623-10.647-10.378.034-.139.132-.298.442-.298h19.124v-33.628h11.651v33.628h8.92C-4.26-10.676.284-6.347.729-.859.69-.187.276-.016 0 0" style="fill:#001f60;fill-opacity:1;fill-rule:nonzero;stroke:none" transform="translate(164.86 44.308)"/><path d="M0 0h-36.309v5.621h17.271c5.499 0 9.974 4.17 10.562 9.511-.089.995-1.083 1.152-1.543 1.166h-26.29c0 3.423 2.775 6.651 6.198 6.651h22.323c5.438 0 9.877 4.08 10.543 9.338-.216 1.151-1.599 1.34-1.599 1.34h-28.997c-11.111 0-20.119-9.008-20.119-20.118v-24.186h38.472c5.656 0 10.238 4.411 10.607 9.974C.99-.187.435-.037 0 0" style="fill:#001f60;fill-opacity:1;fill-rule:nonzero;stroke:none" transform="translate(215.882 10.68)"/><path d="M0 0c-5.854 0-10.598-4.745-10.598-10.599v-6.213h-27.549v15.759c0 .581-.471 1.053-1.052 1.053-5.854 0-10.598-4.746-10.598-10.6v-32.921s-.057-.833.858-.747c.048.004.097.003.145.007 5.965.509 10.647 5.511 10.647 11.607v5.164h27.549v-16.089c.015-.228.166-.595.738-.651 6.083.388 10.912 5.395 10.912 11.576v31.601C1.052-.472.581 0 0 0" style="fill:#001f60;fill-opacity:1;fill-rule:nonzero;stroke:none" transform="translate(333.013 44.308)"/><path d="M0 0c-7.567 0-26.873-.004-27.32-.004-6.21 0-11.246 5.282-11.246 11.493 0 6.029 4.744 11.168 10.701 11.452.21.014 9.571.011 17.793.005C-4.371 22.945.264 27.393.588 33.01c-.014.352-.282.575-.621.611-8.281.011-29.531.01-30.088-.027-11.203-.751-20.074-10.716-20.074-22.099 0-11.668 9.322-21.886 20.926-22.166l19.246-.004C-4.303-10.676.323-6.166.599-.516.569-.01 0 0 0 0" style="fill:#001f60;fill-opacity:1;fill-rule:nonzero;stroke:none" transform="translate(273.365 10.68)"/><path d="M0 0v7.236h-5.963v-8.76c0-1.683.612-2.972 1.82-3.832 1.204-.856 2.814-1.29 4.788-1.29h22.224v5.325H1.374C.45-1.321 0-.889 0 0" style="fill:#001f60;fill-opacity:1;fill-rule:nonzero;stroke:none" transform="translate(375.631 7.005)"/><path d="M0 0h-6.011v-31.194H0v13.771h6.837v5.324H0Z" style="fill:#001f60;fill-opacity:1;fill-rule:nonzero;stroke:none" transform="translate(398.156 45.472)"/><path d="M0 0h18.001v-4.808H5.951v-5.323H29.51v-11.312h6.011v16.635H24.014V0h18.001v5.324H0Z" style="fill:#001f60;fill-opacity:1;fill-rule:nonzero;stroke:none" transform="translate(408.373 21.557)"/><path d="M0 0a21.4 21.4 0 0 0-3.801 5.247c-.845 1.723-1.423 3.405-1.717 5.006-.098.392-.181.861-.245 1.395a26 26 0 0 0-.148 1.669 60 60 0 0 0-.098 3.113h8.706v5.325H-20.53V16.43h8.263a39 39 0 0 0-.147-3.087 46 46 0 0 0-.345-3.043 21 21 0 0 0-.662-2.551c-.274-.842-.629-1.7-1.054-2.55a22.4 22.4 0 0 0-3.802-5.397 34 34 0 0 0-5.13-4.419l-.053-.037 3.83-4.079.033-.037.04.029c2.058 1.47 4.038 3.268 5.886 5.345a32.2 32.2 0 0 1 4.606 6.724 24.7 24.7 0 0 1 4.364-6.21 44.7 44.7 0 0 1 5.982-5.219l.04-.029 3.623 3.922.043.047-.052.036A34 34 0 0 0 0 0" style="fill:#001f60;fill-opacity:1;fill-rule:nonzero;stroke:none" transform="translate(477.15 19.586)"/><path d="M0 0h-6.013v-46.342H0v24.247h7.377v5.324H0Z" style="fill:#001f60;fill-opacity:1;fill-rule:nonzero;stroke:none" transform="translate(490.568 45.472)"/><path d="M0 0c.364.066.745.125 1.129.172a10.4 10.4 0 0 0 2.47 0A26 26 0 0 0 4.796.001a6.6 6.6 0 0 0 2.003-.884c.48-.291.954-.783 1.404-1.459a5 5 0 0 0 .486-2.152c0-.742-.163-1.399-.482-1.947-.454-.682-.928-1.177-1.41-1.467a6.6 6.6 0 0 0-1.999-.882A9.9 9.9 0 0 0 2.4-9.086c-.646 0-1.437.083-2.346.246-.778.196-1.466.493-2.047.882A4.7 4.7 0 0 0-3.406-6.49c-.353.515-.532 1.186-.532 1.996 0 .844.181 1.583.536 2.202.223.48.68.973 1.353 1.458C-1.366-.477-.675-.194 0 0m11.188 2.959c-.561.428-1.167.801-1.803 1.109-.637.309-1.342.599-2.102.863-.75.195-1.546.352-2.366.467-.822.114-1.686.172-2.565.172-1.766 0-3.411-.248-4.888-.739-1.505-.521-2.818-1.234-3.901-2.117a8 8 0 0 1-1.46-1.434A11.5 11.5 0 0 1-9.01-.444c-.623-1.212-.939-2.575-.939-4.049 0-1.571.316-2.984.939-4.194.526-1.082 1.391-2.127 2.573-3.11.984-.786 2.297-1.449 3.905-1.974a22 22 0 0 1 2.344-.467 18.304 18.304 0 0 1 7.475.519c.754.261 1.459.551 2.098.86.637.311 1.244.685 1.804 1.11a10.2 10.2 0 0 1 2.574 3.109c.623 1.214.94 2.61.94 4.147 0 1.569-.317 3.014-.94 4.293a9.9 9.9 0 0 1-2.575 3.159" style="fill:#001f60;fill-opacity:1;fill-rule:nonzero;stroke:none" transform="translate(519.933 13.048)"/><path d="M0 0h12.443v5.325h-22.777q-.664 0-1.018.376c-.234.25-.354.585-.354.994v3.879h23.559v5.324h-29.571V5.171c0-1.685.603-2.982 1.792-3.857C-14.739.442-13.141 0-11.171 0h5.158v-2.938h-18.001v-5.324H18.05v5.324H0Z" style="fill:#001f60;fill-opacity:1;fill-rule:nonzero;stroke:none" transform="translate(525.34 28.245)"/><path d="M0 0v9.204h-6.014V-1.571c0-1.668.614-2.946 1.82-3.798 1.201-.847 2.809-1.277 4.778-1.277h22.63v5.325H1.37C.449-1.321 0-.889 0 0" style="fill:#001f60;fill-opacity:1;fill-rule:nonzero;stroke:none" transform="translate(609.834 7.005)"/><path d="M0 0h6.012v30.062H0v-4.869h-6.395v-4.931H0v-5.397h-6.395V9.934H0Z" style="fill:#001f60;fill-opacity:1;fill-rule:nonzero;stroke:none" transform="translate(626.691 15.41)"/><path d="M0 0c-1.094 1.066-1.649 2.657-1.649 4.731 0 2.04.555 3.632 1.649 4.732 1.094 1.099 2.48 1.655 4.123 1.655 1.544 0 2.899-.557 4.024-1.654C9.21 8.3 9.748 6.708 9.748 4.731c0-1.037-.146-1.957-.436-2.733C8.989 1.22 8.58.546 8.099-.003c-.516-.58-1.118-.989-1.794-1.215a5.5 5.5 0 0 0-2.182-.438C2.449-1.656 1.062-1.1 0 0m8.643-6.092a10.9 10.9 0 0 1 3.709 2.373c1.013.982 1.862 2.229 2.52 3.706.59 1.378.889 2.974.889 4.744 0 1.671-.299 3.267-.889 4.746a13.5 13.5 0 0 1-2.522 3.705c-1.18 1.082-2.426 1.896-3.707 2.421a13.114 13.114 0 0 1-9.237 0c-1.313-.526-2.56-1.34-3.706-2.421-.983-.919-1.816-2.166-2.473-3.709-.589-1.475-.887-3.071-.887-4.742 0-1.77.298-3.366.888-4.744.656-1.574 1.489-2.822 2.47-3.705 1.019-1.051 2.266-1.849 3.707-2.373 1.376-.591 2.94-.889 4.645-.889 1.607 0 3.152.298 4.593.888" style="fill:#001f60;fill-opacity:1;fill-rule:nonzero;stroke:none" transform="translate(604.4 28.095)"/><path d="M0 0h17.951v-16.082h6.111V0h18.001v5.324H0Z" style="fill:#001f60;fill-opacity:1;fill-rule:nonzero;stroke:none" transform="translate(640.757 15.212)"/><path d="M0 0a41 41 0 0 0-1.229-7.196l-.015-.059 5.519-.943.051-.009.012.05c.62 2.346 1.109 5.262 1.454 8.663.343 3.399.516 7.307.516 11.613v.056h-31.046V6.85H.295A87 87 0 0 0 0 0" style="fill:#001f60;fill-opacity:1;fill-rule:nonzero;stroke:none" transform="translate(670.954 31.478)"/><path d="M0 0c0 1.353.458 2.372 1.36 3.029.909.662 2.21.998 3.87.998 1.498 0 2.75-.352 3.723-1.047.969-.691 1.46-1.693 1.46-2.98a2.96 2.96 0 0 0-.412-1.521 4.3 4.3 0 0 0-1.122-1.238 5.9 5.9 0 0 0-1.641-.852 6.2 6.2 0 0 0-2.008-.317c-1.462 0-2.716.336-3.724.999C.507-2.271 0-1.286 0 0m-2.499-6.314c.95-.739 2.098-1.312 3.41-1.706 1.31-.393 2.756-.592 4.295-.592 1.475 0 2.887.19 4.196.567 1.312.377 2.476.925 3.461 1.631a7.8 7.8 0 0 1 2.352 2.675c.575 1.069.866 2.31.866 3.69 0 1.281-.258 2.474-.767 3.54a8.1 8.1 0 0 1-2.178 2.774c-.937.771-2.093 1.386-3.437 1.83-1.343.441-2.854.667-4.493.667-1.506 0-2.935-.2-4.245-.593-1.312-.394-2.459-.968-3.41-1.706a8.2 8.2 0 0 1-2.28-2.748C-5.287 2.63-5.57 1.364-5.57-.049c0-1.313.275-2.514.817-3.566a8.1 8.1 0 0 1 2.254-2.699" style="fill:#001f60;fill-opacity:1;fill-rule:nonzero;stroke:none" transform="translate(697.623 36.907)"/><path d="M0 0h5.569v6.691q1.644.098 3.22.195a34 34 0 0 1 3.174.343c2.094.262 4.115.611 6.008 1.035l.048.01-.498 4.623-.007.063-.061-.014a56.5 56.5 0 0 0-7.224-1.179 41 41 0 0 0-3.704-.32 95 95 0 0 0-3.692-.073h-13.062V6.64H0Z" style="fill:#001f60;fill-opacity:1;fill-rule:nonzero;stroke:none" transform="translate(698.987 14.376)"/><path d="M0 0h9.345v-4.033h6.012v34.735H9.345V4.488H0Z" style="fill:#001f60;fill-opacity:1;fill-rule:nonzero;stroke:none" transform="translate(710.299 14.77)"/><path d="M0 0c-.922 0-1.371.432-1.371 1.321V7.77h-6.013V-.252c0-1.666.613-2.943 1.823-3.796 1.204-.848 2.814-1.276 4.786-1.276h23.553V0Z" style="fill:#001f60;fill-opacity:1;fill-rule:nonzero;stroke:none" transform="translate(703.223 5.193)"/><path d="M0 0c.887 1.08 2.221 1.628 3.966 1.628 1.648 0 2.966-.524 3.917-1.56C8.837-.969 9.32-2.341 9.32-4.014c0-1.58-.476-2.93-1.413-4.013-.935-1.08-2.261-1.629-3.941-1.629-1.649 0-2.959.54-3.893 1.606C-.865-6.982-1.34-5.625-1.34-4.014-1.34-2.435-.89-1.083 0 0m3.966-14.193c1.312 0 2.651.223 3.975.661 1.328.439 2.543 1.1 3.609 1.965a10.4 10.4 0 0 1 2.62 3.194c.674 1.26 1.016 2.726 1.016 4.359 0 1.347-.242 2.599-.719 3.718a9.8 9.8 0 0 1-1.863 2.866h4.548v4.725H-9.123V2.57h4.5A9.7 9.7 0 0 1-6.439-.226c-.476-1.099-.717-2.374-.717-3.788 0-1.604.316-3.046.939-4.287a10.3 10.3 0 0 1 2.474-3.195 10.6 10.6 0 0 1 3.534-2.012 12.8 12.8 0 0 1 4.175-.685" style="fill:#001f60;fill-opacity:1;fill-rule:nonzero;stroke:none" transform="translate(371.168 30.87)"/><path d="M381.675 45.472H368.69v-4.826h12.985zM567.483 45.472h-12.985v-4.826h12.985z" style="fill:#001f60;fill-opacity:1;fill-rule:nonzero;stroke:none"/><path d="M0 0a25.7 25.7 0 0 0-3.093 3.263 21.4 21.4 0 0 0-2.403 3.803 17 17 0 0 0-1.446 4.388 22 22 0 0 0-.441 4.162h8.999v5.178h-24.651v-5.178h9.097a19 19 0 0 0-.122-2.101 20 20 0 0 0-.368-2.159 17.7 17.7 0 0 0-1.495-4.241 26 26 0 0 0-2.356-3.802 27 27 0 0 0-3.042-3.437 73 73 0 0 0-3.514-3.146l-.046-.038 4.123-4.223.036-.036.04.032a55 55 0 0 1 5.76 5.613 27 27 0 0 1 4.385 6.692c1.011-2.121 2.401-4.19 4.14-6.152 1.762-1.992 3.799-3.896 6.054-5.662l.042-.032 3.814 4.265-.05.036A45 45 0 0 0 0 0" style="fill:#001f60;fill-opacity:1;fill-rule:nonzero;stroke:none" transform="translate(571.675 17.082)"/><path d="M0 0h-6.013v-46.342H0v24.246h7.377v5.325H0Z" style="fill:#001f60;fill-opacity:1;fill-rule:nonzero;stroke:none" transform="translate(583.521 45.472)"/><path d="M0 0a70 70 0 0 0-.498-3.724h5.78c.238 1.334.435 2.849.583 4.55.212 2.441.32 5.329.32 8.587v.056H-23.73V4.144H.222A41 41 0 0 0 0 0" style="fill:#001f60;fill-opacity:1;fill-rule:nonzero;stroke:none" transform="translate(438.153 34.184)"/><path d="M0 0h1.905v-4.92L6.641 0H9.15L4.655-4.582l4.575-6.685H6.822L3.288-5.934 1.905-7.315v-3.952H0Z" style="fill:#001f60;fill-opacity:1;fill-rule:nonzero;stroke:none" transform="translate(362.045 69.168)"/><path d="M0 0q-1.596.002-2.484-1.167-.887-1.167-.888-3.209.001-1.908.946-3.127.943-1.22 2.426-1.221 1.48 0 2.433 1.221c.634.813.955 1.855.955 3.127 0 1.284-.321 2.334-.955 3.151Q1.481.001 0 0m0 1.558q2.491 0 3.956-1.63t1.465-4.319-1.465-4.302Q2.491-10.31 0-10.31t-3.941 1.617Q-5.39-7.079-5.39-4.391t1.449 4.319q1.45 1.63 3.941 1.63" style="fill:#001f60;fill-opacity:1;fill-rule:nonzero;stroke:none" transform="translate(377.464 67.874)"/><path d="M0 0h3.045q1.922 0 1.922 1.792 0 1.703-1.744 1.703H0Zm-1.92 5.038h5.111c1.149 0 2.053-.254 2.702-.765Q6.92 3.466 6.92 1.937q0-1.07-.422-1.806-.36-.616-.896-.82 1.075-.4 1.122-2.086l.05-1.455q.05-1.264.536-1.573v-.426H5.128q-.21.413-.259 1.368l-.082 1.834q-.033.822-.438 1.17-.408.344-1.352.345H0v-4.717h-1.92z" style="fill:#001f60;fill-opacity:1;fill-rule:nonzero;stroke:none" transform="translate(386.727 64.13)"/><path d="M0 0h8.191v-1.615H1.922V-4.7h5.796v-1.528H1.922v-3.465h6.365v-1.574H0Z" style="fill:#001f60;fill-opacity:1;fill-rule:nonzero;stroke:none" transform="translate(395.942 69.168)"/><path d="m0 0-1.449-4.067h2.783Zm-.96 2.571h2.05L4.998-8.695H2.897L1.873-5.536h-3.795l-1.107-3.159h-1.985z" style="fill:#001f60;fill-opacity:1;fill-rule:nonzero;stroke:none" transform="translate(410.353 66.597)"/><path d="m0 0-1.449-4.067h2.783Zm-.961 2.571H1.09L4.998-8.695H2.896L1.872-5.536h-3.795l-1.106-3.159h-1.986z" style="fill:#001f60;fill-opacity:1;fill-rule:nonzero;stroke:none" transform="translate(426.309 66.597)"/><path d="M0 0v-6.934q0-3.083 2.361-3.084 2.506.002 2.508 3.084V0h1.986v-6.316q0-2.63-.994-3.893-1.057-1.351-3.434-1.352c-1.554 0-2.686.452-3.404 1.352q-1.009 1.263-1.008 3.893V0Z" style="fill:#001f60;fill-opacity:1;fill-rule:nonzero;stroke:none" transform="translate(434.759 69.168)"/><path d="M0 0v-1.585h-3.486v-9.682h-1.97v9.682h-3.501V0Z" style="fill:#001f60;fill-opacity:1;fill-rule:nonzero;stroke:none" transform="translate(452.1 69.168)"/><path d="M0 0q-1.597.002-2.483-1.167-.889-1.167-.889-3.209.001-1.908.946-3.127.943-1.22 2.426-1.221c.986 0 1.8.408 2.433 1.221q.952 1.22.954 3.127-.002 1.926-.954 3.151C1.8-.407.986 0 0 0m0 1.558q2.49 0 3.956-1.63t1.465-4.319-1.465-4.302Q2.49-10.31 0-10.31q-2.492 0-3.94 1.617-1.452 1.614-1.451 4.302T-3.94-.072q1.448 1.63 3.94 1.63" style="fill:#001f60;fill-opacity:1;fill-rule:nonzero;stroke:none" transform="translate(458.205 67.874)"/><path d="m0 0 2.785 8.594h2.507V-2.673H3.438v7.772L.928-2.673H-.926l-2.556 7.829v-7.829h-1.84V8.594h2.506z" style="fill:#001f60;fill-opacity:1;fill-rule:nonzero;stroke:none" transform="translate(470.873 60.575)"/><path d="M0 0q-1.595.002-2.483-1.167-.888-1.167-.889-3.209.001-1.908.946-3.127.944-1.22 2.426-1.221c.986 0 1.8.408 2.434 1.221q.952 1.22.954 3.127-.002 1.926-.954 3.151Q1.481.001 0 0m0 1.558q2.492 0 3.956-1.63 1.465-1.63 1.465-4.319T3.956-8.693Q2.492-10.31 0-10.31q-2.49 0-3.94 1.617-1.45 1.614-1.45 4.302t1.45 4.319q1.45 1.63 3.94 1.63" style="fill:#001f60;fill-opacity:1;fill-rule:nonzero;stroke:none" transform="translate(483.525 67.874)"/><path d="M0 0v-1.585h-3.485v-9.682h-1.97v9.682h-3.502V0Z" style="fill:#001f60;fill-opacity:1;fill-rule:nonzero;stroke:none" transform="translate(498.879 69.168)"/><path d="M500.442 69.168h1.97V57.901h-1.97z" style="fill:#001f60;fill-opacity:1;fill-rule:nonzero;stroke:none"/><path d="m0 0 2.785 8.667h2.117L.962-2.6H-.977L-4.899 8.667h2.116z" style="fill:#001f60;fill-opacity:1;fill-rule:nonzero;stroke:none" transform="translate(508.907 60.501)"/><path d="M0 0h8.191v-1.615H1.923V-4.7h5.795v-1.528H1.923v-3.465h6.363v-1.574H0Z" style="fill:#001f60;fill-opacity:1;fill-rule:nonzero;stroke:none" transform="translate(515.372 69.168)"/><path d="M0 0v-1.585h-3.486v-9.682h-1.97v9.682h-3.5V0Z" style="fill:#001f60;fill-opacity:1;fill-rule:nonzero;stroke:none" transform="translate(539.11 69.168)"/><path d="M0 0h8.19v-1.615H1.922V-4.7h5.796v-1.528H1.922v-3.465h6.364v-1.574H0Z" style="fill:#001f60;fill-opacity:1;fill-rule:nonzero;stroke:none" transform="translate(540.673 69.168)"/><path d="M0 0q0 2.499 1.319 4.099c.943 1.145 2.233 1.718 3.86 1.718q2.148-.001 3.402-1.277a4 4 0 0 0 1.173-2.585H7.85a2.74 2.74 0 0 1-.718 1.513q-.732.792-1.938.792-1.433-.001-2.313-1.175-.91-1.22-.91-3.334 0-2.041.845-3.129c.567-.725 1.346-1.086 2.346-1.086q1.254-.002 2.018.969.62.807.782 2.056h1.92q-.241-1.967-1.333-3.159-1.301-1.439-3.551-1.439-2.36-.001-3.679 1.588Q0-2.865 0 0" style="fill:#001f60;fill-opacity:1;fill-rule:nonzero;stroke:none" transform="translate(550.524 63.645)"/><path d="M0 0h1.97v-4.555h4.965V0h1.97v-11.267h-1.97v5.142H1.97v-5.142H0Z" style="fill:#001f60;fill-opacity:1;fill-rule:nonzero;stroke:none" transform="translate(562.33 69.168)"/><path d="M0 0v8.227h1.856V-3.04H-.212l-4.949 8.227V-3.04h-1.873V8.227h2.167z" style="fill:#001f60;fill-opacity:1;fill-rule:nonzero;stroke:none" transform="translate(580.775 60.942)"/><path d="M0 0q-1.597.002-2.484-1.167-.887-1.167-.888-3.209.001-1.908.946-3.127.943-1.22 2.426-1.221 1.48 0 2.434 1.221c.633.813.954 1.855.954 3.127 0 1.284-.321 2.334-.954 3.151Q1.48.001 0 0m0 1.558q2.491 0 3.955-1.63 1.466-1.63 1.466-4.319T3.955-8.693Q2.491-10.31 0-10.31t-3.94 1.617q-1.45 1.614-1.451 4.302 0 2.688 1.451 4.319 1.448 1.63 3.94 1.63" style="fill:#001f60;fill-opacity:1;fill-rule:nonzero;stroke:none" transform="translate(589.993 67.874)"/><path d="M0 0h1.956v-9.693h5.321v-1.574H0Z" style="fill:#001f60;fill-opacity:1;fill-rule:nonzero;stroke:none" transform="translate(597.318 69.168)"/><path d="M0 0q-1.597.002-2.483-1.167-.889-1.167-.889-3.209.001-1.908.946-3.127.943-1.22 2.426-1.221 1.48 0 2.434 1.221.951 1.22.953 3.127-.002 1.926-.953 3.151Q1.48.001 0 0m0 1.558q2.491 0 3.956-1.63t1.465-4.319-1.465-4.302Q2.491-10.31 0-10.31q-2.492 0-3.941 1.617-1.45 1.614-1.45 4.302t1.45 4.319q1.45 1.63 3.941 1.63" style="fill:#001f60;fill-opacity:1;fill-rule:nonzero;stroke:none" transform="translate(611.142 67.874)"/><path d="M0 0q0 2.688 1.435 4.386 1.432 1.696 3.793 1.696 2.052 0 3.306-1.057 1.17-1.001 1.464-2.821H8.045Q7.882 3.293 7.109 3.9q-.774.609-1.915.609-1.268.002-2.149-.984Q1.989 2.321 1.988.075q0-2.101.838-3.196t2.418-1.094q1.48 0 2.271.911.79.91.79 2.495H5.016v1.5h5.129v-6.155H8.728l-.227 1.072q-.423-.601-1.336-.968-.96-.398-2.215-.398-2.408 0-3.726 1.646Q0-2.585 0 0" style="fill:#001f60;fill-opacity:1;fill-rule:nonzero;stroke:none" transform="translate(618.062 63.365)"/><path d="M0 0h2.212L5.03-4.949 7.864 0h2.215L6.007-6.699v-4.568H4.069v4.568z" style="fill:#001f60;fill-opacity:1;fill-rule:nonzero;stroke:none" transform="translate(629.607 69.168)"/><path d="M646.491 69.168h1.97V57.901h-1.97z" style="fill:#001f60;fill-opacity:1;fill-rule:nonzero;stroke:none"/><path d="M0 0v8.227h1.856V-3.04H-.212l-4.949 8.227V-3.04h-1.873V8.227h2.167z" style="fill:#001f60;fill-opacity:1;fill-rule:nonzero;stroke:none" transform="translate(658.001 60.942)"/><path d="M0 0h1.857q.08-2.615 2.67-2.615 1.058 0 1.727.41.764.472.765 1.366-.001.794-.554 1.222-.457.366-1.499.6l-1.433.323q-1.644.367-2.36.984-.815.675-.815 1.925c0 1.066.36 1.923 1.075 2.561q1.074.963 2.947.964 1.921 0 3.061-.956Q8.645 5.77 8.597 3.981H6.742q-.13 2.201-2.411 2.202-.958 0-1.53-.486a1.55 1.55 0 0 1-.572-1.233q0-.721.522-1.058.441-.278 1.842-.6l1.479-.34Q8.924 1.82 8.924-.589q-.002-1.79-1.286-2.703-1.188-.835-3.208-.835-2.102 0-3.275 1.087Q-.015-1.956 0 0" style="fill:#001f60;fill-opacity:1;fill-rule:nonzero;stroke:none" transform="translate(661.924 61.707)"/><path d="M0 0v-1.585h-3.485v-9.682h-1.97v9.682h-3.501V0Z" style="fill:#001f60;fill-opacity:1;fill-rule:nonzero;stroke:none" transform="translate(680.86 69.168)"/><path d="M682.423 69.168h1.971V57.901h-1.971z" style="fill:#001f60;fill-opacity:1;fill-rule:nonzero;stroke:none"/><path d="M0 0v-1.585h-3.485v-9.682h-1.971v9.682h-3.5V0Z" style="fill:#001f60;fill-opacity:1;fill-rule:nonzero;stroke:none" transform="translate(694.928 69.168)"/><path d="M0 0v-6.934q0-3.083 2.361-3.084 2.507.002 2.508 3.084V0h1.986v-6.316q0-2.63-.994-3.893-1.057-1.351-3.434-1.352-2.328.001-3.403 1.352-1.01 1.263-1.009 3.893V0Z" style="fill:#001f60;fill-opacity:1;fill-rule:nonzero;stroke:none" transform="translate(698.428 69.168)"/><path d="M0 0v-1.585h-3.485v-9.682h-1.971v9.682h-3.501V0Z" style="fill:#001f60;fill-opacity:1;fill-rule:nonzero;stroke:none" transform="translate(715.77 69.168)"/><path d="M0 0h8.191v-1.615H1.922V-4.7h5.796v-1.528H1.922v-3.465h6.364v-1.574H0Z" style="fill:#001f60;fill-opacity:1;fill-rule:nonzero;stroke:none" transform="translate(717.332 69.168)"/></g></svg>