<svg xmlns="http://www.w3.org/2000/svg" width="650.13702pt" height="75pt" viewBox="0 0 650.13702 75"><path fill="#0066a6" d="M401.057 15.767c-.655.372-1.552.558-2.686.558-1.137 0-2.037-.193-2.703-.575-.665-.383-.999-.89-.999-1.522 0-.655.334-1.17.999-1.54.666-.373 1.566-.558 2.703-.558 1.112 0 2.004.185 2.67.557.664.371.999.886.999 1.54 0 .655-.329 1.169-.983 1.54M402.662.304h-8.68v3.014h8.68V.304m3.899 4.586h-16.477v3.049h16.477V4.89m9.367 3.834h-3.634V.503h-3.44V21.63h3.44v-9.436h3.634V8.724m-12.184 1.949c-1.31-.993-3.114-1.49-5.407-1.49-2.161 0-3.94.492-5.339 1.471-1.397.984-2.097 2.185-2.097 3.606 0 1.31.694 2.474 2.084 3.487 1.384 1.02 3.159 1.526 5.32 1.526 2.293 0 4.1-.503 5.422-1.508 1.322-1.004 1.98-2.173 1.98-3.505 0-1.396-.654-2.595-1.963-3.587m9.434 14.69h-15.561v-4.681h-3.634v7.99h19.195zM444.843 15.012h-11.695v4.782h8.453v9.499h-3.408v-6.157h-16.345v-3.342h7.698v-4.782H418.9v-3.309h18.149c.195-.916.408-1.998.636-3.242.23-1.244.387-2.468.476-3.669h-16.38V1.483h20.344c0 .524-.077 1.363-.23 2.52a87.743 87.743 0 0 1-.427 2.916 418.236 418.236 0 0 1-.49 2.703c-.132.711-.273 1.405-.426 2.081h4.29zM472.922 21.291h-3.408V10.514h-5.207v-3.47h5.207V.46h3.408V21.29m.559 7.338h-19.524v-9.4h3.406v6.09h16.118v3.31M455.888 5.47h-4.979V2.096h13.628V5.47h-5.01v.425c0 1.158.212 2.208.635 3.147a7.352 7.352 0 0 0 1.754 2.423c.742.678 1.398 1.19 1.966 1.54.566.351 1.21.655 1.933.915l-2.065 2.951c-.482-.198-.97-.437-1.474-.721-.5-.284-1.113-.71-1.836-1.278a11.423 11.423 0 0 1-1.489-1.36 25.232 25.232 0 0 1-1.228-1.458 10.69 10.69 0 0 1-1.081 1.655 11.774 11.774 0 0 1-1.604 1.654c-.7.611-1.362 1.104-1.982 1.472-.622.373-1.187.69-1.69.951l-2.422-2.85a18.14 18.14 0 0 0 2.26-1.276c.765-.503 1.573-1.158 2.422-1.965.678-.679 1.225-1.52 1.64-2.523.416-1.006.622-2.098.622-3.277zM485.019 6.716h-5.665V3.407h15.003v3.31h-5.7v1.21c0 .81.14 2.06.424 3.751.285 1.693.875 3.215 1.77 4.57.808 1.18 1.651 2.139 2.523 2.88.873.743 1.517 1.246 1.933 1.508l-2.196 2.85a53.06 53.06 0 0 1-1.492-1.063c-.73-.535-1.468-1.252-2.207-2.146-.57-.7-1.055-1.396-1.46-2.096a21.79 21.79 0 0 1-1.063-2.065 15.56 15.56 0 0 1-1.132 2.36 18.905 18.905 0 0 1-1.72 2.422 16.08 16.08 0 0 1-1.77 1.869c-.59.524-1.255 1.06-1.997 1.603l-2.817-2.49a21.484 21.484 0 0 0 3.193-2.718 15.148 15.148 0 0 0 2.442-3.307 14.989 14.989 0 0 0 1.506-4.376c.284-1.559.425-2.743.425-3.551V6.716m19.557 8.485h-3.667v14.083H497.5V.46h3.408v11.135h3.667zM524.887 26.195c-1.171.369-2.694.557-4.57.557-1.903 0-3.418-.204-4.553-.608-1.137-.405-1.704-.922-1.704-1.555 0-.676.572-1.164 1.72-1.457 1.144-.295 2.667-.443 4.57-.443 1.877 0 3.395.164 4.55.49 1.159.329 1.738.82 1.738 1.475 0 .655-.585 1.167-1.751 1.541m3.223-5.095c-1.81-.95-4.41-1.426-7.794-1.426-3.406 0-6 .453-7.78 1.36-1.782.908-2.668 2.103-2.668 3.588 0 1.463.904 2.674 2.717 3.635 1.811.962 4.39 1.44 7.731 1.44 3.384 0 5.984-.457 7.794-1.374 1.814-.918 2.72-2.106 2.72-3.571 0-1.483-.906-2.701-2.72-3.652m5.18-5.947h-11.042v-2.126h8.191v-2.982h-16.314v-1.67h15.887V5.622h-15.887V3.949h15.953V.971h-19.492v12.056h7.796v2.126h-11.038V18.3h25.946zM560.884 21.291h-3.439V.46h3.439V21.29m.59 7.338h-19.458v-9.006h3.472v5.697h15.986v3.309m-6.944-14.412-2 2.882c-.48-.195-1.125-.545-1.932-1.047a14.283 14.283 0 0 1-2.26-1.738c-.48-.457-.922-.927-1.327-1.406a13.066 13.066 0 0 1-1.162-1.638 14.02 14.02 0 0 1-1.115 1.784c-.436.6-.97 1.228-1.603 1.883-.681.7-1.371 1.305-2.082 1.819-.71.513-1.336.922-1.883 1.23l-2.392-2.688c.851-.48 1.73-1.074 2.639-1.786a13.731 13.731 0 0 0 2.471-2.539c.852-1.092 1.42-2.199 1.702-3.323.285-1.124.428-2.29.428-3.49V1.243h3.636V4.16c0 1.158.158 2.29.474 3.393a8.48 8.48 0 0 0 1.556 2.994c.74.897 1.557 1.656 2.44 2.279.887.622 1.688 1.088 2.41 1.392zM577.56 5.863c.633.81.949 1.768.949 2.882 0 1.092-.316 2.043-.949 2.85-.634.81-1.563 1.213-2.785 1.213-1.2 0-2.123-.403-2.768-1.213-.644-.807-.966-1.758-.966-2.85 0-1.114.322-2.072.966-2.882.645-.807 1.567-1.212 2.768-1.212 1.222 0 2.151.405 2.785 1.212m.522-3.75c-.982-.514-2.085-.77-3.307-.77-2.098 0-3.826.726-5.194 2.18-1.363 1.45-2.047 3.193-2.047 5.222 0 2.033.684 3.768 2.047 5.208 1.368 1.443 3.096 2.163 5.194 2.163 1.244 0 2.363-.268 3.357-.803a7.417 7.417 0 0 0 2.473-2.112h6.291v8.09h3.406V.46h-3.406v3.7h-6.388a7.012 7.012 0 0 0-2.426-2.046m3.915 7.271c.012-.208.018-.42.018-.64 0-.239-.01-.468-.034-.687-.022-.217-.042-.434-.065-.655h4.98V9.99h-4.945c.02-.195.036-.396.046-.604m8.893 15.935h-16.05v-5.928h-3.537v9.237h19.587zM621.732 17.273h-11.825v12.022h-3.505V17.273h-10.614v-3.31h17.92c.238-.784.506-2.05.802-3.797.294-1.747.485-3.385.572-4.914h-16.38v-3.31h20.31c0 .483-.086 1.481-.26 2.999a79.74 79.74 0 0 1-.526 3.848 37.134 37.134 0 0 1-.554 3.03c-.221.952-.373 1.667-.46 2.145h4.52zM638.033 3.75c.557.58.835 1.118.835 1.62 0 .46-.275.967-.819 1.523-.546.557-1.463.836-2.75.836-1.224 0-2.12-.279-2.687-.836-.568-.556-.85-1.063-.85-1.522 0-.503.271-1.042.816-1.62.547-.583 1.455-.868 2.72-.868 1.266 0 2.177.285 2.735.868M649.548.488h-3.409V16.77h-6.059v3.145h6.06v2.325h3.408V.488m-4.293 10.879c-.633.152-2.134.333-4.502.539-2.372.208-4.276.31-5.717.31h-8.844v3.376h6.06v4.846h3.57v-4.88c.894 0 2.417-.094 4.569-.278 2.151-.186 3.772-.387 4.864-.607v-3.306m4.882 13.985h-16.018v-3.767h-3.604v7.077h19.622v-3.31M630.105 1.62c-1.19 1.082-1.785 2.33-1.785 3.75 0 1.44.59 2.697 1.77 3.768 1.177 1.068 2.914 1.603 5.208 1.603 2.27 0 3.995-.528 5.175-1.586 1.18-1.057 1.77-2.32 1.77-3.784 0-1.422-.574-2.669-1.723-3.75C639.374.538 637.635 0 635.298 0c-2.271 0-4.003.539-5.193 1.62zM334.42.196v70.11h27.928V.196ZM107.716.196v14.751h32.654v55.359h28V14.947h32.665V.196ZM91.188 14.947V.196H0v56.692c0 7.396 6 13.4 13.396 13.4h77.792V55.526h-63.18V42.617h63.18v-14.76h-63.18v-12.91Z" style="fill:#0066a5;fill-opacity:1;stroke-width:1.17763"/><path fill="#f15a22" d="M285.24 37.605H252.28L290.082 75h32.962z" style="stroke-width:1.17763"/><path fill="#f15a22" d="M299.861.196h-84.794v70.11h28.005V14.947h42.175v22.658h28.014V13.578c0-7.397-5.999-13.382-13.4-13.382z" style="stroke-width:1.17763"/><path fill="#0066a6" d="M389.838 38.332h6.383v1.936h-4.213v3.03h3.857v1.936h-3.857v3.45h4.244v1.939h-6.414zM398.314 37.417h2.073v13.206h-2.073zM404.046 45.2c.092-1.215.682-2.13 1.842-2.13 1.165 0 1.628.985 1.69 2.13h-3.532m4.927 2.99c-.774.494-1.642.92-2.65.92-1.286 0-2.185-.828-2.277-2.29h5.515c0-3.172-.837-5.475-3.796-5.475-2.478 0-3.703 2.162-3.703 4.786 0 2.979 1.534 4.704 4.169 4.704 1.115 0 1.982-.246 2.742-.724zM416.362 43.507c-.369-.191-.773-.333-1.408-.333-1.286 0-2.107 1.162-2.107 2.872 0 1.67.698 2.954 2.155 2.954.587 0 1.237-.245 1.595-.42l.092 1.954c-.604.21-1.224.3-2.077.3-2.619 0-3.935-2.025-3.935-4.788 0-2.626 1.364-4.701 3.86-4.701.834 0 1.44.104 2.013.297zM418.749 43.279h-1.533v-1.725h1.533v-1.815l2.075-.757v2.572h1.845v1.725h-1.845v4.229c0 .774.187 1.492.977 1.492.372 0 .731-.086.944-.245l.063 1.868c-.432.14-.913.212-1.535.212-1.624 0-2.524-1.147-2.524-2.943zM424.141 41.554h1.845v2.062h.028c.095-.847.948-2.271 2.187-2.271.2 0 .417 0 .634.069v2.376c-.184-.122-.556-.193-.929-.193-1.69 0-1.69 2.395-1.69 3.697v3.329h-2.075zM431.505 45.869c0-1.356.65-2.695 1.996-2.695 1.363 0 2.014 1.302 2.014 2.695 0 1.51-.415 3.131-2.014 3.131-1.58 0-1.996-1.634-1.996-3.131m-2.17.282c0 2.604 1.533 4.684 4.166 4.684 2.651 0 4.184-2.08 4.184-4.684 0-2.995-1.814-4.806-4.184-4.806-2.354 0-4.166 1.81-4.166 4.806zM439.312 41.554h1.968v1.234h.03c.652-1.039 1.536-1.443 2.62-1.443 1.89 0 2.71 1.51 2.71 3.554v5.724h-2.076v-4.845c0-1.106-.015-2.604-1.347-2.604-1.502 0-1.828 1.848-1.828 3.011v4.438h-2.077zM448.826 41.554h2.076v9.069h-2.076v-9.07m0-3.908h2.076V39.9h-2.076zM458.262 43.507c-.372-.191-.776-.333-1.41-.333-1.287 0-2.108 1.162-2.108 2.872 0 1.67.698 2.954 2.154 2.954.588 0 1.239-.245 1.596-.42l.092 1.954c-.604.21-1.223.3-2.076.3-2.619 0-3.936-2.025-3.936-4.788 0-2.626 1.364-4.701 3.86-4.701.835 0 1.438.104 2.013.297zM464.707 43.455c-.635-.246-1.102-.385-1.86-.385-.556 0-1.223.227-1.223 1.001 0 1.444 3.61.528 3.61 3.805 0 2.11-1.657 2.959-3.347 2.959-.792 0-1.596-.16-2.356-.388l.125-1.938c.651.368 1.333.6 2.045.6.527 0 1.361-.232 1.361-1.11 0-1.777-3.608-.564-3.608-3.84 0-1.954 1.504-2.814 3.131-2.814.975 0 1.611.173 2.261.334zM472.625 47.999c0-1.392 1.378-1.566 2.307-1.566h.9c0 .703-.093 1.354-.433 1.865-.326.493-.821.812-1.457.812-.745 0-1.317-.337-1.317-1.111m-1.055-3.944c.697-.6 1.583-.985 2.465-.985 1.222 0 1.796.492 1.796 1.952h-1.144c-.868 0-1.892.089-2.684.528-.788.442-1.36 1.234-1.36 2.59 0 1.725 1.378 2.695 2.787 2.695.945 0 1.984-.565 2.464-1.57h.032c.013.282.013.882.092 1.358h1.828a45.572 45.572 0 0 1-.093-2.025 87.599 87.599 0 0 1-.032-2.272v-1.162c0-2.676-1.005-3.82-3.44-3.82-.882 0-1.967.264-2.774.687zM479.768 41.554h1.967v1.234h.03c.652-1.039 1.534-1.443 2.619-1.443 1.89 0 2.713 1.51 2.713 3.554v5.724h-2.078v-4.845c0-1.106-.014-2.604-1.346-2.604-1.504 0-1.83 1.848-1.83 3.011v4.438h-2.075zM490.892 46.06c0-1.211.373-2.886 1.718-2.886 1.334 0 1.86 1.62 1.86 2.887 0 1.287-.449 2.94-1.828 2.94-1.362 0-1.75-1.689-1.75-2.94m3.657 4.562h2.014V37.417h-2.076v5.194h-.032c-.619-.862-1.348-1.266-2.388-1.266-2.446 0-3.345 2.217-3.345 4.716 0 2.483.9 4.774 3.345 4.774.979 0 1.831-.354 2.449-1.234h.033zM505.161 40.268h-3.099v-1.936h8.367v1.936h-3.096v10.355h-2.172zM511.376 45.2c.094-1.215.685-2.13 1.845-2.13 1.161 0 1.627.985 1.69 2.13h-3.535m4.928 2.99c-.775.494-1.642.92-2.648.92-1.286 0-2.185-.828-2.28-2.29h5.516c0-3.172-.835-5.475-3.794-5.475-2.479 0-3.703 2.162-3.703 4.786 0 2.979 1.533 4.704 4.166 4.704 1.118 0 1.985-.246 2.743-.724zM518.566 37.417h2.078v13.206h-2.078zM524.299 45.2c.093-1.215.683-2.13 1.844-2.13 1.163 0 1.628.985 1.689 2.13h-3.533m4.929 2.99c-.777.494-1.643.92-2.65.92-1.289 0-2.186-.828-2.279-2.29h5.517c0-3.172-.837-5.475-3.795-5.475-2.482 0-3.705 2.162-3.705 4.786 0 2.979 1.535 4.704 4.167 4.704 1.118 0 1.984-.246 2.745-.724zM536.617 43.507c-.37-.191-.774-.333-1.409-.333-1.286 0-2.107 1.162-2.107 2.872 0 1.67.695 2.954 2.152 2.954.59 0 1.24-.245 1.597-.42l.092 1.954c-.603.21-1.222.3-2.075.3-2.619 0-3.936-2.025-3.936-4.788 0-2.626 1.362-4.701 3.86-4.701.835 0 1.438.104 2.012.297zM539.98 45.869c0-1.356.65-2.695 1.996-2.695 1.365 0 2.015 1.302 2.015 2.695 0 1.51-.418 3.131-2.015 3.131-1.578 0-1.996-1.634-1.996-3.131m-2.17.282c0 2.604 1.534 4.684 4.166 4.684 2.65 0 4.185-2.08 4.185-4.684 0-2.995-1.812-4.806-4.185-4.806-2.354 0-4.165 1.81-4.165 4.806zM547.756 41.554h1.938v1.27h.031c.65-1.11 1.596-1.48 2.37-1.48 1.117 0 1.907.474 2.355 1.603.481-1.093 1.518-1.602 2.496-1.602 1.966 0 2.525 1.53 2.525 3.554v5.724h-2.077v-5.405c0-.847 0-2.044-1.193-2.044-1.378 0-1.548 1.867-1.548 3.048v4.401h-2.076v-5.405c0-.847 0-2.044-1.194-2.044-1.38 0-1.55 1.867-1.55 3.048v4.401h-2.077zM561.531 41.554h1.937v1.27h.03c.652-1.11 1.597-1.48 2.37-1.48 1.116 0 1.908.474 2.357 1.603.481-1.093 1.517-1.602 2.494-1.602 1.97 0 2.526 1.53 2.526 3.554v5.724h-2.076v-5.405c0-.847 0-2.044-1.193-2.044-1.38 0-1.55 1.867-1.55 3.048v4.401h-2.075v-5.405c0-.847 0-2.044-1.194-2.044-1.38 0-1.55 1.867-1.55 3.048v4.401h-2.076zM582.666 50.623h-1.969v-1.232h-.03c-.637.879-1.534 1.444-2.62 1.444-1.889 0-2.71-1.516-2.71-3.56v-5.721h2.075v4.843c0 1.11.016 2.603 1.349 2.603 1.503 0 1.83-1.848 1.83-3.008v-4.438h2.075zM584.804 41.554h1.968v1.234h.029c.654-1.039 1.535-1.443 2.622-1.443 1.887 0 2.708 1.51 2.708 3.554v5.724h-2.076v-4.845c0-1.106-.015-2.604-1.346-2.604-1.504 0-1.83 1.848-1.83 3.011v4.438h-2.075zM594.316 41.554h2.077v9.069h-2.077v-9.07m0-3.908h2.077V39.9h-2.077zM603.753 43.507c-.37-.191-.776-.333-1.411-.333-1.286 0-2.106 1.162-2.106 2.872 0 1.67.698 2.954 2.153 2.954.588 0 1.239-.245 1.597-.42l.09 1.954c-.601.21-1.222.3-2.076.3-2.618 0-3.934-2.025-3.934-4.788 0-2.626 1.363-4.701 3.858-4.701.837 0 1.442.104 2.015.297zM606.93 47.999c0-1.392 1.378-1.566 2.308-1.566h.898c0 .703-.092 1.354-.432 1.865-.327.493-.823.812-1.458.812-.745 0-1.315-.337-1.315-1.111m-1.055-3.944c.696-.6 1.58-.985 2.465-.985 1.222 0 1.795.492 1.795 1.952h-1.145c-.868 0-1.891.089-2.683.528-.788.442-1.364 1.234-1.364 2.59 0 1.725 1.38 2.695 2.79 2.695.947 0 1.984-.565 2.464-1.57h.03c.017.282.017.882.094 1.358h1.829a45.398 45.398 0 0 1-.092-2.025 78.003 78.003 0 0 1-.033-2.272v-1.162c0-2.676-1.007-3.82-3.44-3.82-.882 0-1.967.264-2.773.687zM614.753 43.279h-1.534v-1.725h1.534v-1.815l2.076-.757v2.572h1.844v1.725h-1.844v4.229c0 .774.186 1.492.976 1.492.373 0 .73-.086.946-.245l.063 1.868c-.436.14-.914.212-1.536.212-1.625 0-2.525-1.147-2.525-2.943zM620.146 41.554h2.075v9.069h-2.075v-9.07m0-3.908h2.075V39.9h-2.075zM626.064 45.869c0-1.356.65-2.695 1.998-2.695 1.365 0 2.014 1.302 2.014 2.695 0 1.51-.415 3.131-2.014 3.131-1.581 0-1.998-1.634-1.998-3.131m-2.168.282c0 2.604 1.533 4.684 4.166 4.684 2.651 0 4.184-2.08 4.184-4.684 0-2.995-1.811-4.806-4.184-4.806-2.355 0-4.166 1.81-4.166 4.806zM633.873 41.554h1.968v1.234h.031c.651-1.039 1.533-1.443 2.62-1.443 1.888 0 2.71 1.51 2.71 3.554v5.724h-2.078v-4.845c0-1.106-.013-2.604-1.349-2.604-1.5 0-1.826 1.848-1.826 3.011v4.438h-2.076zM648.08 43.455c-.633-.246-1.1-.385-1.86-.385-.557 0-1.221.227-1.221 1.001 0 1.444 3.608.528 3.608 3.805 0 2.11-1.656 2.959-3.345 2.959-.792 0-1.596-.16-2.354-.388l.123-1.938c.65.368 1.33.6 2.044.6.527 0 1.362-.232 1.362-1.11 0-1.777-3.608-.564-3.608-3.84 0-1.954 1.502-2.814 3.129-2.814.975 0 1.611.173 2.263.334zM391.82 59.923h.713c1.084 0 2.294.123 2.294 1.602 0 1.533-1.224 1.707-2.294 1.707h-.713v-3.309m-2.17 10.354h2.17V65.17h.698c.915 0 1.193.352 1.503 1.267l1.302 3.839h2.417l-1.735-4.806c-.218-.546-.558-1.218-1.147-1.269v-.035c1.378-.212 2.231-1.409 2.231-2.852 0-3.417-2.774-3.327-5.1-3.327h-2.34zM400.59 64.852c.094-1.212.684-2.13 1.843-2.13 1.163 0 1.629.987 1.69 2.13h-3.533m4.93 2.995c-.779.49-1.646.914-2.652.914-1.287 0-2.184-.828-2.278-2.287h5.515c0-3.17-.835-5.477-3.794-5.477-2.48 0-3.703 2.166-3.703 4.788 0 2.976 1.533 4.704 4.167 4.704 1.115 0 1.981-.248 2.745-.724zM412.474 63.109c-.635-.246-1.1-.387-1.858-.387-.56 0-1.225.23-1.225 1.003 0 1.446 3.611.528 3.611 3.803 0 2.114-1.66 2.96-3.347 2.96-.79 0-1.597-.16-2.356-.388l.124-1.94c.65.373 1.333.601 2.046.601.528 0 1.363-.228 1.363-1.106 0-1.78-3.609-.566-3.609-3.841 0-1.953 1.5-2.817 3.128-2.817.976 0 1.611.175 2.262.336zM416.085 64.852c.092-1.212.682-2.13 1.843-2.13 1.162 0 1.626.987 1.689 2.13h-3.532m4.925 2.995c-.773.49-1.64.914-2.648.914-1.288 0-2.185-.828-2.277-2.287h5.513c0-3.17-.835-5.477-3.795-5.477-2.477 0-3.702 2.166-3.702 4.788 0 2.976 1.534 4.704 4.167 4.704 1.118 0 1.984-.248 2.742-.724zM424.698 67.655c0-1.393 1.382-1.57 2.309-1.57h.9c0 .706-.093 1.357-.435 1.867-.326.492-.82.81-1.458.81-.741 0-1.316-.333-1.316-1.107m-1.053-3.946c.698-.6 1.582-.987 2.464-.987 1.222 0 1.797.495 1.797 1.954h-1.146c-.869 0-1.89.089-2.68.53-.792.439-1.364 1.232-1.364 2.588 0 1.724 1.378 2.695 2.79 2.695.942 0 1.98-.563 2.461-1.568h.034c.013.282.013.879.092 1.356h1.827a48.792 48.792 0 0 1-.093-2.025 94.36 94.36 0 0 1-.029-2.272v-1.162c0-2.675-1.01-3.82-3.442-3.82-.882 0-1.969.265-2.771.686zM431.888 61.207h1.844v2.062h.029c.097-.846.948-2.272 2.186-2.272.201 0 .418 0 .635.068v2.378c-.184-.12-.557-.192-.93-.192-1.689 0-1.689 2.394-1.689 3.699v3.327h-2.075zM442.767 63.163c-.372-.196-.774-.335-1.408-.335-1.287 0-2.108 1.163-2.108 2.87 0 1.673.698 2.958 2.154 2.958.588 0 1.239-.25 1.597-.423l.09 1.953c-.603.214-1.224.303-2.075.303-2.62 0-3.936-2.026-3.936-4.79 0-2.625 1.364-4.702 3.86-4.702.835 0 1.438.105 2.013.3zM444.471 57.073h2.077v5.366h.032c.526-.878 1.423-1.442 2.509-1.442 1.89 0 2.711 1.515 2.711 3.556v5.724h-2.075v-4.843c0-1.11-.016-2.606-1.35-2.606-1.501 0-1.827 1.848-1.827 3.01v4.439h-2.077zM458.245 57.988h2.17v12.289h-2.17zM462.553 61.207h1.969v1.232h.029c.65-1.037 1.535-1.442 2.62-1.442 1.888 0 2.711 1.515 2.711 3.556v5.724h-2.078v-4.843c0-1.11-.013-2.606-1.347-2.606-1.503 0-1.828 1.848-1.828 3.01v4.439h-2.076zM476.76 63.109c-.634-.246-1.099-.387-1.858-.387-.559 0-1.222.23-1.222 1.003 0 1.446 3.608.528 3.608 3.803 0 2.114-1.658 2.96-3.346 2.96-.79 0-1.595-.16-2.356-.388l.124-1.94c.65.373 1.335.601 2.047.601.524 0 1.361-.228 1.361-1.106 0-1.78-3.61-.566-3.61-3.841 0-1.953 1.505-2.817 3.132-2.817.974 0 1.609.175 2.26.336zM479.581 62.935h-1.535v-1.728h1.535v-1.813l2.076-.755v2.568h1.845v1.728h-1.845v4.224c0 .774.187 1.497.975 1.497.374 0 .73-.086.948-.25l.061 1.87c-.433.142-.915.213-1.533.213-1.628 0-2.527-1.145-2.527-2.942zM484.972 61.207h2.078v9.07h-2.078v-9.07m0-3.908h2.078v2.255h-2.078zM489.916 62.935h-1.533v-1.728h1.533v-1.813l2.075-.755v2.568h1.845v1.728h-1.845v4.224c0 .774.187 1.497.977 1.497.372 0 .728-.086.944-.25l.063 1.87c-.433.142-.914.213-1.533.213-1.63 0-2.526-1.145-2.526-2.942zM502.589 70.277h-1.967v-1.233h-.03c-.637.882-1.534 1.445-2.618 1.445-1.892 0-2.713-1.516-2.713-3.558v-5.724h2.076v4.844c0 1.108.015 2.605 1.349 2.605 1.5 0 1.826-1.848 1.826-3.011v-4.438h2.077zM505.409 62.935h-1.533v-1.728h1.533v-1.813l2.077-.755v2.568h1.843v1.728h-1.843v4.224c0 .774.187 1.497.976 1.497.373 0 .727-.086.945-.25l.061 1.87c-.43.142-.913.213-1.534.213-1.625 0-2.525-1.145-2.525-2.942zM512.226 64.852c.094-1.212.684-2.13 1.845-2.13s1.627.987 1.69 2.13h-3.535m4.927 2.995c-.774.49-1.641.914-2.648.914-1.288 0-2.185-.828-2.279-2.287h5.518c0-3.17-.837-5.477-3.796-5.477-2.48 0-3.703 2.166-3.703 4.788 0 2.976 1.533 4.704 4.166 4.704 1.116 0 1.984-.248 2.742-.724z" style="fill:#0066a5;fill-opacity:1;stroke-width:1.17763"/></svg>