<svg xmlns="http://www.w3.org/2000/svg" width="532.290647" height="187.867287" viewBox="0 0 13.618279 4.7646196"><path fill="#234781" d="M6.68 4c-.008.11-.039.201-.163.201-.126 0-.156-.092-.166-.2V2.854c0-.126.011-.27.166-.27.154 0 .164.144.164.27zm-.16-1.842c-.513 0-.867.174-.867.799v.952c0 .54.392.723.867.723.505 0 .833-.185.868-.723v-.952c0-.55-.285-.8-.868-.8M7.48 2.183v.44h.247V4.15c0 .382.21.455.58.455.15 0 .25 0 .435-.013V4.17H8.57c-.09 0-.15-.053-.15-.173V2.623h.322v-.44M13.01 2.153c-.272 0-.427.14-.497.342h-.008c-.054-.189-.192-.342-.468-.342-.254 0-.413.132-.515.354h-.008v-.322h-.658v2.418h.656v-1.71c.009-.122.043-.198.174-.198.122 0 .158.092.158.197v1.711h.655v-1.71c0-.118.051-.198.165-.198.124 0 .159.094.159.197v1.711h.663V2.617c0-.305-.2-.464-.476-.464M9.886 3.065h-.328v-.162c0-.163-.018-.313.163-.313.167 0 .165.16.165.242zm-.169-.912c-.496.002-.864.17-.864.769V3.93c0 .533.417.697.864.697.569 0 .865-.195.865-.627V3.65h-.697v.263c0 .141-.018.28-.164.28-.138 0-.162-.149-.162-.278v-.449h1.024v-.638c0-.503-.391-.676-.866-.674M4.467 2.905h-.105v-.727l.09.001c.224 0 .292.114.292.376 0 .194-.075.35-.277.35m.972-.451c0-.561-.367-.679-.848-.679h-.93v2.828h.701V3.31H4.5c.163.012.229.118.239.304.002.03.003.066.003.103v.886h.695v-.886a3.21 3.21 0 0 0-.008-.245c-.012-.196-.15-.376-.534-.39v-.007c.412-.072.545-.32.545-.621" style="stroke-width:.352778;fill:#0a2369;fill-opacity:1"/><path fill="#d92628" d="m9.119.696-1.392.689v.682l1.392-.69" style="stroke-width:.352778"/><path fill="#d92628" d="m9.119.696-1.392.689v.682l1.392-.69" style="stroke-width:.352778;fill:red;fill-opacity:1"/><g fill="#234781" style="fill:#0a2369;fill-opacity:1"><path d="M0 0h-1.453v1.214h-.681v-3.111h.681v1.29H0v-1.29h.682v3.111H0" style="fill:#0a2369;fill-opacity:1" transform="matrix(.35278 0 0 -.35278 .885 .56)"/><path d="M0 0h1.274v-.903H-.174v.726c.003.035-.004.099.027.139.032.039.083.036.147.038m-.702.431C-.845.284-.85.07-.855-.054v-2.449h.681v.993h1.448v-.993h.682v3.11H-.169C-.371.606-.56.577-.702.431" style="fill:#0a2369;fill-opacity:1" transform="matrix(.35278 0 0 -.35278 6.358 .347)"/><path d="M0 0h-2.13v-3.111h.682v2.504h1.279c.064-.002.116.001.147-.039.03-.039.025-.104.026-.139v-2.326h.682v2.45c-.003.123-.008.338-.151.484C.391-.031.203-.001 0 0" style="fill:#0a2369;fill-opacity:1" transform="matrix(.35278 0 0 -.35278 4.408 .132)"/><path d="M0 0c-.003-.036.003-.099-.026-.138-.033-.041-.085-.037-.147-.04h-1.28v2.503h-.682V-.786h2.13c.203.002.392.032.533.178.144.146.149.36.153.484v2.449H0" style="fill:#0a2369;fill-opacity:1" transform="matrix(.35278 0 0 -.35278 3.204 .952)"/><path d="M0 0c-.002-.036.004-.099-.026-.138-.031-.041-.084-.037-.148-.039h-1.28v1.895h1.28c.064-.002.117 0 .148-.039.03-.039.024-.104.026-.139Zm.68 1.663c-.003.125-.01.338-.153.484-.142.147-.331.177-.533.178h-2.129V-.786h2.129c.202.001.391.031.533.178.143.146.15.359.153.485" style="fill:#0a2369;fill-opacity:1" transform="matrix(.35278 0 0 -.35278 5.617 .952)"/><path d="m0 0-.827 1.361h-.81L-.364-.6v-1.15h.728V-.6l1.273 1.961h-.81" style="fill:#0a2369;fill-opacity:1" transform="matrix(.35278 0 0 -.35278 1.788 .612)"/><path d="M124.589 165.691h.256v-1.097h-.256z" style="fill:#0a2369;fill-opacity:1" transform="translate(-117.3 -164.462)"/></g></svg>