<?xml version="1.0" encoding="UTF-8" standalone="no"?>
<!-- Created with Inkscape (http://www.inkscape.org/) -->

<svg
   xmlns:dc="http://purl.org/dc/elements/1.1/"
   xmlns:cc="http://creativecommons.org/ns#"
   xmlns:rdf="http://www.w3.org/1999/02/22-rdf-syntax-ns#"
   xmlns:svg="http://www.w3.org/2000/svg"
   xmlns="http://www.w3.org/2000/svg"
   xmlns:sodipodi="http://sodipodi.sourceforge.net/DTD/sodipodi-0.dtd"
   xmlns:inkscape="http://www.inkscape.org/namespaces/inkscape"
   width="1024"
   height="242"
   id="svg5104"
   version="1.1"
   inkscape:version="0.48.4 r9939"
   sodipodi:docname="PTV Planung Transport Verkehr logo.svg">
  <defs
     id="defs5106" />
  <sodipodi:namedview
     id="base"
     pagecolor="#ffffff"
     bordercolor="#666666"
     borderopacity="1.0"
     inkscape:pageopacity="0.0"
     inkscape:pageshadow="2"
     inkscape:zoom="0.5"
     inkscape:cx="735.20603"
     inkscape:cy="382"
     inkscape:current-layer="layer1"
     inkscape:document-units="px"
     showgrid="false"
     inkscape:window-width="1270"
     inkscape:window-height="574"
     inkscape:window-x="125"
     inkscape:window-y="125"
     inkscape:window-maximized="0" />
  <metadata
     id="metadata5109">
    <rdf:RDF>
      <cc:Work
         rdf:about="">
        <dc:format>image/svg+xml</dc:format>
        <dc:type
           rdf:resource="http://purl.org/dc/dcmitype/StillImage" />
        <dc:title></dc:title>
      </cc:Work>
    </rdf:RDF>
  </metadata>
  <g
     id="layer1"
     inkscape:label="Layer 1"
     inkscape:groupmode="layer"
     transform="translate(0,-526)">
    <g
       transform="matrix(8.9759823,0,0,-8.9759823,-729.86755,7936.2463)"
       id="g5071">
      <path
         inkscape:connector-curvature="0"
         id="path3059"
         style="fill:#e2002b;fill-opacity:1;fill-rule:nonzero;stroke:none"
         d="m 195.059,824.856 0,-25.768 -70.691,0 c 0,0 2.843,0.842 2.843,5.154 l 0,15.461 0,5.153 67.848,0 z" />
      <path
         inkscape:connector-curvature="0"
         id="path3061"
         style="fill:#646567;fill-opacity:1;fill-rule:nonzero;stroke:none"
         d="m 124.459,804.242 c 0,-2.835 -2.319,-5.154 -5.154,-5.154 l -37.655,0 0,25.768 42.809,0 0,-20.614 z" />
      <path
         inkscape:connector-curvature="0"
         id="path3063"
         style="fill:#ffffff;fill-opacity:1;fill-rule:nonzero;stroke:none"
         d="m 142.612,815.387 c -0.679,0.743 -1.795,1.244 -3.104,1.244 -2.683,0 -4.364,-2.085 -4.364,-4.59 0,-2.554 1.681,-4.591 4.413,-4.591 1.066,0 2.004,0.21 2.667,0.566 l 0,3.184 -2.538,0 0,1.358 4.121,0 0,-5.544 c -1.195,-0.647 -2.618,-1.003 -4.299,-1.003 -3.572,0 -6.109,2.506 -6.109,6.03 0,3.572 2.618,5.997 6.093,5.997 1.811,0 3.297,-0.582 4.235,-1.488 l -1.115,-1.163 z" />
      <path
         inkscape:connector-curvature="0"
         id="path3065"
         style="fill:#ffffff;fill-opacity:1;fill-rule:nonzero;stroke:none"
         d="m 148.159,812.735 1.841,0 c 1.504,0 2.684,0.469 2.684,1.843 0,1.375 -1.18,1.811 -2.57,1.811 l -1.955,0 0,-3.654 z m 0,-6.433 -1.601,0 0,11.444 3.67,0 c 2.214,0 4.074,-0.84 4.074,-3.168 0,-1.681 -1.149,-2.747 -2.782,-3.022 l 3.2,-5.254 -1.938,0 -2.91,5.092 -1.713,0 0,-5.092 z" />
      <path
         inkscape:connector-curvature="0"
         id="path3067"
         style="fill:#ffffff;fill-opacity:1;fill-rule:nonzero;stroke:none"
         d="m 161.949,816.631 c -2.635,0 -4.317,-2.085 -4.317,-4.59 0,-2.554 1.697,-4.591 4.317,-4.591 2.65,0 4.348,2.037 4.348,4.591 0,2.505 -1.681,4.59 -4.348,4.59 m 0,-10.62 c -3.476,0 -6.045,2.506 -6.045,6.03 0,3.572 2.569,5.997 6.045,5.997 3.491,0 6.078,-2.425 6.078,-5.997 0,-3.524 -2.587,-6.03 -6.078,-6.03" />
      <path
         inkscape:connector-curvature="0"
         id="path3069"
         style="fill:#ffffff;fill-opacity:1;fill-rule:nonzero;stroke:none"
         d="m 170.13,810.537 0,7.209 1.6,0 0,-7.112 c 0,-1.568 0.712,-3.184 2.845,-3.184 2.134,0 2.846,1.616 2.846,3.184 l 0,7.112 1.6,0 0,-7.209 c 0,-2.343 -1.423,-4.526 -4.446,-4.526 -3.022,0 -4.445,2.183 -4.445,4.526" />
      <path
         inkscape:connector-curvature="0"
         id="path3071"
         style="fill:#ffffff;fill-opacity:1;fill-rule:nonzero;stroke:none"
         d="m 183.322,812.687 1.698,0 c 1.568,0 2.667,0.517 2.667,1.875 0,1.374 -1.131,1.827 -2.634,1.827 l -1.731,0 0,-3.702 z m -1.6,5.059 3.491,0 c 2.474,0 4.09,-0.953 4.09,-3.184 0,-2.295 -1.793,-3.233 -4.17,-3.233 l -1.811,0 0,-5.027 -1.6,0 0,11.444 z" />
      <path
         inkscape:connector-curvature="0"
         id="path3073"
         style="fill:#ffffff;fill-opacity:1;fill-rule:nonzero;stroke:none"
         d="m 116.989,817.269 c 0.136,0.419 0.466,0.556 1.066,0.556 l 1.369,0 -4.57,-11.554 -0.065,0 -1.714,0 -0.065,0 -4.57,11.554 1.368,0 c 0.602,0 0.931,-0.137 1.067,-0.556 l 2.94,-8.345 0.234,0 2.94,8.345 z" />
      <path
         inkscape:connector-curvature="0"
         id="path3075"
         style="fill:#ffffff;fill-opacity:1;fill-rule:nonzero;stroke:none"
         d="m 90.215,812.782 1.436,0 c 1.339,0 2.562,0.326 2.562,1.699 0,1.37 -1.223,1.615 -2.496,1.615 l -1.502,0 0,-3.314 z m 0.011,-5.694 c 0,-0.441 -0.352,-0.804 -0.793,-0.804 l -1.277,0 0.002,11.542 3.771,0 c 2.643,0 4.357,-0.931 4.357,-3.345 0,-2.547 -2.039,-3.428 -4.488,-3.428 l -1.572,0 0,-3.965 z" />
      <path
         inkscape:connector-curvature="0"
         id="path3077"
         style="fill:#ffffff;fill-opacity:1;fill-rule:nonzero;stroke:none"
         d="m 103.221,816.032 -0.037,-8.942 c 0,-0.44 -0.352,-0.802 -0.793,-0.802 l -1.227,0 0,9.744 -3.524,0.002 0,1.794 9.341,-10e-4 -0.002,-1.132 c 0,-0.433 -0.253,-0.663 -0.634,-0.663 l -3.124,0 z" />
    </g>
  </g>
</svg>
