<?xml version="1.0" encoding="UTF-8"?>
<svg xmlns="http://www.w3.org/2000/svg" id="Ebene_1" viewBox="0 0 245.35 86.25">
  <defs>
    <style>.cls-1{fill:#006ea5;}</style>
  </defs>
  <path class="cls-1" d="m61.12,31.44v-1.77h-17c-.44-6.8-5.89-12.24-12.68-12.68V0h-1.77v16.99c-6.8.44-12.24,5.88-12.68,12.68H0v1.77h16.99c.44,6.8,5.88,12.24,12.68,12.68v17h1.77v-16.99c6.8-.44,12.25-5.89,12.68-12.69h17Zm-19.07-.88c0,6.33-5.15,11.49-11.49,11.49s-11.49-5.15-11.49-11.49,5.15-11.49,11.49-11.49,11.49,5.15,11.49,11.49h0ZM31.67,5.49l23.96,23.96-4.17-19.79-19.79-4.17h0ZM5.49,29.45L29.45,5.49l-19.79,4.17-4.17,19.79h0Zm23.96,26.18L5.49,31.66l4.17,19.79,19.79,4.17h0Zm26.18-23.96l-23.96,23.96,19.79-4.17,4.17-19.79h0Z"></path>
  <path class="cls-1" d="m73.65,51.78h9.51l3.44-8.87h17.03l3.38,8.87h9.91l-17.15-42.23h-8.98l-17.15,42.23h0Zm17.5-20.65c1.34-3.56,2.86-7.76,3.97-10.96h.12c1.11,3.21,2.62,7.41,3.85,10.73l1.75,4.72h-11.37l1.69-4.49h0Zm30.73,18.2c3.97,2.04,9.16,3.09,13.36,3.09,9.1,0,15.34-4.96,15.34-13.18,0-7.47-5.13-10.44-11.49-12.54-5.07-1.69-8.98-1.98-8.98-5.72,0-2.8,2.27-3.97,5.42-3.97s8.46,1.28,12.95,4.08v-9.16c-3.67-1.98-8.75-3.03-12.89-3.03-8.86,0-14.81,4.9-14.81,12.77,0,7.35,5.25,10.21,11.08,12.13,5.42,1.75,9.39,2.1,9.39,6.01,0,3.15-2.51,4.49-5.89,4.49s-8.98-1.34-13.47-4.38v9.39h0Zm31.61,2.45h9.51l3.44-8.87h17.03l3.38,8.87h9.92l-17.15-42.23h-8.98l-17.15,42.23h0Zm17.5-20.65c1.34-3.56,2.86-7.76,3.97-10.96h.12c1.11,3.21,2.62,7.41,3.85,10.73l1.75,4.72h-11.37l1.69-4.49h0Zm52.78,10.91l6.12-8.69c2.1-2.97,4.2-6.06,6.18-9.04l.12.06c-.06,3.03-.12,7-.12,10.5v16.91h9.27V9.56h-8.81l-12.54,17.85-12.54-17.85h-8.92v42.23h8.92v-16.91c0-3.5-.06-7.47-.12-10.5l.12-.06c1.98,2.98,4.08,6.07,6.18,9.04l6.12,8.69h0Z"></path>
  <path class="cls-1" d="m107.12,62.1h4.04l7.75,11.07,7.75-11.07h3.98v23.79h-4.17v-11.76c0-1.81,0-3.52.03-5.16l-.07-.03c-.99,1.51-2.04,2.99-3.15,4.6l-4.47,6.37-4.47-6.37c-1.12-1.61-2.17-3.09-3.15-4.6l-.06.03c.03,1.64.03,3.35.03,5.16v11.76h-4.04v-23.79h0Z"></path>
  <path class="cls-1" d="m141.05,78.89c.49,2.69,2.63,4.07,5.35,4.07,2.04,0,3.94-.75,5.52-1.87v3.65c-1.51.95-3.81,1.51-5.91,1.51-5.19,0-9-3.35-9-8.41s3.84-8.48,8.25-8.48c4.01,0,7.56,2.73,7.56,7.92,0,.53-.03,1.18-.1,1.61h-11.66Zm8.05-2.76c-.3-2.43-2.07-3.55-3.88-3.55s-3.68,1.12-4.17,3.55h8.05Z"></path>
  <path class="cls-1" d="m180.8,76.43c0-1.38-.23-2.14-.72-2.69-.53-.59-1.22-.85-2.07-.85-1.51,0-3.06.89-4.04,1.9.03.3.03.62.03.99v10.12h-3.98v-9.46c0-1.41-.16-2.14-.66-2.69-.56-.62-1.31-.85-2.1-.85-1.51,0-3.06.92-4.04,1.94v11.07h-3.98v-16.16h3.94v1.71l.07.03c1.32-1.22,3.09-2.1,5.16-2.1,1.91,0,3.88.76,4.83,2.53,1.81-1.67,3.81-2.53,5.91-2.53,1.77,0,3.22.59,4.2,1.64.99,1.08,1.41,2.5,1.41,4.76v10.12h-3.98v-9.46h0Z"></path>
  <path class="cls-1" d="m192,60.79h3.98v9.76l.07.03c1.02-.66,2.53-1.22,4.27-1.22,4.2,0,7.75,3.22,7.75,8.18s-3.65,8.7-8.64,8.7c-1.55,0-2.86-.36-4.04-.85l-3.38.59v-25.2h0Zm7.29,22.14c2.99,0,4.76-2.33,4.76-5.19s-1.74-4.96-4.6-4.96c-1.38,0-2.56.49-3.48,1.15v8.15c.85.49,2.17.86,3.32.86h0Z"></path>
  <path class="cls-1" d="m217.36,78.89c.49,2.69,2.63,4.07,5.35,4.07,2.04,0,3.94-.75,5.52-1.87v3.65c-1.51.95-3.81,1.51-5.91,1.51-5.19,0-9-3.35-9-8.41s3.84-8.48,8.25-8.48c4.01,0,7.56,2.73,7.56,7.92,0,.53-.03,1.18-.1,1.61h-11.66Zm8.05-2.76c-.3-2.43-2.07-3.55-3.88-3.55s-3.68,1.12-4.17,3.55h8.05Z"></path>
  <path class="cls-1" d="m235.56,69.73h3.94v2.27l.07.03c1.12-1.58,2.79-2.46,4.7-2.46.36,0,.72.03,1.08.13v3.81c-.39-.1-.79-.16-1.31-.16-1.87,0-3.38.82-4.5,2.4v10.15h-3.98v-16.16h0Z"></path>
</svg>
